<svg xmlns="http://www.w3.org/2000/svg" xmlns:xlink="http://www.w3.org/1999/xlink" version="1.1" baseProfile="full" width="889" height="594" style="position: absolute; left: 0px; top: 0px; user-select: none;"><rect width="889" height="594" x="0" y="0" fill="none"></rect><g><path d="M20 0C333.375 0 333.375 0 646.75 0L646.75 156.1895C333.375 156.1895 333.375 156.1895 20 156.1895Z" transform="translate(44.45 29.7)" fill="url(#zr18-g0)" fill-opacity="0.2"></path><path d="M20 156.1895C333.375 156.1895 333.375 164.1895 646.75 164.1895L646.75 259.6386C333.375 259.6386 333.375 251.6386 20 251.6386Z" transform="translate(44.45 29.7)" fill="url(#zr18-g1)" fill-opacity="0.2"></path><path d="M20 251.6386C333.375 251.6386 333.375 345.7333 646.75 345.7333L646.75 380.4421C333.375 380.4421 333.375 286.3474 20 286.3474Z" transform="translate(44.45 29.7)" fill="url(#zr18-g2)" fill-opacity="0.2"></path><path d="M20 286.3474C333.375 286.3474 333.375 501.2456 646.75 501.2456L646.75 518.6C333.375 518.6 333.375 303.7018 20 303.7018Z" transform="translate(44.45 29.7)" fill="url(#zr18-g3)" fill-opacity="0.2"></path><path d="M20 329.0561C333.375 329.0561 333.375 380.4421 646.75 380.4421L646.75 406.4737C333.375 406.4737 333.375 355.0877 20 355.0877Z" transform="translate(44.45 29.7)" fill="url(#zr18-g4)" fill-opacity="0.2"></path><path d="M20 311.7018C333.375 311.7018 333.375 259.6386 646.75 259.6386L646.75 276.993C333.375 276.993 333.375 329.0561 20 329.0561Z" transform="translate(44.45 29.7)" fill="url(#zr18-g5)" fill-opacity="0.2"></path><path d="M20 363.0877C333.375 363.0877 333.375 276.993 646.75 276.993L646.75 294.3474C333.375 294.3474 333.375 380.4421 20 380.4421Z" transform="translate(44.45 29.7)" fill="url(#zr18-g6)" fill-opacity="0.2"></path><path d="M20 431.8281C333.375 431.8281 333.375 406.4737 646.75 406.4737L646.75 458.5368C333.375 458.5368 333.375 483.8912 20 483.8912Z" transform="translate(44.45 29.7)" fill="url(#zr18-g7)" fill-opacity="0.2"></path><path d="M20 388.4421C333.375 388.4421 333.375 294.3474 646.75 294.3474L646.75 337.7333C333.375 337.7333 333.375 431.8281 20 431.8281Z" transform="translate(44.45 29.7)" fill="url(#zr18-g8)" fill-opacity="0.2"></path><path d="M20 491.8912C333.375 491.8912 333.375 458.5368 646.75 458.5368L646.75 484.5684C333.375 484.5684 333.375 517.9228 20 517.9228Z" transform="translate(44.45 29.7)" fill="url(#zr18-g9)" fill-opacity="0.2"></path><path d="M20 525.9228C333.375 525.9228 333.375 484.5684 646.75 484.5684L646.75 493.2456C333.375 493.2456 333.375 534.6 20 534.6Z" transform="translate(44.45 29.7)" fill="url(#zr18-g10)" fill-opacity="0.2"></path><path d="M0 0l20 0l0 303.7018l-20 0Z" transform="translate(44.45 29.7)" fill="#429837"></path><path d="M0 311.7018l20 0l0 43.386l-20 0Z" transform="translate(44.45 29.7)" fill="#e7623d"></path><path d="M0 363.0877l20 0l0 17.3544l-20 0Z" transform="translate(44.45 29.7)" fill="#2e9be3"></path><path d="M0 388.4421l20 0l0 95.4491l-20 0Z" transform="translate(44.45 29.7)" fill="#f4cc1b"></path><path d="M0 491.8912l20 0l0 26.0316l-20 0Z" transform="translate(44.45 29.7)" fill="#43c7c6"></path><path d="M0 525.9228l20 0l0 8.6772l-20 0Z" transform="translate(44.45 29.7)" fill="#a47840"></path><path d="M646.75 0l20 0l0 156.1895l-20 0Z" transform="translate(44.45 29.7)" fill="#73abcf"></path><path d="M646.75 164.1895l20 0l0 173.5439l-20 0Z" transform="translate(44.45 29.7)" fill="#a5a580"></path><path d="M646.75 345.7333l20 0l0 147.5123l-20 0Z" transform="translate(44.45 29.7)" fill="#818181"></path><path d="M646.75 501.2456l20 0l0 17.3544l-20 0Z" transform="translate(44.45 29.7)" fill="#9ba32a"></path><text dominant-baseline="central" text-anchor="start" xml:space="preserve" transform="translate(69.45 181.5509)" fill="#333" stroke="rgb(255,255,255)" stroke-width="2" paint-order="stroke" stroke-miterlimit="2" style="font-size: 12px; font-family: &quot;Microsoft YaHei&quot;;">Gen 1</text><text dominant-baseline="central" text-anchor="start" xml:space="preserve" transform="translate(69.45 363.0947)" fill="#333" stroke="rgb(255,255,255)" stroke-width="2" paint-order="stroke" stroke-miterlimit="2" style="font-size: 12px; font-family: &quot;Microsoft YaHei&quot;;">Gen 2</text><text dominant-baseline="central" text-anchor="start" xml:space="preserve" transform="translate(69.45 401.4649)" fill="#333" stroke="rgb(255,255,255)" stroke-width="2" paint-order="stroke" stroke-miterlimit="2" style="font-size: 12px; font-family: &quot;Microsoft YaHei&quot;;">Gen 3</text><text dominant-baseline="central" text-anchor="start" xml:space="preserve" transform="translate(69.45 465.8667)" fill="#333" stroke="rgb(255,255,255)" stroke-width="2" paint-order="stroke" stroke-miterlimit="2" style="font-size: 12px; font-family: &quot;Microsoft YaHei&quot;;">Gen 5</text><text dominant-baseline="central" text-anchor="start" xml:space="preserve" transform="translate(69.45 534.607)" fill="#333" stroke="rgb(255,255,255)" stroke-width="2" paint-order="stroke" stroke-miterlimit="2" style="font-size: 12px; font-family: &quot;Microsoft YaHei&quot;;">Gen 6</text><text dominant-baseline="central" text-anchor="start" xml:space="preserve" transform="translate(69.45 559.9614)" fill="#333" stroke="rgb(255,255,255)" stroke-width="2" paint-order="stroke" stroke-miterlimit="2" style="font-size: 12px; font-family: &quot;Microsoft YaHei&quot;;">Gen 7</text><text dominant-baseline="central" text-anchor="start" transform="translate(716.2 107.7947)" fill="#333" stroke="rgb(255,255,255)" stroke-width="2" paint-order="stroke" stroke-miterlimit="2" style="font-size: 12px; font-family: &quot;Microsoft YaHei&quot;;">Alolan</text><text dominant-baseline="central" text-anchor="start" transform="translate(716.2 280.6614)" fill="#333" stroke="rgb(255,255,255)" stroke-width="2" paint-order="stroke" stroke-miterlimit="2" style="font-size: 12px; font-family: &quot;Microsoft YaHei&quot;;">Galarian</text><text dominant-baseline="central" text-anchor="start" transform="translate(716.2 449.1895)" fill="#333" stroke="rgb(255,255,255)" stroke-width="2" paint-order="stroke" stroke-miterlimit="2" style="font-size: 12px; font-family: &quot;Microsoft YaHei&quot;;">Hisuian</text><text dominant-baseline="central" text-anchor="start" transform="translate(716.2 539.6228)" fill="#333" stroke="rgb(255,255,255)" stroke-width="2" paint-order="stroke" stroke-miterlimit="2" style="font-size: 12px; font-family: &quot;Microsoft YaHei&quot;;">Paldean</text></g><defs><linearGradient gradientUnits="objectBoundingBox" x1="0" y1="0" x2="1" y2="0" id="zr18-g0"><stop offset="0%" stop-color="#429837"></stop><stop offset="100%" stop-color="#73abcf"></stop></linearGradient><linearGradient gradientUnits="objectBoundingBox" x1="0" y1="0" x2="1" y2="0" id="zr18-g1"><stop offset="0%" stop-color="#429837"></stop><stop offset="100%" stop-color="#a5a580"></stop></linearGradient><linearGradient gradientUnits="objectBoundingBox" x1="0" y1="0" x2="1" y2="0" id="zr18-g2"><stop offset="0%" stop-color="#429837"></stop><stop offset="100%" stop-color="#818181"></stop></linearGradient><linearGradient gradientUnits="objectBoundingBox" x1="0" y1="0" x2="1" y2="0" id="zr18-g3"><stop offset="0%" stop-color="#429837"></stop><stop offset="100%" stop-color="#9ba32a"></stop></linearGradient><linearGradient gradientUnits="objectBoundingBox" x1="0" y1="0" x2="1" y2="0" id="zr18-g4"><stop offset="0%" stop-color="#e7623d"></stop><stop offset="100%" stop-color="#818181"></stop></linearGradient><linearGradient gradientUnits="objectBoundingBox" x1="0" y1="0" x2="1" y2="0" id="zr18-g5"><stop offset="0%" stop-color="#e7623d"></stop><stop offset="100%" stop-color="#a5a580"></stop></linearGradient><linearGradient gradientUnits="objectBoundingBox" x1="0" y1="0" x2="1" y2="0" id="zr18-g6"><stop offset="0%" stop-color="#2e9be3"></stop><stop offset="100%" stop-color="#a5a580"></stop></linearGradient><linearGradient gradientUnits="objectBoundingBox" x1="0" y1="0" x2="1" y2="0" id="zr18-g7"><stop offset="0%" stop-color="#f4cc1b"></stop><stop offset="100%" stop-color="#818181"></stop></linearGradient><linearGradient gradientUnits="objectBoundingBox" x1="0" y1="0" x2="1" y2="0" id="zr18-g8"><stop offset="0%" stop-color="#f4cc1b"></stop><stop offset="100%" stop-color="#a5a580"></stop></linearGradient><linearGradient gradientUnits="objectBoundingBox" x1="0" y1="0" x2="1" y2="0" id="zr18-g9"><stop offset="0%" stop-color="#43c7c6"></stop><stop offset="100%" stop-color="#818181"></stop></linearGradient><linearGradient gradientUnits="objectBoundingBox" x1="0" y1="0" x2="1" y2="0" id="zr18-g10"><stop offset="0%" stop-color="#a47840"></stop><stop offset="100%" stop-color="#818181"></stop></linearGradient></defs></svg>