<svg xmlns="http://www.w3.org/2000/svg" xmlns:xlink="http://www.w3.org/1999/xlink" version="1.1" baseProfile="full" width="1482" height="594" style="position: absolute; left: 0px; top: 0px; user-select: none;"><rect width="1482" height="594" x="0" y="0" fill="none"></rect><g><path d="M74.1 29.7l214.89 0l0 534.6l-214.89 0Z" fill="rgb(250,250,250)" fill-opacity="0.2"></path><path d="M288.99 29.7l214.89 0l0 534.6l-214.89 0Z" fill="rgb(210,219,238)" fill-opacity="0.2"></path><path d="M503.88 29.7l214.89 0l0 534.6l-214.89 0Z" fill="rgb(250,250,250)" fill-opacity="0.2"></path><path d="M718.77 29.7l214.89 0l0 534.6l-214.89 0Z" fill="rgb(210,219,238)" fill-opacity="0.2"></path><path d="M933.66 29.7l214.89 0l0 534.6l-214.89 0Z" fill="rgb(250,250,250)" fill-opacity="0.2"></path><path d="M1148.55 29.7l214.89 0l0 534.6l-214.89 0Z" fill="rgb(210,219,238)" fill-opacity="0.2"></path><text dominant-baseline="central" text-anchor="middle" y="-8" transform="translate(74.1 14.7)" fill="#6E7079" style="font-size: 16px; font-family: &quot;Microsoft YaHei&quot;; font-weight: 600;">Stats</text><path d="M74.1 564.5L1363.44 564.5" fill="transparent" stroke="#6E7079" stroke-linecap="round"></path><path d="M74.5 564.3L74.5 569.3" fill="transparent" stroke="#6E7079"></path><path d="M289.5 564.3L289.5 569.3" fill="transparent" stroke="#6E7079"></path><path d="M504.5 564.3L504.5 569.3" fill="transparent" stroke="#6E7079"></path><path d="M719.5 564.3L719.5 569.3" fill="transparent" stroke="#6E7079"></path><path d="M933.5 564.3L933.5 569.3" fill="transparent" stroke="#6E7079"></path><path d="M1148.5 564.3L1148.5 569.3" fill="transparent" stroke="#6E7079"></path><path d="M1363.5 564.3L1363.5 569.3" fill="transparent" stroke="#6E7079"></path><text dominant-baseline="central" text-anchor="end" transform="translate(66.1 564.3)" fill="#6E7079" style="font-size: 12px; font-family: &quot;Microsoft YaHei&quot;;">0</text><text dominant-baseline="central" text-anchor="end" transform="translate(66.1 504.9)" fill="#6E7079" style="font-size: 12px; font-family: &quot;Microsoft YaHei&quot;;">30</text><text dominant-baseline="central" text-anchor="end" transform="translate(66.1 445.5)" fill="#6E7079" style="font-size: 12px; font-family: &quot;Microsoft YaHei&quot;;">60</text><text dominant-baseline="central" text-anchor="end" transform="translate(66.1 386.1)" fill="#6E7079" style="font-size: 12px; font-family: &quot;Microsoft YaHei&quot;;">90</text><text dominant-baseline="central" text-anchor="end" transform="translate(66.1 326.7)" fill="#6E7079" style="font-size: 12px; font-family: &quot;Microsoft YaHei&quot;;">120</text><text dominant-baseline="central" text-anchor="end" transform="translate(66.1 267.3)" fill="#6E7079" style="font-size: 12px; font-family: &quot;Microsoft YaHei&quot;;">150</text><text dominant-baseline="central" text-anchor="end" transform="translate(66.1 207.9)" fill="#6E7079" style="font-size: 12px; font-family: &quot;Microsoft YaHei&quot;;">180</text><text dominant-baseline="central" text-anchor="end" transform="translate(66.1 148.5)" fill="#6E7079" style="font-size: 12px; font-family: &quot;Microsoft YaHei&quot;;">210</text><text dominant-baseline="central" text-anchor="end" transform="translate(66.1 89.1)" fill="#6E7079" style="font-size: 12px; font-family: &quot;Microsoft YaHei&quot;;">240</text><text dominant-baseline="central" text-anchor="end" transform="translate(66.1 29.7)" fill="#6E7079" style="font-size: 12px; font-family: &quot;Microsoft YaHei&quot;;">270</text><text dominant-baseline="central" text-anchor="middle" y="6" transform="translate(181.545 572.3)" fill="#6E7079" style="font-size: 12px; font-family: &quot;Microsoft YaHei&quot;;">Attack</text><text dominant-baseline="central" text-anchor="middle" y="6" transform="translate(396.435 572.3)" fill="#6E7079" style="font-size: 12px; font-family: &quot;Microsoft YaHei&quot;;">Defense</text><text dominant-baseline="central" text-anchor="middle" y="6" transform="translate(611.325 572.3)" fill="#6E7079" style="font-size: 12px; font-family: &quot;Microsoft YaHei&quot;;">SP_Attack</text><text dominant-baseline="central" text-anchor="middle" y="6" transform="translate(826.215 572.3)" fill="#6E7079" style="font-size: 12px; font-family: &quot;Microsoft YaHei&quot;;">SP_Defense</text><text dominant-baseline="central" text-anchor="middle" y="6" transform="translate(1041.105 572.3)" fill="#6E7079" style="font-size: 12px; font-family: &quot;Microsoft YaHei&quot;;">Speed</text><text dominant-baseline="central" text-anchor="middle" y="6" transform="translate(1255.995 572.3)" fill="#6E7079" style="font-size: 12px; font-family: &quot;Microsoft YaHei&quot;;">HP</text><path d="M96.589 455.4L129.5095 455.4L129.5095 372.24L96.589 372.24ZM113.0492 554.4L113.0492 455.4M113.0492 198L113.0492 372.24M96.589 554.4L129.5095 554.4M96.589 198L129.5095 198M96.589 415.8L129.5095 415.8" fill="#ffffff11" stroke="#e7623d"></path><path d="M311.479 465.3L344.3995 465.3L344.3995 396L311.479 396ZM327.9392 554.4L327.9392 465.3M327.9392 108.9L327.9392 396M311.479 554.4L344.3995 554.4M311.479 108.9L344.3995 108.9M311.479 433.62L344.3995 433.62" fill="#ffffff11" stroke="#e7623d"></path><path d="M526.369 475.2L559.2895 475.2L559.2895 394.02L526.369 394.02ZM542.8292 544.5L542.8292 475.2M542.8292 217.8L542.8292 394.02M526.369 544.5L559.2895 544.5M526.369 217.8L559.2895 217.8M526.369 441.54L559.2895 441.54" fill="#ffffff11" stroke="#e7623d"></path><path d="M741.259 465.3L774.1795 465.3L774.1795 399.96L741.259 399.96ZM757.7192 524.7L757.7192 465.3M757.7192 108.9L757.7192 399.96M741.259 524.7L774.1795 524.7M741.259 108.9L774.1795 108.9M741.259 435.6L774.1795 435.6" fill="#ffffff11" stroke="#e7623d"></path><path d="M956.149 475.2L989.0695 475.2L989.0695 396L956.149 396ZM972.6092 554.4L972.6092 475.2M972.6092 247.5L972.6092 396M956.149 554.4L989.0695 554.4M956.149 247.5L989.0695 247.5M956.149 435.6L989.0695 435.6" fill="#ffffff11" stroke="#e7623d"></path><path d="M1171.039 465.3L1203.9595 465.3L1203.9595 405.9L1171.039 405.9ZM1187.4992 562.32L1187.4992 465.3M1187.4992 59.4L1187.4992 405.9M1171.039 562.32L1203.9595 562.32M1171.039 59.4L1203.9595 59.4M1171.039 435.6L1203.9595 435.6" fill="#ffffff11" stroke="#e7623d"></path><path d="M142.2529 376.2L175.1733 376.2L175.1733 326.7L142.2529 326.7ZM158.7131 435.6L158.7131 376.2M158.7131 207.9L158.7131 326.7M142.2529 435.6L175.1733 435.6M142.2529 207.9L175.1733 207.9M142.2529 363.33L175.1733 363.33" fill="#ffffff11" stroke="#2e9be3"></path><path d="M357.1429 411.84L390.0633 411.84L390.0633 356.4L357.1429 356.4ZM373.6031 524.7L373.6031 411.84M373.6031 247.5L373.6031 356.4M357.1429 524.7L390.0633 524.7M357.1429 247.5L390.0633 247.5M357.1429 371.25L390.0633 371.25" fill="#ffffff11" stroke="#2e9be3"></path><path d="M572.0329 376.2L604.9533 376.2L604.9533 306.9L572.0329 306.9ZM588.4931 455.4L588.4931 376.2M588.4931 207.9L588.4931 306.9M572.0329 455.4L604.9533 455.4M572.0329 207.9L604.9533 207.9M572.0329 344.52L604.9533 344.52" fill="#ffffff11" stroke="#2e9be3"></path><path d="M786.9229 405.9L819.8433 405.9L819.8433 346.5L786.9229 346.5ZM803.3831 524.7L803.3831 405.9M803.3831 247.5L803.3831 346.5M786.9229 524.7L819.8433 524.7M786.9229 247.5L819.8433 247.5M786.9229 371.25L819.8433 371.25" fill="#ffffff11" stroke="#2e9be3"></path><path d="M1001.8129 405.9L1034.7333 405.9L1034.7333 316.8L1001.8129 316.8ZM1018.2731 496.98L1018.2731 405.9M1018.2731 207.9L1018.2731 316.8M1001.8129 496.98L1034.7333 496.98M1001.8129 207.9L1034.7333 207.9M1001.8129 366.3L1034.7333 366.3" fill="#ffffff11" stroke="#2e9be3"></path><path d="M1216.7029 425.7L1249.6233 425.7L1249.6233 366.3L1216.7029 366.3ZM1233.1631 473.22L1233.1631 425.7M1233.1631 297L1233.1631 366.3M1216.7029 473.22L1249.6233 473.22M1216.7029 297L1249.6233 297M1216.7029 385.11L1249.6233 385.11" fill="#ffffff11" stroke="#2e9be3"></path><path d="M187.9167 396L220.8372 396L220.8372 312.84L187.9167 312.84ZM204.3769 465.3L204.3769 396M204.3769 205.92L204.3769 312.84M187.9167 465.3L220.8372 465.3M187.9167 205.92L220.8372 205.92M187.9167 364.32L220.8372 364.32" fill="#ffffff11" stroke="#f4cc1b"></path><path d="M402.8067 415.8L435.7272 415.8L435.7272 346.5L402.8067 346.5ZM419.2669 491.04L419.2669 415.8M419.2669 146.52L419.2669 346.5M402.8067 491.04L435.7272 491.04M402.8067 146.52L435.7272 146.52M402.8067 386.1L435.7272 386.1" fill="#ffffff11" stroke="#f4cc1b"></path><path d="M617.6967 425.7L650.6172 425.7L650.6172 316.8L617.6967 316.8ZM634.1569 465.3L634.1569 425.7M634.1569 221.76L634.1569 316.8M617.6967 465.3L650.6172 465.3M617.6967 221.76L650.6172 221.76M617.6967 374.22L650.6172 374.22" fill="#ffffff11" stroke="#f4cc1b"></path><path d="M832.5867 407.88L865.5072 407.88L865.5072 346.5L832.5867 346.5ZM849.0469 502.92L849.0469 407.88M849.0469 168.3L849.0469 346.5M832.5867 502.92L865.5072 502.92M832.5867 168.3L865.5072 168.3M832.5867 376.2L865.5072 376.2" fill="#ffffff11" stroke="#f4cc1b"></path><path d="M1047.4767 405.9L1080.3972 405.9L1080.3972 346.5L1047.4767 346.5ZM1063.9369 538.56L1063.9369 405.9M1063.9369 168.3L1063.9369 346.5M1047.4767 538.56L1080.3972 538.56M1047.4767 168.3L1080.3972 168.3M1047.4767 366.3L1080.3972 366.3" fill="#ffffff11" stroke="#f4cc1b"></path><path d="M1262.3667 407.88L1295.2872 407.88L1295.2872 368.28L1262.3667 368.28ZM1278.8269 459.36L1278.8269 407.88M1278.8269 122.76L1278.8269 368.28M1262.3667 459.36L1295.2872 459.36M1262.3667 122.76L1295.2872 122.76M1262.3667 389.07L1295.2872 389.07" fill="#ffffff11" stroke="#f4cc1b"></path><path d="M233.5806 366.3L266.501 366.3L266.501 267.3L233.5806 267.3ZM250.0408 506.88L250.0408 366.3M250.0408 188.1L250.0408 267.3M233.5806 506.88L266.501 506.88M233.5806 188.1L266.501 188.1M233.5806 326.7L266.501 326.7" fill="#ffffff11" stroke="#43c7c6"></path><path d="M448.4706 386.1L481.391 386.1L481.391 326.7L448.4706 326.7ZM464.9308 502.92L464.9308 386.1M464.9308 69.3L464.9308 326.7M448.4706 502.92L481.391 502.92M448.4706 69.3L481.391 69.3M448.4706 365.31L481.391 365.31" fill="#ffffff11" stroke="#43c7c6"></path><path d="M663.3606 390.06L696.281 390.06L696.281 267.3L663.3606 267.3ZM679.8208 506.88L679.8208 390.06M679.8208 180.18L679.8208 267.3M663.3606 506.88L696.281 506.88M663.3606 180.18L696.281 180.18M663.3606 309.87L696.281 309.87" fill="#ffffff11" stroke="#43c7c6"></path><path d="M878.2506 386.1L911.171 386.1L911.171 326.7L878.2506 326.7ZM894.7108 502.92L894.7108 386.1M894.7108 69.3L894.7108 326.7M878.2506 502.92L911.171 502.92M878.2506 69.3L911.171 69.3M878.2506 366.3L911.171 366.3" fill="#ffffff11" stroke="#43c7c6"></path><path d="M1093.1406 386.1L1126.061 386.1L1126.061 310.86L1093.1406 310.86ZM1109.6008 491.04L1109.6008 386.1M1109.6008 267.3L1109.6008 310.86M1093.1406 491.04L1126.061 491.04M1093.1406 267.3L1126.061 267.3M1093.1406 376.2L1126.061 376.2" fill="#ffffff11" stroke="#43c7c6"></path><path d="M1308.0306 372.24L1340.951 372.24L1340.951 316.8L1308.0306 316.8ZM1324.4908 479.16L1324.4908 372.24M1324.4908 59.4L1324.4908 316.8M1308.0306 479.16L1340.951 479.16M1308.0306 59.4L1340.951 59.4M1308.0306 366.3L1340.951 366.3" fill="#ffffff11" stroke="#43c7c6"></path><path d="M-5 -5l418.1328 0l0 26l-418.1328 0Z" transform="translate(536.9336 5)" fill="rgb(0,0,0)" fill-opacity="0" stroke="#ccc" stroke-width="0"></path><path d="M3.5 0L21.5 0A3.5 3.5 0 0 1 25 3.5L25 10.5A3.5 3.5 0 0 1 21.5 14L3.5 14A3.5 3.5 0 0 1 0 10.5L0 3.5A3.5 3.5 0 0 1 3.5 0" transform="translate(537.9336 6)" fill="#e7623d" stroke="#e7623d" stroke-width="2" stroke-linecap="butt" stroke-miterlimit="10"></path><text dominant-baseline="central" text-anchor="start" x="30" y="7" transform="translate(537.9336 6)" fill="#333" style="font-size: 12px; font-family: &quot;Microsoft YaHei&quot;;">Ordinary</text><path d="M-1 -1l81.543 0l0 16l-81.543 0Z" transform="translate(537.9336 6)" fill="transparent"></path><path d="M3.5 0L21.5 0A3.5 3.5 0 0 1 25 3.5L25 10.5A3.5 3.5 0 0 1 21.5 14L3.5 14A3.5 3.5 0 0 1 0 10.5L0 3.5A3.5 3.5 0 0 1 3.5 0" transform="translate(629.4766 6)" fill="#2e9be3" stroke="#2e9be3" stroke-width="2" stroke-linecap="butt" stroke-miterlimit="10"></path><text dominant-baseline="central" text-anchor="start" x="30" y="7" transform="translate(629.4766 6)" fill="#333" style="font-size: 12px; font-family: &quot;Microsoft YaHei&quot;;">Mythical</text><path d="M-1 -1l80.0078 0l0 16l-80.0078 0Z" transform="translate(629.4766 6)" fill="transparent"></path><path d="M3.5 0L21.5 0A3.5 3.5 0 0 1 25 3.5L25 10.5A3.5 3.5 0 0 1 21.5 14L3.5 14A3.5 3.5 0 0 1 0 10.5L0 3.5A3.5 3.5 0 0 1 3.5 0" transform="translate(719.4844 6)" fill="#f4cc1b" stroke="#f4cc1b" stroke-width="2" stroke-linecap="butt" stroke-miterlimit="10"></path><text dominant-baseline="central" text-anchor="start" x="30" y="7" transform="translate(719.4844 6)" fill="#333" style="font-size: 12px; font-family: &quot;Microsoft YaHei&quot;;">Semi-Legendary</text><path d="M-1 -1l124.9727 0l0 16l-124.9727 0Z" transform="translate(719.4844 6)" fill="transparent"></path><path d="M3.5 0L21.5 0A3.5 3.5 0 0 1 25 3.5L25 10.5A3.5 3.5 0 0 1 21.5 14L3.5 14A3.5 3.5 0 0 1 0 10.5L0 3.5A3.5 3.5 0 0 1 3.5 0" transform="translate(854.457 6)" fill="#43c7c6" stroke="#43c7c6" stroke-width="2" stroke-linecap="butt" stroke-miterlimit="10"></path><text dominant-baseline="central" text-anchor="start" x="30" y="7" transform="translate(854.457 6)" fill="#333" style="font-size: 12px; font-family: &quot;Microsoft YaHei&quot;;">Legendary</text><path d="M-1 -1l91.6094 0l0 16l-91.6094 0Z" transform="translate(854.457 6)" fill="transparent"></path></g></svg>