<svg xmlns="http://www.w3.org/2000/svg" xmlns:xlink="http://www.w3.org/1999/xlink" version="1.1" baseProfile="full" width="1482" height="891" style="position: absolute; left: 0px; top: 0px; user-select: none;"><rect width="1482" height="891" x="0" y="0" fill="none"></rect><g><path d="M0 0l1185.6 0l0 712.8l-1185.6 0Z" transform="translate(148.2 89.1)" fill="#fff"></path><path d="M0 0l345.8801 0l0 186.12l-345.8801 0Z" transform="translate(148.2 89.1)" fill="#fff"></path><path d="M0 0l345.8801 0l0 182.16l-345.8801 0Z" transform="translate(148.2 275.22)" fill="#fff"></path><path d="M0 0l345.8801 0l0 174.24l-345.8801 0Z" transform="translate(148.2 457.38)" fill="#fff"></path><path d="M0 0l345.8801 0l0 170.28l-345.8801 0Z" transform="translate(148.2 631.62)" fill="#fff"></path><path d="M0 0l288.2334 0l0 194.832l-288.2334 0Z" transform="translate(494.0801 89.1)" fill="#fff"></path><path d="M0 0l288.2334 0l0 180.576l-288.2334 0Z" transform="translate(494.0801 283.932)" fill="#fff"></path><path d="M0 0l288.2334 0l0 171.072l-288.2334 0Z" transform="translate(494.0801 464.508)" fill="#fff"></path><path d="M0 0l288.2334 0l0 166.32l-288.2334 0Z" transform="translate(494.0801 635.58)" fill="#fff"></path><path d="M0 0l185.5964 0l0 258.2969l-185.5964 0Z" transform="translate(782.3135 89.1)" fill="#fff"></path><path d="M0 0l185.5964 0l0 258.2969l-185.5964 0Z" transform="translate(967.9099 89.1)" fill="#fff"></path><path d="M0 0l180.2937 0l0 258.2969l-180.2937 0Z" transform="translate(1153.5063 89.1)" fill="#fff"></path><path d="M0 0l280.2637 0l0 156.3882l-280.2637 0Z" transform="translate(782.3135 347.3969)" fill="#fff"></path><path d="M0 0l280.2637 0l0 151.501l-280.2637 0Z" transform="translate(782.3135 503.785)" fill="#fff"></path><path d="M0 0l280.2637 0l0 146.6139l-280.2637 0Z" transform="translate(782.3135 655.2861)" fill="#fff"></path><path d="M0 0l135.6114 0l0 303.0021l-135.6114 0Z" transform="translate(1062.5771 347.3969)" fill="#fff"></path><path d="M0 0l135.6114 0l0 303.0021l-135.6114 0Z" transform="translate(1198.1886 347.3969)" fill="#fff"></path><path d="M0 0l271.2229 0l0 151.501l-271.2229 0Z" transform="translate(1062.5771 650.399)" fill="#fff"></path><path d="M0 0l235.4928 0l0 186.12l-235.4928 0Z" transform="translate(148.2 89.1)" fill="#fff"></path><path d="M0 0l110.3873 0l0 148.896l-110.3873 0Z" transform="translate(383.6928 89.1)" fill="#fff"></path><path d="M0 0l110.3873 0l0 37.224l-110.3873 0Z" transform="translate(383.6928 237.996)" fill="#fff"></path><path d="M0 0l255.6505 0l0 182.16l-255.6505 0Z" transform="translate(148.2 275.22)" fill="#fff"></path><path d="M0 0l90.2296 0l0 121.44l-90.2296 0Z" transform="translate(403.8505 275.22)" fill="#fff"></path><path d="M0 0l90.2296 0l0 60.72l-90.2296 0Z" transform="translate(403.8505 396.66)" fill="#fff"></path><path d="M0 0l267.271 0l0 174.24l-267.271 0Z" transform="translate(148.2 457.38)" fill="#fff"></path><path d="M0 0l78.6091 0l0 104.544l-78.6091 0Z" transform="translate(415.471 457.38)" fill="#fff"></path><path d="M0 0l78.6091 0l0 69.696l-78.6091 0Z" transform="translate(415.471 561.924)" fill="#fff"></path><path d="M0 0l233.268 0l0 170.28l-233.268 0Z" transform="translate(148.2 631.62)" fill="#fff"></path><path d="M0 0l112.6121 0l0 109.4657l-112.6121 0Z" transform="translate(381.468 631.62)" fill="#fff"></path><path d="M0 0l112.6121 0l0 60.8143l-112.6121 0Z" transform="translate(381.468 741.0857)" fill="#fff"></path><path d="M0 0l288.2334 0l0 194.832l-288.2334 0Z" transform="translate(494.0801 89.1)" fill="#fff"></path><path d="M0 0l204.7974 0l0 100.32l-204.7974 0Z" transform="translate(494.0801 283.932)" fill="#fff"></path><path d="M0 0l204.7974 0l0 80.256l-204.7974 0Z" transform="translate(494.0801 384.252)" fill="#fff"></path><path d="M0 0l83.436 0l0 180.576l-83.436 0Z" transform="translate(698.8775 283.932)" fill="#fff"></path><path d="M0 0l160.1297 0l0 171.072l-160.1297 0Z" transform="translate(494.0801 464.508)" fill="#fff"></path><path d="M0 0l128.1037 0l0 106.92l-128.1037 0Z" transform="translate(654.2097 464.508)" fill="#fff"></path><path d="M0 0l128.1037 0l0 64.152l-128.1037 0Z" transform="translate(654.2097 571.428)" fill="#fff"></path><path d="M0 0l238.8219 0l0 166.32l-238.8219 0Z" transform="translate(494.0801 635.58)" fill="#fff"></path><path d="M0 0l49.4114 0l0 138.6l-49.4114 0Z" transform="translate(732.902 635.58)" fill="#fff"></path><path d="M0 0l49.4114 0l0 27.72l-49.4114 0Z" transform="translate(732.902 774.18)" fill="#fff"></path><path d="M0 0l185.5964 0l0 162.358l-185.5964 0Z" transform="translate(782.3135 89.1)" fill="#fff"></path><path d="M0 0l114.2132 0l0 95.9388l-114.2132 0Z" transform="translate(782.3135 251.458)" fill="#fff"></path><path d="M0 0l71.3832 0l0 95.9388l-71.3832 0Z" transform="translate(896.5266 251.458)" fill="#fff"></path><path d="M0 0l103.934 0l0 184.4978l-103.934 0Z" transform="translate(967.9099 89.1)" fill="#fff"></path><path d="M0 0l81.6624 0l0 184.4978l-81.6624 0Z" transform="translate(1071.8439 89.1)" fill="#fff"></path><path d="M0 0l185.5964 0l0 73.7991l-185.5964 0Z" transform="translate(967.9099 273.5978)" fill="#fff"></path><path d="M0 0l180.2937 0l0 151.9393l-180.2937 0Z" transform="translate(1153.5063 89.1)" fill="#fff"></path><path d="M0 0l103.025 0l0 106.3575l-103.025 0Z" transform="translate(1153.5063 241.0393)" fill="#fff"></path><path d="M0 0l77.2687 0l0 106.3575l-77.2687 0Z" transform="translate(1256.5313 241.0393)" fill="#fff"></path><path d="M0 0l131.3736 0l0 156.3882l-131.3736 0Z" transform="translate(782.3135 347.3969)" fill="#fff"></path><path d="M0 0l96.3406 0l0 156.3882l-96.3406 0Z" transform="translate(913.687 347.3969)" fill="#fff"></path><path d="M0 0l52.5494 0l0 156.3882l-52.5494 0Z" transform="translate(1010.0277 347.3969)" fill="#fff"></path><path d="M0 0l207.9376 0l0 151.501l-207.9376 0Z" transform="translate(782.3135 503.785)" fill="#fff"></path><path d="M0 0l72.3261 0l0 75.7505l-72.3261 0Z" transform="translate(990.251 503.785)" fill="#fff"></path><path d="M0 0l72.3261 0l0 75.7505l-72.3261 0Z" transform="translate(990.251 579.5356)" fill="#fff"></path><path d="M0 0l261.5794 0l0 146.6139l-261.5794 0Z" transform="translate(782.3135 655.2861)" fill="#fff"></path><path d="M0 0l18.6842 0l0 146.6139l-18.6842 0Z" transform="translate(1043.8929 655.2861)" fill="#fff"></path><path d="M0 0l135.6114 0l0 282.802l-135.6114 0Z" transform="translate(1062.5771 347.3969)" fill="#fff"></path><path d="M0 0l135.6114 0l0 20.2001l-135.6114 0Z" transform="translate(1062.5771 630.1988)" fill="#fff"></path><path d="M0 0l135.6114 0l0 171.7012l-135.6114 0Z" transform="translate(1198.1886 347.3969)" fill="#fff"></path><path d="M0 0l114.7481 0l0 131.3009l-114.7481 0Z" transform="translate(1198.1886 519.098)" fill="#fff"></path><path d="M0 0l20.8633 0l0 131.3009l-20.8633 0Z" transform="translate(1312.9367 519.098)" fill="#fff"></path><path d="M0 0l253.1414 0l0 151.501l-253.1414 0Z" transform="translate(1062.5771 650.399)" fill="#fff"></path><path d="M0 0l18.0815 0l0 151.501l-18.0815 0Z" transform="translate(1315.7185 650.399)" fill="#fff"></path><path d="M0 0l235.4928 0l0 186.12l-235.4928 0Z" transform="translate(148.2 89.1)" fill="#429837"></path><path d="M0 0l110.3873 0l0 148.896l-110.3873 0Z" transform="translate(383.6928 89.1)" fill="#429837"></path><path d="M0 0l110.3873 0l0 37.224l-110.3873 0Z" transform="translate(383.6928 237.996)" fill="#429837"></path><path d="M0 0l255.6505 0l0 182.16l-255.6505 0Z" transform="translate(148.2 275.22)" fill="#e7623d"></path><path d="M0 0l90.2296 0l0 121.44l-90.2296 0Z" transform="translate(403.8505 275.22)" fill="#e7623d"></path><path d="M0 0l90.2296 0l0 60.72l-90.2296 0Z" transform="translate(403.8505 396.66)" fill="#e7623d"></path><path d="M0 0l267.271 0l0 174.24l-267.271 0Z" transform="translate(148.2 457.38)" fill="#2e9be3"></path><path d="M0 0l78.6091 0l0 104.544l-78.6091 0Z" transform="translate(415.471 457.38)" fill="#2e9be3"></path><path d="M0 0l78.6091 0l0 69.696l-78.6091 0Z" transform="translate(415.471 561.924)" fill="#2e9be3"></path><path d="M0 0l233.268 0l0 170.28l-233.268 0Z" transform="translate(148.2 631.62)" fill="#f4cc1b"></path><path d="M0 0l112.6121 0l0 109.4657l-112.6121 0Z" transform="translate(381.468 631.62)" fill="#f4cc1b"></path><path d="M0 0l112.6121 0l0 60.8143l-112.6121 0Z" transform="translate(381.468 741.0857)" fill="#f4cc1b"></path><path d="M0 0l288.2334 0l0 194.832l-288.2334 0Z" transform="translate(494.0801 89.1)" fill="#43c7c6"></path><path d="M0 0l204.7974 0l0 100.32l-204.7974 0Z" transform="translate(494.0801 283.932)" fill="#a47840"></path><path d="M0 0l204.7974 0l0 80.256l-204.7974 0Z" transform="translate(494.0801 384.252)" fill="#a47840"></path><path d="M0 0l83.436 0l0 180.576l-83.436 0Z" transform="translate(698.8775 283.932)" fill="#a47840"></path><path d="M0 0l160.1297 0l0 171.072l-160.1297 0Z" transform="translate(494.0801 464.508)" fill="#73abcf"></path><path d="M0 0l128.1037 0l0 106.92l-128.1037 0Z" transform="translate(654.2097 464.508)" fill="#73abcf"></path><path d="M0 0l128.1037 0l0 64.152l-128.1037 0Z" transform="translate(654.2097 571.428)" fill="#73abcf"></path><path d="M0 0l238.8219 0l0 166.32l-238.8219 0Z" transform="translate(494.0801 635.58)" fill="#a5a580"></path><path d="M0 0l49.4114 0l0 138.6l-49.4114 0Z" transform="translate(732.902 635.58)" fill="#a5a580"></path><path d="M0 0l49.4114 0l0 27.72l-49.4114 0Z" transform="translate(732.902 774.18)" fill="#a5a580"></path><path d="M0 0l185.5964 0l0 162.358l-185.5964 0Z" transform="translate(782.3135 89.1)" fill="#818181"></path><path d="M0 0l114.2132 0l0 95.9388l-114.2132 0Z" transform="translate(782.3135 251.458)" fill="#818181"></path><path d="M0 0l71.3832 0l0 95.9388l-71.3832 0Z" transform="translate(896.5266 251.458)" fill="#818181"></path><path d="M0 0l103.934 0l0 184.4978l-103.934 0Z" transform="translate(967.9099 89.1)" fill="#9ba32a"></path><path d="M0 0l81.6624 0l0 184.4978l-81.6624 0Z" transform="translate(1071.8439 89.1)" fill="#9ba32a"></path><path d="M0 0l185.5964 0l0 73.7991l-185.5964 0Z" transform="translate(967.9099 273.5978)" fill="#9ba32a"></path><path d="M0 0l180.2937 0l0 151.9393l-180.2937 0Z" transform="translate(1153.5063 89.1)" fill="#9257ca"></path><path d="M0 0l103.025 0l0 106.3575l-103.025 0Z" transform="translate(1153.5063 241.0393)" fill="#9257ca"></path><path d="M0 0l77.2687 0l0 106.3575l-77.2687 0Z" transform="translate(1256.5313 241.0393)" fill="#9257ca"></path><path d="M0 0l131.3736 0l0 156.3882l-131.3736 0Z" transform="translate(782.3135 347.3969)" fill="#e29219"></path><path d="M0 0l96.3406 0l0 156.3882l-96.3406 0Z" transform="translate(913.687 347.3969)" fill="#e29219"></path><path d="M0 0l52.5494 0l0 156.3882l-52.5494 0Z" transform="translate(1010.0277 347.3969)" fill="#e29219"></path><path d="M0 0l207.9376 0l0 151.501l-207.9376 0Z" transform="translate(782.3135 503.785)" fill="#e66d8f"></path><path d="M0 0l72.3261 0l0 75.7505l-72.3261 0Z" transform="translate(990.251 503.785)" fill="#e66d8f"></path><path d="M0 0l72.3261 0l0 75.7505l-72.3261 0Z" transform="translate(990.251 579.5356)" fill="#e66d8f"></path><path d="M0 0l261.5794 0l0 146.6139l-261.5794 0Z" transform="translate(782.3135 655.2861)" fill="#6b476e"></path><path d="M0 0l18.6842 0l0 146.6139l-18.6842 0Z" transform="translate(1043.8929 655.2861)" fill="#6b476e"></path><path d="M0 0l135.6114 0l0 282.802l-135.6114 0Z" transform="translate(1062.5771 347.3969)" fill="#536eb7"></path><path d="M0 0l135.6114 0l0 20.2001l-135.6114 0Z" transform="translate(1062.5771 630.1988)" fill="#536eb7"></path><path d="M0 0l135.6114 0l0 171.7012l-135.6114 0Z" transform="translate(1198.1886 347.3969)" fill="#69acc5"></path><path d="M0 0l114.7481 0l0 131.3009l-114.7481 0Z" transform="translate(1198.1886 519.098)" fill="#69acc5"></path><path d="M0 0l20.8633 0l0 131.3009l-20.8633 0Z" transform="translate(1312.9367 519.098)" fill="#69acc5"></path><path d="M0 0l253.1414 0l0 151.501l-253.1414 0Z" transform="translate(1062.5771 650.399)" fill="#4d4646"></path><path d="M0 0l18.0815 0l0 151.501l-18.0815 0Z" transform="translate(1315.7185 650.399)" fill="#4d4646"></path><text dominant-baseline="central" text-anchor="middle" xml:space="preserve" y="-6" transform="translate(265.9464 182.16)" fill="#fff" style="font-size: 12px; font-family: &quot;Microsoft YaHei&quot;;">Swift Swim</text><text dominant-baseline="central" text-anchor="middle" xml:space="preserve" y="6" transform="translate(265.9464 182.16)" fill="#fff" style="font-size: 12px; font-family: &quot;Microsoft YaHei&quot;;">(as first)</text><text dominant-baseline="central" text-anchor="middle" xml:space="preserve" y="-6" transform="translate(438.8864 163.548)" fill="#fff" style="font-size: 12px; font-family: &quot;Microsoft YaHei&quot;;">Swift Swim</text><text dominant-baseline="central" text-anchor="middle" xml:space="preserve" y="6" transform="translate(438.8864 163.548)" fill="#fff" style="font-size: 12px; font-family: &quot;Microsoft YaHei&quot;;">(as hidden)</text><text dominant-baseline="central" text-anchor="middle" xml:space="preserve" y="-6" transform="translate(438.8864 256.608)" fill="#fff" style="font-size: 12px; font-family: &quot;Microsoft YaHei&quot;;">Swift Swim</text><text dominant-baseline="central" text-anchor="middle" xml:space="preserve" y="6" transform="translate(438.8864 256.608)" fill="#fff" style="font-size: 12px; font-family: &quot;Microsoft YaHei&quot;;">(as second)</text><text dominant-baseline="central" text-anchor="middle" y="-6" transform="translate(276.0252 366.3)" fill="#fff" style="font-size: 12px; font-family: &quot;Microsoft YaHei&quot;;">Intimidate</text><text dominant-baseline="central" text-anchor="middle" xml:space="preserve" y="6" transform="translate(276.0252 366.3)" fill="#fff" style="font-size: 12px; font-family: &quot;Microsoft YaHei&quot;;">(as first)</text><text dominant-baseline="central" text-anchor="middle" y="-6" transform="translate(448.9653 335.94)" fill="#fff" style="font-size: 12px; font-family: &quot;Microsoft YaHei&quot;;">Intimidate</text><text dominant-baseline="central" text-anchor="middle" xml:space="preserve" y="6" transform="translate(448.9653 335.94)" fill="#fff" style="font-size: 12px; font-family: &quot;Microsoft YaHei&quot;;">(as hidden)</text><text dominant-baseline="central" text-anchor="middle" y="-6" transform="translate(448.9653 427.02)" fill="#fff" style="font-size: 12px; font-family: &quot;Microsoft YaHei&quot;;">Intimidate</text><text dominant-baseline="central" text-anchor="middle" xml:space="preserve" y="6" transform="translate(448.9653 427.02)" fill="#fff" style="font-size: 12px; font-family: &quot;Microsoft YaHei&quot;;">(as second)</text><text dominant-baseline="central" text-anchor="middle" y="-6" transform="translate(281.8355 544.5)" fill="#fff" style="font-size: 12px; font-family: &quot;Microsoft YaHei&quot;;">Chlorophyll</text><text dominant-baseline="central" text-anchor="middle" xml:space="preserve" y="6" transform="translate(281.8355 544.5)" fill="#fff" style="font-size: 12px; font-family: &quot;Microsoft YaHei&quot;;">(as first)</text><text dominant-baseline="central" text-anchor="middle" y="-6" transform="translate(454.7755 509.652)" fill="#fff" style="font-size: 12px; font-family: &quot;Microsoft YaHei&quot;;">Chlorophyll</text><text dominant-baseline="central" text-anchor="middle" xml:space="preserve" y="6" transform="translate(454.7755 509.652)" fill="#fff" style="font-size: 12px; font-family: &quot;Microsoft YaHei&quot;;">(as hidden)</text><text dominant-baseline="central" text-anchor="middle" y="-6" transform="translate(454.7755 596.772)" fill="#fff" style="font-size: 12px; font-family: &quot;Microsoft YaHei&quot;;">Chlorophyll</text><text dominant-baseline="central" text-anchor="middle" xml:space="preserve" y="6" transform="translate(454.7755 596.772)" fill="#fff" style="font-size: 12px; font-family: &quot;Microsoft YaHei&quot;;">(as second)</text><text dominant-baseline="central" text-anchor="middle" xml:space="preserve" y="-6" transform="translate(264.834 716.76)" fill="#fff" style="font-size: 12px; font-family: &quot;Microsoft YaHei&quot;;">Keen Eye</text><text dominant-baseline="central" text-anchor="middle" xml:space="preserve" y="6" transform="translate(264.834 716.76)" fill="#fff" style="font-size: 12px; font-family: &quot;Microsoft YaHei&quot;;">(as first)</text><text dominant-baseline="central" text-anchor="middle" xml:space="preserve" y="-6" transform="translate(437.774 686.3529)" fill="#fff" style="font-size: 12px; font-family: &quot;Microsoft YaHei&quot;;">Keen Eye</text><text dominant-baseline="central" text-anchor="middle" xml:space="preserve" y="6" transform="translate(437.774 686.3529)" fill="#fff" style="font-size: 12px; font-family: &quot;Microsoft YaHei&quot;;">(as second)</text><text dominant-baseline="central" text-anchor="middle" xml:space="preserve" y="-6" transform="translate(437.774 771.4929)" fill="#fff" style="font-size: 12px; font-family: &quot;Microsoft YaHei&quot;;">Keen Eye</text><text dominant-baseline="central" text-anchor="middle" xml:space="preserve" y="6" transform="translate(437.774 771.4929)" fill="#fff" style="font-size: 12px; font-family: &quot;Microsoft YaHei&quot;;">(as hidden)</text><text dominant-baseline="central" text-anchor="middle" y="-6" transform="translate(638.1968 186.516)" fill="#fff" style="font-size: 12px; font-family: &quot;Microsoft YaHei&quot;;">Levitate</text><text dominant-baseline="central" text-anchor="middle" xml:space="preserve" y="6" transform="translate(638.1968 186.516)" fill="#fff" style="font-size: 12px; font-family: &quot;Microsoft YaHei&quot;;">(as first)</text><text dominant-baseline="central" text-anchor="middle" xml:space="preserve" y="-6" transform="translate(596.4788 334.092)" fill="#fff" style="font-size: 12px; font-family: &quot;Microsoft YaHei&quot;;">Inner Focus</text><text dominant-baseline="central" text-anchor="middle" xml:space="preserve" y="6" transform="translate(596.4788 334.092)" fill="#fff" style="font-size: 12px; font-family: &quot;Microsoft YaHei&quot;;">(as first)</text><text dominant-baseline="central" text-anchor="middle" xml:space="preserve" y="-6" transform="translate(596.4788 424.38)" fill="#fff" style="font-size: 12px; font-family: &quot;Microsoft YaHei&quot;;">Inner Focus</text><text dominant-baseline="central" text-anchor="middle" xml:space="preserve" y="6" transform="translate(596.4788 424.38)" fill="#fff" style="font-size: 12px; font-family: &quot;Microsoft YaHei&quot;;">(as hidden)</text><text dominant-baseline="central" text-anchor="middle" xml:space="preserve" y="-6" transform="translate(740.5955 374.22)" fill="#fff" style="font-size: 12px; font-family: &quot;Microsoft YaHei&quot;;">Inner Focus</text><text dominant-baseline="central" text-anchor="middle" xml:space="preserve" y="6" transform="translate(740.5955 374.22)" fill="#fff" style="font-size: 12px; font-family: &quot;Microsoft YaHei&quot;;">(as second)</text><text dominant-baseline="central" text-anchor="middle" y="-6" transform="translate(574.1449 550.044)" fill="#fff" style="font-size: 12px; font-family: &quot;Microsoft YaHei&quot;;">Frisk</text><text dominant-baseline="central" text-anchor="middle" xml:space="preserve" y="6" transform="translate(574.1449 550.044)" fill="#fff" style="font-size: 12px; font-family: &quot;Microsoft YaHei&quot;;">(as second)</text><text dominant-baseline="central" text-anchor="middle" y="-6" transform="translate(718.2616 517.968)" fill="#fff" style="font-size: 12px; font-family: &quot;Microsoft YaHei&quot;;">Frisk</text><text dominant-baseline="central" text-anchor="middle" xml:space="preserve" y="6" transform="translate(718.2616 517.968)" fill="#fff" style="font-size: 12px; font-family: &quot;Microsoft YaHei&quot;;">(as hidden)</text><text dominant-baseline="central" text-anchor="middle" y="-6" transform="translate(718.2616 603.504)" fill="#fff" style="font-size: 12px; font-family: &quot;Microsoft YaHei&quot;;">Frisk</text><text dominant-baseline="central" text-anchor="middle" xml:space="preserve" y="6" transform="translate(718.2616 603.504)" fill="#fff" style="font-size: 12px; font-family: &quot;Microsoft YaHei&quot;;">(as first)</text><text dominant-baseline="central" text-anchor="middle" y="-6" transform="translate(613.491 718.74)" fill="#fff" style="font-size: 12px; font-family: &quot;Microsoft YaHei&quot;;">Pressure</text><text dominant-baseline="central" text-anchor="middle" xml:space="preserve" y="6" transform="translate(613.491 718.74)" fill="#fff" style="font-size: 12px; font-family: &quot;Microsoft YaHei&quot;;">(as first)</text><text dominant-baseline="central" text-anchor="middle" y="-6" transform="translate(757.6077 704.88)" fill="#fff" style="font-size: 12px; font-family: &quot;Microsoft YaHei&quot;;">Press...</text><text dominant-baseline="central" text-anchor="middle" xml:space="preserve" y="6" transform="translate(757.6077 704.88)" fill="#fff" style="font-size: 12px; font-family: &quot;Microsoft YaHei&quot;;">(as h...</text><text dominant-baseline="central" text-anchor="middle" y="-6" transform="translate(757.6077 788.04)" fill="#fff" style="font-size: 12px; font-family: &quot;Microsoft YaHei&quot;;">Press...</text><text dominant-baseline="central" text-anchor="middle" xml:space="preserve" y="-6" transform="translate(875.1117 170.279)" fill="#fff" style="font-size: 12px; font-family: &quot;Microsoft YaHei&quot;;">Sheer Force</text><text dominant-baseline="central" text-anchor="middle" xml:space="preserve" y="6" transform="translate(875.1117 170.279)" fill="#fff" style="font-size: 12px; font-family: &quot;Microsoft YaHei&quot;;">(as hidden)</text><text dominant-baseline="central" text-anchor="middle" xml:space="preserve" y="-6" transform="translate(839.42 299.4274)" fill="#fff" style="font-size: 12px; font-family: &quot;Microsoft YaHei&quot;;">Sheer Force</text><text dominant-baseline="central" text-anchor="middle" xml:space="preserve" y="6" transform="translate(839.42 299.4274)" fill="#fff" style="font-size: 12px; font-family: &quot;Microsoft YaHei&quot;;">(as second)</text><text dominant-baseline="central" text-anchor="middle" xml:space="preserve" y="-6" transform="translate(932.2183 299.4274)" fill="#fff" style="font-size: 12px; font-family: &quot;Microsoft YaHei&quot;;">Sheer Fo...</text><text dominant-baseline="central" text-anchor="middle" xml:space="preserve" y="6" transform="translate(932.2183 299.4274)" fill="#fff" style="font-size: 12px; font-family: &quot;Microsoft YaHei&quot;;">(as first)</text><text dominant-baseline="central" text-anchor="middle" y="-6" transform="translate(1019.8769 181.3489)" fill="#fff" style="font-size: 12px; font-family: &quot;Microsoft YaHei&quot;;">Gluttony</text><text dominant-baseline="central" text-anchor="middle" xml:space="preserve" y="6" transform="translate(1019.8769 181.3489)" fill="#fff" style="font-size: 12px; font-family: &quot;Microsoft YaHei&quot;;">(as second)</text><text dominant-baseline="central" text-anchor="middle" y="-6" transform="translate(1112.6751 181.3489)" fill="#fff" style="font-size: 12px; font-family: &quot;Microsoft YaHei&quot;;">Gluttony</text><text dominant-baseline="central" text-anchor="middle" xml:space="preserve" y="6" transform="translate(1112.6751 181.3489)" fill="#fff" style="font-size: 12px; font-family: &quot;Microsoft YaHei&quot;;">(as hidden)</text><text dominant-baseline="central" text-anchor="middle" y="-6" transform="translate(1060.7081 310.4973)" fill="#fff" style="font-size: 12px; font-family: &quot;Microsoft YaHei&quot;;">Gluttony</text><text dominant-baseline="central" text-anchor="middle" xml:space="preserve" y="6" transform="translate(1060.7081 310.4973)" fill="#fff" style="font-size: 12px; font-family: &quot;Microsoft YaHei&quot;;">(as first)</text><text dominant-baseline="central" text-anchor="middle" xml:space="preserve" y="-6" transform="translate(1243.6532 165.0697)" fill="#fff" style="font-size: 12px; font-family: &quot;Microsoft YaHei&quot;;">Run Away</text><text dominant-baseline="central" text-anchor="middle" xml:space="preserve" y="6" transform="translate(1243.6532 165.0697)" fill="#fff" style="font-size: 12px; font-family: &quot;Microsoft YaHei&quot;;">(as first)</text><text dominant-baseline="central" text-anchor="middle" xml:space="preserve" y="-6" transform="translate(1205.0188 294.2181)" fill="#fff" style="font-size: 12px; font-family: &quot;Microsoft YaHei&quot;;">Run Away</text><text dominant-baseline="central" text-anchor="middle" xml:space="preserve" y="6" transform="translate(1205.0188 294.2181)" fill="#fff" style="font-size: 12px; font-family: &quot;Microsoft YaHei&quot;;">(as hidden)</text><text dominant-baseline="central" text-anchor="middle" xml:space="preserve" y="-6" transform="translate(1295.1656 294.2181)" fill="#fff" style="font-size: 12px; font-family: &quot;Microsoft YaHei&quot;;">Run Away</text><text dominant-baseline="central" text-anchor="middle" xml:space="preserve" y="6" transform="translate(1295.1656 294.2181)" fill="#fff" style="font-size: 12px; font-family: &quot;Microsoft YaHei&quot;;">(as second)</text><text dominant-baseline="central" text-anchor="middle" xml:space="preserve" y="-6" transform="translate(848.0002 425.591)" fill="#fff" style="font-size: 12px; font-family: &quot;Microsoft YaHei&quot;;">Own Tempo</text><text dominant-baseline="central" text-anchor="middle" xml:space="preserve" y="6" transform="translate(848.0002 425.591)" fill="#fff" style="font-size: 12px; font-family: &quot;Microsoft YaHei&quot;;">(as second)</text><text dominant-baseline="central" text-anchor="middle" xml:space="preserve" y="-6" transform="translate(961.8574 425.591)" fill="#fff" style="font-size: 12px; font-family: &quot;Microsoft YaHei&quot;;">Own Tempo</text><text dominant-baseline="central" text-anchor="middle" xml:space="preserve" y="6" transform="translate(961.8574 425.591)" fill="#fff" style="font-size: 12px; font-family: &quot;Microsoft YaHei&quot;;">(as first)</text><text dominant-baseline="central" text-anchor="middle" y="-6" transform="translate(1036.3024 425.591)" fill="#fff" style="font-size: 12px; font-family: &quot;Microsoft YaHei&quot;;" xml:space="preserve">Own ...</text><text dominant-baseline="central" text-anchor="middle" xml:space="preserve" y="6" transform="translate(1036.3024 425.591)" fill="#fff" style="font-size: 12px; font-family: &quot;Microsoft YaHei&quot;;">(as h...</text><text dominant-baseline="central" text-anchor="middle" y="-6" transform="translate(886.2822 579.5356)" fill="#fff" style="font-size: 12px; font-family: &quot;Microsoft YaHei&quot;;">Swarm</text><text dominant-baseline="central" text-anchor="middle" xml:space="preserve" y="6" transform="translate(886.2822 579.5356)" fill="#fff" style="font-size: 12px; font-family: &quot;Microsoft YaHei&quot;;">(as first)</text><text dominant-baseline="central" text-anchor="middle" y="-6" transform="translate(1026.4141 541.6603)" fill="#fff" style="font-size: 12px; font-family: &quot;Microsoft YaHei&quot;;">Swarm</text><text dominant-baseline="central" text-anchor="middle" xml:space="preserve" y="6" transform="translate(1026.4141 541.6603)" fill="#fff" style="font-size: 12px; font-family: &quot;Microsoft YaHei&quot;;">(as hidd...</text><text dominant-baseline="central" text-anchor="middle" y="-6" transform="translate(1026.4141 617.4108)" fill="#fff" style="font-size: 12px; font-family: &quot;Microsoft YaHei&quot;;">Swarm</text><text dominant-baseline="central" text-anchor="middle" xml:space="preserve" y="6" transform="translate(1026.4141 617.4108)" fill="#fff" style="font-size: 12px; font-family: &quot;Microsoft YaHei&quot;;">(as seco...</text><text dominant-baseline="central" text-anchor="middle" y="-6" transform="translate(913.1032 728.593)" fill="#fff" style="font-size: 12px; font-family: &quot;Microsoft YaHei&quot;;">Torrent</text><text dominant-baseline="central" text-anchor="middle" xml:space="preserve" y="6" transform="translate(913.1032 728.593)" fill="#fff" style="font-size: 12px; font-family: &quot;Microsoft YaHei&quot;;">(as first)</text><text dominant-baseline="central" text-anchor="middle" y="-6" transform="translate(1053.235 728.593)" fill="#fff" style="font-size: 12px; font-family: &quot;Microsoft YaHei&quot;;">T</text><text dominant-baseline="central" text-anchor="middle" y="6" transform="translate(1053.235 728.593)" fill="#fff" style="font-size: 12px; font-family: &quot;Microsoft YaHei&quot;;">(</text><text dominant-baseline="central" text-anchor="middle" y="-6" transform="translate(1130.3828 488.7978)" fill="#fff" style="font-size: 12px; font-family: &quot;Microsoft YaHei&quot;;">Blaze</text><text dominant-baseline="central" text-anchor="middle" xml:space="preserve" y="6" transform="translate(1130.3828 488.7978)" fill="#fff" style="font-size: 12px; font-family: &quot;Microsoft YaHei&quot;;">(as first)</text><text dominant-baseline="central" text-anchor="middle" xml:space="preserve" y="-6" transform="translate(1265.9943 433.2475)" fill="#fff" style="font-size: 12px; font-family: &quot;Microsoft YaHei&quot;;">Thick Fat</text><text dominant-baseline="central" text-anchor="middle" xml:space="preserve" y="6" transform="translate(1265.9943 433.2475)" fill="#fff" style="font-size: 12px; font-family: &quot;Microsoft YaHei&quot;;">(as first)</text><text dominant-baseline="central" text-anchor="middle" xml:space="preserve" y="-6" transform="translate(1255.5626 584.7485)" fill="#fff" style="font-size: 12px; font-family: &quot;Microsoft YaHei&quot;;">Thick Fat</text><text dominant-baseline="central" text-anchor="middle" xml:space="preserve" y="6" transform="translate(1255.5626 584.7485)" fill="#fff" style="font-size: 12px; font-family: &quot;Microsoft YaHei&quot;;">(as hidden)</text><text dominant-baseline="central" text-anchor="middle" y="-6" transform="translate(1323.3684 584.7485)" fill="#fff" style="font-size: 12px; font-family: &quot;Microsoft YaHei&quot;;">T</text><text dominant-baseline="central" text-anchor="middle" y="6" transform="translate(1323.3684 584.7485)" fill="#fff" style="font-size: 12px; font-family: &quot;Microsoft YaHei&quot;;">(</text><text dominant-baseline="central" text-anchor="middle" y="-6" transform="translate(1189.1478 726.1495)" fill="#fff" style="font-size: 12px; font-family: &quot;Microsoft YaHei&quot;;">Overgrow</text><text dominant-baseline="central" text-anchor="middle" xml:space="preserve" y="6" transform="translate(1189.1478 726.1495)" fill="#fff" style="font-size: 12px; font-family: &quot;Microsoft YaHei&quot;;">(as first)</text><text dominant-baseline="central" text-anchor="middle" y="6" transform="translate(1324.7592 726.1495)" fill="#fff" style="font-size: 12px; font-family: &quot;Microsoft YaHei&quot;;">(</text><path d="M0 0L25 0L30 11L25 22L0 22Z" transform="translate(662.2656 869)" fill="rgb(0,0,0)" fill-opacity="0.7"></path><path d="M28 0L87.666 0L92.666 11L87.666 22L28 22L33 11Z" transform="translate(662.2656 869)" fill="rgb(0,0,0)" fill-opacity="0.7"></path><path d="M90.666 0L157.4688 0L157.4688 22L90.666 22L95.666 11Z" transform="translate(662.2656 869)" fill="rgb(0,0,0)" fill-opacity="0.7"></path><text dominant-baseline="central" text-anchor="middle" transform="translate(722.5986 880)" fill="#fff" style="font-size: 12px; font-family: &quot;Microsoft YaHei&quot;;">Swarm</text><text dominant-baseline="central" text-anchor="middle" y="-6" transform="translate(786.333 880)" fill="#fff" style="font-size: 12px; font-family: &quot;Microsoft YaHei&quot;;">Swarm</text><text dominant-baseline="central" text-anchor="middle" xml:space="preserve" y="6" transform="translate(786.333 880)" fill="#fff" style="font-size: 12px; font-family: &quot;Microsoft YaHei&quot;;">(as first)</text></g></svg>