<svg xmlns="http://www.w3.org/2000/svg" xmlns:xlink="http://www.w3.org/1999/xlink" version="1.1" baseProfile="full" width="1482" height="792" style="position: absolute; left: 0px; top: 0px; user-select: none;"><rect width="1482" height="792" x="0" y="0" fill="none"></rect><g><path d="M1003.5988 573.2121Q769.716 407.6854 1052.7219 452.495" fill="transparent" stroke="#e7623d" stroke-opacity="0.5"></path><path d="M910.0323 663.9371Q765.0377 412.2216 1052.7219 452.495" fill="transparent" stroke="#2e9be3" stroke-opacity="0.5"></path><path d="M798.0303 707.6244Q759.4376 414.406 1052.7219 452.495" fill="transparent" stroke="#f4cc1b" stroke-opacity="0.5"></path><path d="M677.8154 706.4351Q753.4269 414.3465 1052.7219 452.495" fill="transparent" stroke="#e7623d" stroke-opacity="0.5"></path><path d="M572.8891 664.5162Q748.1806 412.2506 1052.7219 452.495" fill="transparent" stroke="#f4cc1b" stroke-opacity="0.5"></path><path d="M489.3476 588.4404Q744.0035 408.4468 1052.7219 452.495" fill="transparent" stroke="#e7623d" stroke-opacity="0.5"></path><path d="M433.1673 470.8415Q741.1945 402.5668 1052.7219 452.495" fill="transparent" stroke="#43c7c6" stroke-opacity="0.5"></path><path d="M474.7584 224.3095Q743.274 390.2402 1052.7219 452.495" fill="transparent" stroke="#e7623d" stroke-opacity="0.5"></path><path d="M571.9677 128.0629Q748.1345 385.4279 1052.7219 452.495" fill="transparent" stroke="#73abcf" stroke-opacity="0.5"></path><path d="M688.6832 83.5497Q753.9703 383.2022 1052.7219 452.495" fill="transparent" stroke="#a5a580" stroke-opacity="0.5"></path><path d="M801.663 85.0623Q759.6192 383.2779 1052.7219 452.495" fill="transparent" stroke="#818181" stroke-opacity="0.5"></path><path d="M906.9261 126.1282Q764.8824 385.3312 1052.7219 452.495" fill="transparent" stroke="#9ba32a" stroke-opacity="0.5"></path><path d="M1050.3283 327.6022Q772.0525 395.4049 1052.7219 452.495" fill="transparent" stroke="#43c7c6" stroke-opacity="0.5"></path><path d="M1003.5988 573.2121Q750.9707 420.3824 677.8154 706.4351" fill="transparent" stroke="#e7623d" stroke-opacity="0.5"></path><path d="M1003.5988 573.2121Q741.5473 414.4826 489.3476 588.4404" fill="transparent" stroke="#e7623d" stroke-opacity="0.5"></path><path d="M1003.5988 573.2121Q740.8179 396.2761 474.7584 224.3095" fill="transparent" stroke="#e7623d" stroke-opacity="0.5"></path><path d="M1003.5988 573.2121Q769.5964 401.4407 1050.3283 327.6022" fill="transparent" stroke="#e7623d" stroke-opacity="0.5"></path><path d="M798.0303 707.6244Q735.446 425.007 572.8891 664.5162" fill="transparent" stroke="#f4cc1b" stroke-opacity="0.5"></path><path d="M677.8154 706.4351Q725.2581 421.1438 489.3476 588.4404" fill="transparent" stroke="#e7623d" stroke-opacity="0.5"></path><path d="M677.8154 706.4351Q724.5287 402.9372 474.7584 224.3095" fill="transparent" stroke="#e7623d" stroke-opacity="0.5"></path><path d="M677.8154 706.4351Q746.1371 398.0282 906.9261 126.1282" fill="transparent" stroke="#e7623d" stroke-opacity="0.5"></path><path d="M489.3476 588.4404Q713.0257 409.3641 433.1673 470.8415" fill="transparent" stroke="#e7623d" stroke-opacity="0.5"></path><path d="M489.3476 588.4404Q715.1053 397.0375 474.7584 224.3095" fill="transparent" stroke="#e7623d" stroke-opacity="0.5"></path><path d="M489.3476 588.4404Q743.8838 402.2021 1050.3283 327.6022" fill="transparent" stroke="#e7623d" stroke-opacity="0.5"></path><path d="M433.1673 470.8415Q741.0748 396.3222 1050.3283 327.6022" fill="transparent" stroke="#43c7c6" stroke-opacity="0.5"></path><path d="M474.7584 224.3095Q735.9842 373.9219 906.9261 126.1282" fill="transparent" stroke="#e7623d" stroke-opacity="0.5"></path><path d="M1 0A1 1 0 1 1 1 -0.0001" transform="matrix(6,0,0,6,1052.7219,452.495)" fill="#429837"></path><path d="M1 0A1 1 0 1 1 1 -0.0001" transform="matrix(23.647,0,0,23.647,1003.5988,573.2121)" fill="#e7623d"></path><path d="M1 0A1 1 0 1 1 1 -0.0001" transform="matrix(6,0,0,6,910.0323,663.9371)" fill="#2e9be3"></path><path d="M1 0A1 1 0 1 1 1 -0.0001" transform="matrix(13.353,0,0,13.353,798.0303,707.6244)" fill="#f4cc1b"></path><path d="M1 0A1 1 0 1 1 1 -0.0001" transform="matrix(6,0,0,6,677.8154,706.4351)" fill="#e7623d"></path><path d="M1 0A1 1 0 1 1 1 -0.0001" transform="matrix(6,0,0,6,572.8891,664.5162)" fill="#f4cc1b"></path><path d="M1 0A1 1 0 1 1 1 -0.0001" transform="matrix(6,0,0,6,489.3476,588.4404)" fill="#e7623d"></path><path d="M1 0A1 1 0 1 1 1 -0.0001" transform="matrix(23.647,0,0,23.647,433.1673,470.8415)" fill="#43c7c6"></path><path d="M1 0A1 1 0 1 1 1 -0.0001" transform="matrix(6,0,0,6,429.0858,340.5762)" fill="#a47840"></path><path d="M1 0A1 1 0 1 1 1 -0.0001" transform="matrix(18.132,0,0,18.132,474.7584,224.3095)" fill="#e7623d"></path><path d="M1 0A1 1 0 1 1 1 -0.0001" transform="matrix(18.132,0,0,18.132,571.9677,128.0629)" fill="#73abcf"></path><path d="M1 0A1 1 0 1 1 1 -0.0001" transform="matrix(6,0,0,6,688.6832,83.5497)" fill="#a5a580"></path><path d="M1 0A1 1 0 1 1 1 -0.0001" transform="matrix(6,0,0,6,801.663,85.0623)" fill="#818181"></path><path d="M1 0A1 1 0 1 1 1 -0.0001" transform="matrix(6,0,0,6,906.9261,126.1282)" fill="#9ba32a"></path><path d="M1 0A1 1 0 1 1 1 -0.0001" transform="matrix(13.353,0,0,13.353,995.5305,207.3827)" fill="#a47840"></path><path d="M1 0A1 1 0 1 1 1 -0.0001" transform="matrix(18.132,0,0,18.132,1050.3283,327.6022)" fill="#43c7c6"></path><path d="M-5 -5l840.9473 0l0 24l-840.9473 0Z" transform="translate(325.5264 5)" fill="rgb(0,0,0)" fill-opacity="0" stroke="#ccc" stroke-width="0"></path><path d="M-5 -5l840.9473 0l0 24l-840.9473 0Z" transform="translate(325.5264 5)" fill="rgb(0,0,0)" fill-opacity="0" stroke="#ccc" stroke-width="0"></path><path d="M-5 -5l840.9473 0l0 24l-840.9473 0Z" transform="translate(325.5264 5)" fill="rgb(0,0,0)" fill-opacity="0" stroke="#ccc" stroke-width="0"></path><path d="M-5 -5l840.9473 0l0 24l-840.9473 0Z" transform="translate(325.5264 5)" fill="rgb(0,0,0)" fill-opacity="0" stroke="#ccc" stroke-width="0"></path><path d="M-5 -5l840.9473 0l0 24l-840.9473 0Z" transform="translate(325.5264 5)" fill="rgb(0,0,0)" fill-opacity="0" stroke="#ccc" stroke-width="0"></path><path d="M-5 -5l840.9473 0l0 24l-840.9473 0Z" transform="translate(325.5264 5)" fill="rgb(0,0,0)" fill-opacity="0" stroke="#ccc" stroke-width="0"></path><path d="M-5 -5l840.9473 0l0 24l-840.9473 0Z" transform="translate(325.5264 5)" fill="rgb(0,0,0)" fill-opacity="0" stroke="#ccc" stroke-width="0"></path><path d="M-5 -5l840.9473 0l0 24l-840.9473 0Z" transform="translate(325.5264 5)" fill="rgb(0,0,0)" fill-opacity="0" stroke="#ccc" stroke-width="0"></path><path d="M-5 -5l840.9473 0l0 24l-840.9473 0Z" transform="translate(325.5264 5)" fill="rgb(0,0,0)" fill-opacity="0" stroke="#ccc" stroke-width="0"></path><path d="M-5 -5l840.9473 0l0 24l-840.9473 0Z" transform="translate(325.5264 5)" fill="rgb(0,0,0)" fill-opacity="0" stroke="#ccc" stroke-width="0"></path><path d="M3.5 0L21.5 0A3.5 3.5 0 0 1 25 3.5L25 10.5A3.5 3.5 0 0 1 21.5 14L3.5 14A3.5 3.5 0 0 1 0 10.5L0 3.5A3.5 3.5 0 0 1 3.5 0" transform="translate(325.5264 5)" fill="#429837"></path><text dominant-baseline="central" text-anchor="start" x="30" y="7" transform="translate(325.5264 5)" fill="#333" style="font-size: 12px; font-family: &quot;Microsoft YaHei&quot;;">Ditto</text><path d="M0 0l58.8047 0l0 14l-58.8047 0Z" transform="translate(325.5264 5)" fill="transparent"></path><path d="M3.5 0L21.5 0A3.5 3.5 0 0 1 25 3.5L25 10.5A3.5 3.5 0 0 1 21.5 14L3.5 14A3.5 3.5 0 0 1 0 10.5L0 3.5A3.5 3.5 0 0 1 3.5 0" transform="translate(394.3311 5)" fill="#e7623d"></path><text dominant-baseline="central" text-anchor="start" x="30" y="7" transform="translate(394.3311 5)" fill="#333" style="font-size: 12px; font-family: &quot;Microsoft YaHei&quot;;">Monster</text><path d="M0 0l78.0645 0l0 14l-78.0645 0Z" transform="translate(394.3311 5)" fill="transparent"></path><path d="M3.5 0L21.5 0A3.5 3.5 0 0 1 25 3.5L25 10.5A3.5 3.5 0 0 1 21.5 14L3.5 14A3.5 3.5 0 0 1 0 10.5L0 3.5A3.5 3.5 0 0 1 3.5 0" transform="translate(482.3955 5)" fill="#2e9be3"></path><text dominant-baseline="central" text-anchor="start" x="30" y="7" transform="translate(482.3955 5)" fill="#333" style="font-size: 12px; font-family: &quot;Microsoft YaHei&quot;;">Bug</text><path d="M0 0l52.5996 0l0 14l-52.5996 0Z" transform="translate(482.3955 5)" fill="transparent"></path><path d="M3.5 0L21.5 0A3.5 3.5 0 0 1 25 3.5L25 10.5A3.5 3.5 0 0 1 21.5 14L3.5 14A3.5 3.5 0 0 1 0 10.5L0 3.5A3.5 3.5 0 0 1 3.5 0" transform="translate(544.9951 5)" fill="#f4cc1b"></path><text dominant-baseline="central" text-anchor="start" x="30" y="7" transform="translate(544.9951 5)" fill="#333" style="font-size: 12px; font-family: &quot;Microsoft YaHei&quot;;">Human-Like</text><path d="M0 0l99.5742 0l0 14l-99.5742 0Z" transform="translate(544.9951 5)" fill="transparent"></path><path d="M3.5 0L21.5 0A3.5 3.5 0 0 1 25 3.5L25 10.5A3.5 3.5 0 0 1 21.5 14L3.5 14A3.5 3.5 0 0 1 0 10.5L0 3.5A3.5 3.5 0 0 1 3.5 0" transform="translate(654.5693 5)" fill="#43c7c6"></path><text dominant-baseline="central" text-anchor="start" x="30" y="7" transform="translate(654.5693 5)" fill="#333" style="font-size: 12px; font-family: &quot;Microsoft YaHei&quot;;">Ground</text><path d="M0 0l73.4297 0l0 14l-73.4297 0Z" transform="translate(654.5693 5)" fill="transparent"></path><path d="M3.5 0L21.5 0A3.5 3.5 0 0 1 25 3.5L25 10.5A3.5 3.5 0 0 1 21.5 14L3.5 14A3.5 3.5 0 0 1 0 10.5L0 3.5A3.5 3.5 0 0 1 3.5 0" transform="translate(737.999 5)" fill="#a47840"></path><text dominant-baseline="central" text-anchor="start" x="30" y="7" transform="translate(737.999 5)" fill="#333" style="font-size: 12px; font-family: &quot;Microsoft YaHei&quot;;">Undiscovered</text><path d="M0 0l108.3516 0l0 14l-108.3516 0Z" transform="translate(737.999 5)" fill="transparent"></path><path d="M3.5 0L21.5 0A3.5 3.5 0 0 1 25 3.5L25 10.5A3.5 3.5 0 0 1 21.5 14L3.5 14A3.5 3.5 0 0 1 0 10.5L0 3.5A3.5 3.5 0 0 1 3.5 0" transform="translate(856.3506 5)" fill="#73abcf"></path><text dominant-baseline="central" text-anchor="start" x="30" y="7" transform="translate(856.3506 5)" fill="#333" style="font-size: 12px; font-family: &quot;Microsoft YaHei&quot;;">Flying</text><path d="M0 0l64.1836 0l0 14l-64.1836 0Z" transform="translate(856.3506 5)" fill="transparent"></path><path d="M3.5 0L21.5 0A3.5 3.5 0 0 1 25 3.5L25 10.5A3.5 3.5 0 0 1 21.5 14L3.5 14A3.5 3.5 0 0 1 0 10.5L0 3.5A3.5 3.5 0 0 1 3.5 0" transform="translate(930.5342 5)" fill="#a5a580"></path><text dominant-baseline="central" text-anchor="start" x="30" y="7" transform="translate(930.5342 5)" fill="#333" style="font-size: 12px; font-family: &quot;Microsoft YaHei&quot;;">Grass</text><path d="M0 0l61.248 0l0 14l-61.248 0Z" transform="translate(930.5342 5)" fill="transparent"></path><path d="M3.5 0L21.5 0A3.5 3.5 0 0 1 25 3.5L25 10.5A3.5 3.5 0 0 1 21.5 14L3.5 14A3.5 3.5 0 0 1 0 10.5L0 3.5A3.5 3.5 0 0 1 3.5 0" transform="translate(1001.7822 5)" fill="#818181"></path><text dominant-baseline="central" text-anchor="start" x="30" y="7" transform="translate(1001.7822 5)" fill="#333" style="font-size: 12px; font-family: &quot;Microsoft YaHei&quot;;">Mineral</text><path d="M0 0l73.5293 0l0 14l-73.5293 0Z" transform="translate(1001.7822 5)" fill="transparent"></path><path d="M3.5 0L21.5 0A3.5 3.5 0 0 1 25 3.5L25 10.5A3.5 3.5 0 0 1 21.5 14L3.5 14A3.5 3.5 0 0 1 0 10.5L0 3.5A3.5 3.5 0 0 1 3.5 0" transform="translate(1085.3115 5)" fill="#9ba32a"></path><text dominant-baseline="central" text-anchor="start" x="30" y="7" transform="translate(1085.3115 5)" fill="#333" style="font-size: 12px; font-family: &quot;Microsoft YaHei&quot;;">Water1</text><path d="M0 0l71.1621 0l0 14l-71.1621 0Z" transform="translate(1085.3115 5)" fill="transparent"></path><path d="M3.5 0L21.5 0A3.5 3.5 0 0 1 25 3.5L25 10.5A3.5 3.5 0 0 1 21.5 14L3.5 14A3.5 3.5 0 0 1 0 10.5L0 3.5A3.5 3.5 0 0 1 3.5 0" transform="translate(325.5264 5)" fill="#429837"></path><text dominant-baseline="central" text-anchor="start" x="30" y="7" transform="translate(325.5264 5)" fill="#333" style="font-size: 12px; font-family: &quot;Microsoft YaHei&quot;;">Ditto</text><path d="M0 0l58.8047 0l0 14l-58.8047 0Z" transform="translate(325.5264 5)" fill="transparent"></path><path d="M3.5 0L21.5 0A3.5 3.5 0 0 1 25 3.5L25 10.5A3.5 3.5 0 0 1 21.5 14L3.5 14A3.5 3.5 0 0 1 0 10.5L0 3.5A3.5 3.5 0 0 1 3.5 0" transform="translate(394.3311 5)" fill="#e7623d"></path><text dominant-baseline="central" text-anchor="start" x="30" y="7" transform="translate(394.3311 5)" fill="#333" style="font-size: 12px; font-family: &quot;Microsoft YaHei&quot;;">Monster</text><path d="M0 0l78.0645 0l0 14l-78.0645 0Z" transform="translate(394.3311 5)" fill="transparent"></path><path d="M3.5 0L21.5 0A3.5 3.5 0 0 1 25 3.5L25 10.5A3.5 3.5 0 0 1 21.5 14L3.5 14A3.5 3.5 0 0 1 0 10.5L0 3.5A3.5 3.5 0 0 1 3.5 0" transform="translate(482.3955 5)" fill="#2e9be3"></path><text dominant-baseline="central" text-anchor="start" x="30" y="7" transform="translate(482.3955 5)" fill="#333" style="font-size: 12px; font-family: &quot;Microsoft YaHei&quot;;">Bug</text><path d="M0 0l52.5996 0l0 14l-52.5996 0Z" transform="translate(482.3955 5)" fill="transparent"></path><path d="M3.5 0L21.5 0A3.5 3.5 0 0 1 25 3.5L25 10.5A3.5 3.5 0 0 1 21.5 14L3.5 14A3.5 3.5 0 0 1 0 10.5L0 3.5A3.5 3.5 0 0 1 3.5 0" transform="translate(544.9951 5)" fill="#f4cc1b"></path><text dominant-baseline="central" text-anchor="start" x="30" y="7" transform="translate(544.9951 5)" fill="#333" style="font-size: 12px; font-family: &quot;Microsoft YaHei&quot;;">Human-Like</text><path d="M0 0l99.5742 0l0 14l-99.5742 0Z" transform="translate(544.9951 5)" fill="transparent"></path><path d="M3.5 0L21.5 0A3.5 3.5 0 0 1 25 3.5L25 10.5A3.5 3.5 0 0 1 21.5 14L3.5 14A3.5 3.5 0 0 1 0 10.5L0 3.5A3.5 3.5 0 0 1 3.5 0" transform="translate(654.5693 5)" fill="#43c7c6"></path><text dominant-baseline="central" text-anchor="start" x="30" y="7" transform="translate(654.5693 5)" fill="#333" style="font-size: 12px; font-family: &quot;Microsoft YaHei&quot;;">Ground</text><path d="M0 0l73.4297 0l0 14l-73.4297 0Z" transform="translate(654.5693 5)" fill="transparent"></path><path d="M3.5 0L21.5 0A3.5 3.5 0 0 1 25 3.5L25 10.5A3.5 3.5 0 0 1 21.5 14L3.5 14A3.5 3.5 0 0 1 0 10.5L0 3.5A3.5 3.5 0 0 1 3.5 0" transform="translate(737.999 5)" fill="#a47840"></path><text dominant-baseline="central" text-anchor="start" x="30" y="7" transform="translate(737.999 5)" fill="#333" style="font-size: 12px; font-family: &quot;Microsoft YaHei&quot;;">Undiscovered</text><path d="M0 0l108.3516 0l0 14l-108.3516 0Z" transform="translate(737.999 5)" fill="transparent"></path><path d="M3.5 0L21.5 0A3.5 3.5 0 0 1 25 3.5L25 10.5A3.5 3.5 0 0 1 21.5 14L3.5 14A3.5 3.5 0 0 1 0 10.5L0 3.5A3.5 3.5 0 0 1 3.5 0" transform="translate(856.3506 5)" fill="#73abcf"></path><text dominant-baseline="central" text-anchor="start" x="30" y="7" transform="translate(856.3506 5)" fill="#333" style="font-size: 12px; font-family: &quot;Microsoft YaHei&quot;;">Flying</text><path d="M0 0l64.1836 0l0 14l-64.1836 0Z" transform="translate(856.3506 5)" fill="transparent"></path><path d="M3.5 0L21.5 0A3.5 3.5 0 0 1 25 3.5L25 10.5A3.5 3.5 0 0 1 21.5 14L3.5 14A3.5 3.5 0 0 1 0 10.5L0 3.5A3.5 3.5 0 0 1 3.5 0" transform="translate(930.5342 5)" fill="#a5a580"></path><text dominant-baseline="central" text-anchor="start" x="30" y="7" transform="translate(930.5342 5)" fill="#333" style="font-size: 12px; font-family: &quot;Microsoft YaHei&quot;;">Grass</text><path d="M0 0l61.248 0l0 14l-61.248 0Z" transform="translate(930.5342 5)" fill="transparent"></path><path d="M3.5 0L21.5 0A3.5 3.5 0 0 1 25 3.5L25 10.5A3.5 3.5 0 0 1 21.5 14L3.5 14A3.5 3.5 0 0 1 0 10.5L0 3.5A3.5 3.5 0 0 1 3.5 0" transform="translate(1001.7822 5)" fill="#818181"></path><text dominant-baseline="central" text-anchor="start" x="30" y="7" transform="translate(1001.7822 5)" fill="#333" style="font-size: 12px; font-family: &quot;Microsoft YaHei&quot;;">Mineral</text><path d="M0 0l73.5293 0l0 14l-73.5293 0Z" transform="translate(1001.7822 5)" fill="transparent"></path><path d="M3.5 0L21.5 0A3.5 3.5 0 0 1 25 3.5L25 10.5A3.5 3.5 0 0 1 21.5 14L3.5 14A3.5 3.5 0 0 1 0 10.5L0 3.5A3.5 3.5 0 0 1 3.5 0" transform="translate(1085.3115 5)" fill="#9ba32a"></path><text dominant-baseline="central" text-anchor="start" x="30" y="7" transform="translate(1085.3115 5)" fill="#333" style="font-size: 12px; font-family: &quot;Microsoft YaHei&quot;;">Water1</text><path d="M0 0l71.1621 0l0 14l-71.1621 0Z" transform="translate(1085.3115 5)" fill="transparent"></path><path d="M3.5 0L21.5 0A3.5 3.5 0 0 1 25 3.5L25 10.5A3.5 3.5 0 0 1 21.5 14L3.5 14A3.5 3.5 0 0 1 0 10.5L0 3.5A3.5 3.5 0 0 1 3.5 0" transform="translate(325.5264 5)" fill="#429837"></path><text dominant-baseline="central" text-anchor="start" x="30" y="7" transform="translate(325.5264 5)" fill="#333" style="font-size: 12px; font-family: &quot;Microsoft YaHei&quot;;">Ditto</text><path d="M0 0l58.8047 0l0 14l-58.8047 0Z" transform="translate(325.5264 5)" fill="transparent"></path><path d="M3.5 0L21.5 0A3.5 3.5 0 0 1 25 3.5L25 10.5A3.5 3.5 0 0 1 21.5 14L3.5 14A3.5 3.5 0 0 1 0 10.5L0 3.5A3.5 3.5 0 0 1 3.5 0" transform="translate(394.3311 5)" fill="#e7623d"></path><text dominant-baseline="central" text-anchor="start" x="30" y="7" transform="translate(394.3311 5)" fill="#333" style="font-size: 12px; font-family: &quot;Microsoft YaHei&quot;;">Monster</text><path d="M0 0l78.0645 0l0 14l-78.0645 0Z" transform="translate(394.3311 5)" fill="transparent"></path><path d="M3.5 0L21.5 0A3.5 3.5 0 0 1 25 3.5L25 10.5A3.5 3.5 0 0 1 21.5 14L3.5 14A3.5 3.5 0 0 1 0 10.5L0 3.5A3.5 3.5 0 0 1 3.5 0" transform="translate(482.3955 5)" fill="#2e9be3"></path><text dominant-baseline="central" text-anchor="start" x="30" y="7" transform="translate(482.3955 5)" fill="#333" style="font-size: 12px; font-family: &quot;Microsoft YaHei&quot;;">Bug</text><path d="M0 0l52.5996 0l0 14l-52.5996 0Z" transform="translate(482.3955 5)" fill="transparent"></path><path d="M3.5 0L21.5 0A3.5 3.5 0 0 1 25 3.5L25 10.5A3.5 3.5 0 0 1 21.5 14L3.5 14A3.5 3.5 0 0 1 0 10.5L0 3.5A3.5 3.5 0 0 1 3.5 0" transform="translate(544.9951 5)" fill="#f4cc1b"></path><text dominant-baseline="central" text-anchor="start" x="30" y="7" transform="translate(544.9951 5)" fill="#333" style="font-size: 12px; font-family: &quot;Microsoft YaHei&quot;;">Human-Like</text><path d="M0 0l99.5742 0l0 14l-99.5742 0Z" transform="translate(544.9951 5)" fill="transparent"></path><path d="M3.5 0L21.5 0A3.5 3.5 0 0 1 25 3.5L25 10.5A3.5 3.5 0 0 1 21.5 14L3.5 14A3.5 3.5 0 0 1 0 10.5L0 3.5A3.5 3.5 0 0 1 3.5 0" transform="translate(654.5693 5)" fill="#43c7c6"></path><text dominant-baseline="central" text-anchor="start" x="30" y="7" transform="translate(654.5693 5)" fill="#333" style="font-size: 12px; font-family: &quot;Microsoft YaHei&quot;;">Ground</text><path d="M0 0l73.4297 0l0 14l-73.4297 0Z" transform="translate(654.5693 5)" fill="transparent"></path><path d="M3.5 0L21.5 0A3.5 3.5 0 0 1 25 3.5L25 10.5A3.5 3.5 0 0 1 21.5 14L3.5 14A3.5 3.5 0 0 1 0 10.5L0 3.5A3.5 3.5 0 0 1 3.5 0" transform="translate(737.999 5)" fill="#a47840"></path><text dominant-baseline="central" text-anchor="start" x="30" y="7" transform="translate(737.999 5)" fill="#333" style="font-size: 12px; font-family: &quot;Microsoft YaHei&quot;;">Undiscovered</text><path d="M0 0l108.3516 0l0 14l-108.3516 0Z" transform="translate(737.999 5)" fill="transparent"></path><path d="M3.5 0L21.5 0A3.5 3.5 0 0 1 25 3.5L25 10.5A3.5 3.5 0 0 1 21.5 14L3.5 14A3.5 3.5 0 0 1 0 10.5L0 3.5A3.5 3.5 0 0 1 3.5 0" transform="translate(856.3506 5)" fill="#73abcf"></path><text dominant-baseline="central" text-anchor="start" x="30" y="7" transform="translate(856.3506 5)" fill="#333" style="font-size: 12px; font-family: &quot;Microsoft YaHei&quot;;">Flying</text><path d="M0 0l64.1836 0l0 14l-64.1836 0Z" transform="translate(856.3506 5)" fill="transparent"></path><path d="M3.5 0L21.5 0A3.5 3.5 0 0 1 25 3.5L25 10.5A3.5 3.5 0 0 1 21.5 14L3.5 14A3.5 3.5 0 0 1 0 10.5L0 3.5A3.5 3.5 0 0 1 3.5 0" transform="translate(930.5342 5)" fill="#a5a580"></path><text dominant-baseline="central" text-anchor="start" x="30" y="7" transform="translate(930.5342 5)" fill="#333" style="font-size: 12px; font-family: &quot;Microsoft YaHei&quot;;">Grass</text><path d="M0 0l61.248 0l0 14l-61.248 0Z" transform="translate(930.5342 5)" fill="transparent"></path><path d="M3.5 0L21.5 0A3.5 3.5 0 0 1 25 3.5L25 10.5A3.5 3.5 0 0 1 21.5 14L3.5 14A3.5 3.5 0 0 1 0 10.5L0 3.5A3.5 3.5 0 0 1 3.5 0" transform="translate(1001.7822 5)" fill="#818181"></path><text dominant-baseline="central" text-anchor="start" x="30" y="7" transform="translate(1001.7822 5)" fill="#333" style="font-size: 12px; font-family: &quot;Microsoft YaHei&quot;;">Mineral</text><path d="M0 0l73.5293 0l0 14l-73.5293 0Z" transform="translate(1001.7822 5)" fill="transparent"></path><path d="M3.5 0L21.5 0A3.5 3.5 0 0 1 25 3.5L25 10.5A3.5 3.5 0 0 1 21.5 14L3.5 14A3.5 3.5 0 0 1 0 10.5L0 3.5A3.5 3.5 0 0 1 3.5 0" transform="translate(1085.3115 5)" fill="#9ba32a"></path><text dominant-baseline="central" text-anchor="start" x="30" y="7" transform="translate(1085.3115 5)" fill="#333" style="font-size: 12px; font-family: &quot;Microsoft YaHei&quot;;">Water1</text><path d="M0 0l71.1621 0l0 14l-71.1621 0Z" transform="translate(1085.3115 5)" fill="transparent"></path><path d="M3.5 0L21.5 0A3.5 3.5 0 0 1 25 3.5L25 10.5A3.5 3.5 0 0 1 21.5 14L3.5 14A3.5 3.5 0 0 1 0 10.5L0 3.5A3.5 3.5 0 0 1 3.5 0" transform="translate(325.5264 5)" fill="#429837"></path><text dominant-baseline="central" text-anchor="start" x="30" y="7" transform="translate(325.5264 5)" fill="#333" style="font-size: 12px; font-family: &quot;Microsoft YaHei&quot;;">Ditto</text><path d="M0 0l58.8047 0l0 14l-58.8047 0Z" transform="translate(325.5264 5)" fill="transparent"></path><path d="M3.5 0L21.5 0A3.5 3.5 0 0 1 25 3.5L25 10.5A3.5 3.5 0 0 1 21.5 14L3.5 14A3.5 3.5 0 0 1 0 10.5L0 3.5A3.5 3.5 0 0 1 3.5 0" transform="translate(394.3311 5)" fill="#e7623d"></path><text dominant-baseline="central" text-anchor="start" x="30" y="7" transform="translate(394.3311 5)" fill="#333" style="font-size: 12px; font-family: &quot;Microsoft YaHei&quot;;">Monster</text><path d="M0 0l78.0645 0l0 14l-78.0645 0Z" transform="translate(394.3311 5)" fill="transparent"></path><path d="M3.5 0L21.5 0A3.5 3.5 0 0 1 25 3.5L25 10.5A3.5 3.5 0 0 1 21.5 14L3.5 14A3.5 3.5 0 0 1 0 10.5L0 3.5A3.5 3.5 0 0 1 3.5 0" transform="translate(482.3955 5)" fill="#2e9be3"></path><text dominant-baseline="central" text-anchor="start" x="30" y="7" transform="translate(482.3955 5)" fill="#333" style="font-size: 12px; font-family: &quot;Microsoft YaHei&quot;;">Bug</text><path d="M0 0l52.5996 0l0 14l-52.5996 0Z" transform="translate(482.3955 5)" fill="transparent"></path><path d="M3.5 0L21.5 0A3.5 3.5 0 0 1 25 3.5L25 10.5A3.5 3.5 0 0 1 21.5 14L3.5 14A3.5 3.5 0 0 1 0 10.5L0 3.5A3.5 3.5 0 0 1 3.5 0" transform="translate(544.9951 5)" fill="#f4cc1b"></path><text dominant-baseline="central" text-anchor="start" x="30" y="7" transform="translate(544.9951 5)" fill="#333" style="font-size: 12px; font-family: &quot;Microsoft YaHei&quot;;">Human-Like</text><path d="M0 0l99.5742 0l0 14l-99.5742 0Z" transform="translate(544.9951 5)" fill="transparent"></path><path d="M3.5 0L21.5 0A3.5 3.5 0 0 1 25 3.5L25 10.5A3.5 3.5 0 0 1 21.5 14L3.5 14A3.5 3.5 0 0 1 0 10.5L0 3.5A3.5 3.5 0 0 1 3.5 0" transform="translate(654.5693 5)" fill="#43c7c6"></path><text dominant-baseline="central" text-anchor="start" x="30" y="7" transform="translate(654.5693 5)" fill="#333" style="font-size: 12px; font-family: &quot;Microsoft YaHei&quot;;">Ground</text><path d="M0 0l73.4297 0l0 14l-73.4297 0Z" transform="translate(654.5693 5)" fill="transparent"></path><path d="M3.5 0L21.5 0A3.5 3.5 0 0 1 25 3.5L25 10.5A3.5 3.5 0 0 1 21.5 14L3.5 14A3.5 3.5 0 0 1 0 10.5L0 3.5A3.5 3.5 0 0 1 3.5 0" transform="translate(737.999 5)" fill="#a47840"></path><text dominant-baseline="central" text-anchor="start" x="30" y="7" transform="translate(737.999 5)" fill="#333" style="font-size: 12px; font-family: &quot;Microsoft YaHei&quot;;">Undiscovered</text><path d="M0 0l108.3516 0l0 14l-108.3516 0Z" transform="translate(737.999 5)" fill="transparent"></path><path d="M3.5 0L21.5 0A3.5 3.5 0 0 1 25 3.5L25 10.5A3.5 3.5 0 0 1 21.5 14L3.5 14A3.5 3.5 0 0 1 0 10.5L0 3.5A3.5 3.5 0 0 1 3.5 0" transform="translate(856.3506 5)" fill="#73abcf"></path><text dominant-baseline="central" text-anchor="start" x="30" y="7" transform="translate(856.3506 5)" fill="#333" style="font-size: 12px; font-family: &quot;Microsoft YaHei&quot;;">Flying</text><path d="M0 0l64.1836 0l0 14l-64.1836 0Z" transform="translate(856.3506 5)" fill="transparent"></path><path d="M3.5 0L21.5 0A3.5 3.5 0 0 1 25 3.5L25 10.5A3.5 3.5 0 0 1 21.5 14L3.5 14A3.5 3.5 0 0 1 0 10.5L0 3.5A3.5 3.5 0 0 1 3.5 0" transform="translate(930.5342 5)" fill="#a5a580"></path><text dominant-baseline="central" text-anchor="start" x="30" y="7" transform="translate(930.5342 5)" fill="#333" style="font-size: 12px; font-family: &quot;Microsoft YaHei&quot;;">Grass</text><path d="M0 0l61.248 0l0 14l-61.248 0Z" transform="translate(930.5342 5)" fill="transparent"></path><path d="M3.5 0L21.5 0A3.5 3.5 0 0 1 25 3.5L25 10.5A3.5 3.5 0 0 1 21.5 14L3.5 14A3.5 3.5 0 0 1 0 10.5L0 3.5A3.5 3.5 0 0 1 3.5 0" transform="translate(1001.7822 5)" fill="#818181"></path><text dominant-baseline="central" text-anchor="start" x="30" y="7" transform="translate(1001.7822 5)" fill="#333" style="font-size: 12px; font-family: &quot;Microsoft YaHei&quot;;">Mineral</text><path d="M0 0l73.5293 0l0 14l-73.5293 0Z" transform="translate(1001.7822 5)" fill="transparent"></path><path d="M3.5 0L21.5 0A3.5 3.5 0 0 1 25 3.5L25 10.5A3.5 3.5 0 0 1 21.5 14L3.5 14A3.5 3.5 0 0 1 0 10.5L0 3.5A3.5 3.5 0 0 1 3.5 0" transform="translate(1085.3115 5)" fill="#9ba32a"></path><text dominant-baseline="central" text-anchor="start" x="30" y="7" transform="translate(1085.3115 5)" fill="#333" style="font-size: 12px; font-family: &quot;Microsoft YaHei&quot;;">Water1</text><path d="M0 0l71.1621 0l0 14l-71.1621 0Z" transform="translate(1085.3115 5)" fill="transparent"></path><path d="M3.5 0L21.5 0A3.5 3.5 0 0 1 25 3.5L25 10.5A3.5 3.5 0 0 1 21.5 14L3.5 14A3.5 3.5 0 0 1 0 10.5L0 3.5A3.5 3.5 0 0 1 3.5 0" transform="translate(325.5264 5)" fill="#429837"></path><text dominant-baseline="central" text-anchor="start" x="30" y="7" transform="translate(325.5264 5)" fill="#333" style="font-size: 12px; font-family: &quot;Microsoft YaHei&quot;;">Ditto</text><path d="M0 0l58.8047 0l0 14l-58.8047 0Z" transform="translate(325.5264 5)" fill="transparent"></path><path d="M3.5 0L21.5 0A3.5 3.5 0 0 1 25 3.5L25 10.5A3.5 3.5 0 0 1 21.5 14L3.5 14A3.5 3.5 0 0 1 0 10.5L0 3.5A3.5 3.5 0 0 1 3.5 0" transform="translate(394.3311 5)" fill="#e7623d"></path><text dominant-baseline="central" text-anchor="start" x="30" y="7" transform="translate(394.3311 5)" fill="#333" style="font-size: 12px; font-family: &quot;Microsoft YaHei&quot;;">Monster</text><path d="M0 0l78.0645 0l0 14l-78.0645 0Z" transform="translate(394.3311 5)" fill="transparent"></path><path d="M3.5 0L21.5 0A3.5 3.5 0 0 1 25 3.5L25 10.5A3.5 3.5 0 0 1 21.5 14L3.5 14A3.5 3.5 0 0 1 0 10.5L0 3.5A3.5 3.5 0 0 1 3.5 0" transform="translate(482.3955 5)" fill="#2e9be3"></path><text dominant-baseline="central" text-anchor="start" x="30" y="7" transform="translate(482.3955 5)" fill="#333" style="font-size: 12px; font-family: &quot;Microsoft YaHei&quot;;">Bug</text><path d="M0 0l52.5996 0l0 14l-52.5996 0Z" transform="translate(482.3955 5)" fill="transparent"></path><path d="M3.5 0L21.5 0A3.5 3.5 0 0 1 25 3.5L25 10.5A3.5 3.5 0 0 1 21.5 14L3.5 14A3.5 3.5 0 0 1 0 10.5L0 3.5A3.5 3.5 0 0 1 3.5 0" transform="translate(544.9951 5)" fill="#f4cc1b"></path><text dominant-baseline="central" text-anchor="start" x="30" y="7" transform="translate(544.9951 5)" fill="#333" style="font-size: 12px; font-family: &quot;Microsoft YaHei&quot;;">Human-Like</text><path d="M0 0l99.5742 0l0 14l-99.5742 0Z" transform="translate(544.9951 5)" fill="transparent"></path><path d="M3.5 0L21.5 0A3.5 3.5 0 0 1 25 3.5L25 10.5A3.5 3.5 0 0 1 21.5 14L3.5 14A3.5 3.5 0 0 1 0 10.5L0 3.5A3.5 3.5 0 0 1 3.5 0" transform="translate(654.5693 5)" fill="#43c7c6"></path><text dominant-baseline="central" text-anchor="start" x="30" y="7" transform="translate(654.5693 5)" fill="#333" style="font-size: 12px; font-family: &quot;Microsoft YaHei&quot;;">Ground</text><path d="M0 0l73.4297 0l0 14l-73.4297 0Z" transform="translate(654.5693 5)" fill="transparent"></path><path d="M3.5 0L21.5 0A3.5 3.5 0 0 1 25 3.5L25 10.5A3.5 3.5 0 0 1 21.5 14L3.5 14A3.5 3.5 0 0 1 0 10.5L0 3.5A3.5 3.5 0 0 1 3.5 0" transform="translate(737.999 5)" fill="#a47840"></path><text dominant-baseline="central" text-anchor="start" x="30" y="7" transform="translate(737.999 5)" fill="#333" style="font-size: 12px; font-family: &quot;Microsoft YaHei&quot;;">Undiscovered</text><path d="M0 0l108.3516 0l0 14l-108.3516 0Z" transform="translate(737.999 5)" fill="transparent"></path><path d="M3.5 0L21.5 0A3.5 3.5 0 0 1 25 3.5L25 10.5A3.5 3.5 0 0 1 21.5 14L3.5 14A3.5 3.5 0 0 1 0 10.5L0 3.5A3.5 3.5 0 0 1 3.5 0" transform="translate(856.3506 5)" fill="#73abcf"></path><text dominant-baseline="central" text-anchor="start" x="30" y="7" transform="translate(856.3506 5)" fill="#333" style="font-size: 12px; font-family: &quot;Microsoft YaHei&quot;;">Flying</text><path d="M0 0l64.1836 0l0 14l-64.1836 0Z" transform="translate(856.3506 5)" fill="transparent"></path><path d="M3.5 0L21.5 0A3.5 3.5 0 0 1 25 3.5L25 10.5A3.5 3.5 0 0 1 21.5 14L3.5 14A3.5 3.5 0 0 1 0 10.5L0 3.5A3.5 3.5 0 0 1 3.5 0" transform="translate(930.5342 5)" fill="#a5a580"></path><text dominant-baseline="central" text-anchor="start" x="30" y="7" transform="translate(930.5342 5)" fill="#333" style="font-size: 12px; font-family: &quot;Microsoft YaHei&quot;;">Grass</text><path d="M0 0l61.248 0l0 14l-61.248 0Z" transform="translate(930.5342 5)" fill="transparent"></path><path d="M3.5 0L21.5 0A3.5 3.5 0 0 1 25 3.5L25 10.5A3.5 3.5 0 0 1 21.5 14L3.5 14A3.5 3.5 0 0 1 0 10.5L0 3.5A3.5 3.5 0 0 1 3.5 0" transform="translate(1001.7822 5)" fill="#818181"></path><text dominant-baseline="central" text-anchor="start" x="30" y="7" transform="translate(1001.7822 5)" fill="#333" style="font-size: 12px; font-family: &quot;Microsoft YaHei&quot;;">Mineral</text><path d="M0 0l73.5293 0l0 14l-73.5293 0Z" transform="translate(1001.7822 5)" fill="transparent"></path><path d="M3.5 0L21.5 0A3.5 3.5 0 0 1 25 3.5L25 10.5A3.5 3.5 0 0 1 21.5 14L3.5 14A3.5 3.5 0 0 1 0 10.5L0 3.5A3.5 3.5 0 0 1 3.5 0" transform="translate(1085.3115 5)" fill="#9ba32a"></path><text dominant-baseline="central" text-anchor="start" x="30" y="7" transform="translate(1085.3115 5)" fill="#333" style="font-size: 12px; font-family: &quot;Microsoft YaHei&quot;;">Water1</text><path d="M0 0l71.1621 0l0 14l-71.1621 0Z" transform="translate(1085.3115 5)" fill="transparent"></path><path d="M3.5 0L21.5 0A3.5 3.5 0 0 1 25 3.5L25 10.5A3.5 3.5 0 0 1 21.5 14L3.5 14A3.5 3.5 0 0 1 0 10.5L0 3.5A3.5 3.5 0 0 1 3.5 0" transform="translate(325.5264 5)" fill="#429837"></path><text dominant-baseline="central" text-anchor="start" x="30" y="7" transform="translate(325.5264 5)" fill="#333" style="font-size: 12px; font-family: &quot;Microsoft YaHei&quot;;">Ditto</text><path d="M0 0l58.8047 0l0 14l-58.8047 0Z" transform="translate(325.5264 5)" fill="transparent"></path><path d="M3.5 0L21.5 0A3.5 3.5 0 0 1 25 3.5L25 10.5A3.5 3.5 0 0 1 21.5 14L3.5 14A3.5 3.5 0 0 1 0 10.5L0 3.5A3.5 3.5 0 0 1 3.5 0" transform="translate(394.3311 5)" fill="#e7623d"></path><text dominant-baseline="central" text-anchor="start" x="30" y="7" transform="translate(394.3311 5)" fill="#333" style="font-size: 12px; font-family: &quot;Microsoft YaHei&quot;;">Monster</text><path d="M0 0l78.0645 0l0 14l-78.0645 0Z" transform="translate(394.3311 5)" fill="transparent"></path><path d="M3.5 0L21.5 0A3.5 3.5 0 0 1 25 3.5L25 10.5A3.5 3.5 0 0 1 21.5 14L3.5 14A3.5 3.5 0 0 1 0 10.5L0 3.5A3.5 3.5 0 0 1 3.5 0" transform="translate(482.3955 5)" fill="#2e9be3"></path><text dominant-baseline="central" text-anchor="start" x="30" y="7" transform="translate(482.3955 5)" fill="#333" style="font-size: 12px; font-family: &quot;Microsoft YaHei&quot;;">Bug</text><path d="M0 0l52.5996 0l0 14l-52.5996 0Z" transform="translate(482.3955 5)" fill="transparent"></path><path d="M3.5 0L21.5 0A3.5 3.5 0 0 1 25 3.5L25 10.5A3.5 3.5 0 0 1 21.5 14L3.5 14A3.5 3.5 0 0 1 0 10.5L0 3.5A3.5 3.5 0 0 1 3.5 0" transform="translate(544.9951 5)" fill="#f4cc1b"></path><text dominant-baseline="central" text-anchor="start" x="30" y="7" transform="translate(544.9951 5)" fill="#333" style="font-size: 12px; font-family: &quot;Microsoft YaHei&quot;;">Human-Like</text><path d="M0 0l99.5742 0l0 14l-99.5742 0Z" transform="translate(544.9951 5)" fill="transparent"></path><path d="M3.5 0L21.5 0A3.5 3.5 0 0 1 25 3.5L25 10.5A3.5 3.5 0 0 1 21.5 14L3.5 14A3.5 3.5 0 0 1 0 10.5L0 3.5A3.5 3.5 0 0 1 3.5 0" transform="translate(654.5693 5)" fill="#43c7c6"></path><text dominant-baseline="central" text-anchor="start" x="30" y="7" transform="translate(654.5693 5)" fill="#333" style="font-size: 12px; font-family: &quot;Microsoft YaHei&quot;;">Ground</text><path d="M0 0l73.4297 0l0 14l-73.4297 0Z" transform="translate(654.5693 5)" fill="transparent"></path><path d="M3.5 0L21.5 0A3.5 3.5 0 0 1 25 3.5L25 10.5A3.5 3.5 0 0 1 21.5 14L3.5 14A3.5 3.5 0 0 1 0 10.5L0 3.5A3.5 3.5 0 0 1 3.5 0" transform="translate(737.999 5)" fill="#a47840"></path><text dominant-baseline="central" text-anchor="start" x="30" y="7" transform="translate(737.999 5)" fill="#333" style="font-size: 12px; font-family: &quot;Microsoft YaHei&quot;;">Undiscovered</text><path d="M0 0l108.3516 0l0 14l-108.3516 0Z" transform="translate(737.999 5)" fill="transparent"></path><path d="M3.5 0L21.5 0A3.5 3.5 0 0 1 25 3.5L25 10.5A3.5 3.5 0 0 1 21.5 14L3.5 14A3.5 3.5 0 0 1 0 10.5L0 3.5A3.5 3.5 0 0 1 3.5 0" transform="translate(856.3506 5)" fill="#73abcf"></path><text dominant-baseline="central" text-anchor="start" x="30" y="7" transform="translate(856.3506 5)" fill="#333" style="font-size: 12px; font-family: &quot;Microsoft YaHei&quot;;">Flying</text><path d="M0 0l64.1836 0l0 14l-64.1836 0Z" transform="translate(856.3506 5)" fill="transparent"></path><path d="M3.5 0L21.5 0A3.5 3.5 0 0 1 25 3.5L25 10.5A3.5 3.5 0 0 1 21.5 14L3.5 14A3.5 3.5 0 0 1 0 10.5L0 3.5A3.5 3.5 0 0 1 3.5 0" transform="translate(930.5342 5)" fill="#a5a580"></path><text dominant-baseline="central" text-anchor="start" x="30" y="7" transform="translate(930.5342 5)" fill="#333" style="font-size: 12px; font-family: &quot;Microsoft YaHei&quot;;">Grass</text><path d="M0 0l61.248 0l0 14l-61.248 0Z" transform="translate(930.5342 5)" fill="transparent"></path><path d="M3.5 0L21.5 0A3.5 3.5 0 0 1 25 3.5L25 10.5A3.5 3.5 0 0 1 21.5 14L3.5 14A3.5 3.5 0 0 1 0 10.5L0 3.5A3.5 3.5 0 0 1 3.5 0" transform="translate(1001.7822 5)" fill="#818181"></path><text dominant-baseline="central" text-anchor="start" x="30" y="7" transform="translate(1001.7822 5)" fill="#333" style="font-size: 12px; font-family: &quot;Microsoft YaHei&quot;;">Mineral</text><path d="M0 0l73.5293 0l0 14l-73.5293 0Z" transform="translate(1001.7822 5)" fill="transparent"></path><path d="M3.5 0L21.5 0A3.5 3.5 0 0 1 25 3.5L25 10.5A3.5 3.5 0 0 1 21.5 14L3.5 14A3.5 3.5 0 0 1 0 10.5L0 3.5A3.5 3.5 0 0 1 3.5 0" transform="translate(1085.3115 5)" fill="#9ba32a"></path><text dominant-baseline="central" text-anchor="start" x="30" y="7" transform="translate(1085.3115 5)" fill="#333" style="font-size: 12px; font-family: &quot;Microsoft YaHei&quot;;">Water1</text><path d="M0 0l71.1621 0l0 14l-71.1621 0Z" transform="translate(1085.3115 5)" fill="transparent"></path><path d="M3.5 0L21.5 0A3.5 3.5 0 0 1 25 3.5L25 10.5A3.5 3.5 0 0 1 21.5 14L3.5 14A3.5 3.5 0 0 1 0 10.5L0 3.5A3.5 3.5 0 0 1 3.5 0" transform="translate(325.5264 5)" fill="#429837"></path><text dominant-baseline="central" text-anchor="start" x="30" y="7" transform="translate(325.5264 5)" fill="#333" style="font-size: 12px; font-family: &quot;Microsoft YaHei&quot;;">Ditto</text><path d="M0 0l58.8047 0l0 14l-58.8047 0Z" transform="translate(325.5264 5)" fill="transparent"></path><path d="M3.5 0L21.5 0A3.5 3.5 0 0 1 25 3.5L25 10.5A3.5 3.5 0 0 1 21.5 14L3.5 14A3.5 3.5 0 0 1 0 10.5L0 3.5A3.5 3.5 0 0 1 3.5 0" transform="translate(394.3311 5)" fill="#e7623d"></path><text dominant-baseline="central" text-anchor="start" x="30" y="7" transform="translate(394.3311 5)" fill="#333" style="font-size: 12px; font-family: &quot;Microsoft YaHei&quot;;">Monster</text><path d="M0 0l78.0645 0l0 14l-78.0645 0Z" transform="translate(394.3311 5)" fill="transparent"></path><path d="M3.5 0L21.5 0A3.5 3.5 0 0 1 25 3.5L25 10.5A3.5 3.5 0 0 1 21.5 14L3.5 14A3.5 3.5 0 0 1 0 10.5L0 3.5A3.5 3.5 0 0 1 3.5 0" transform="translate(482.3955 5)" fill="#2e9be3"></path><text dominant-baseline="central" text-anchor="start" x="30" y="7" transform="translate(482.3955 5)" fill="#333" style="font-size: 12px; font-family: &quot;Microsoft YaHei&quot;;">Bug</text><path d="M0 0l52.5996 0l0 14l-52.5996 0Z" transform="translate(482.3955 5)" fill="transparent"></path><path d="M3.5 0L21.5 0A3.5 3.5 0 0 1 25 3.5L25 10.5A3.5 3.5 0 0 1 21.5 14L3.5 14A3.5 3.5 0 0 1 0 10.5L0 3.5A3.5 3.5 0 0 1 3.5 0" transform="translate(544.9951 5)" fill="#f4cc1b"></path><text dominant-baseline="central" text-anchor="start" x="30" y="7" transform="translate(544.9951 5)" fill="#333" style="font-size: 12px; font-family: &quot;Microsoft YaHei&quot;;">Human-Like</text><path d="M0 0l99.5742 0l0 14l-99.5742 0Z" transform="translate(544.9951 5)" fill="transparent"></path><path d="M3.5 0L21.5 0A3.5 3.5 0 0 1 25 3.5L25 10.5A3.5 3.5 0 0 1 21.5 14L3.5 14A3.5 3.5 0 0 1 0 10.5L0 3.5A3.5 3.5 0 0 1 3.5 0" transform="translate(654.5693 5)" fill="#43c7c6"></path><text dominant-baseline="central" text-anchor="start" x="30" y="7" transform="translate(654.5693 5)" fill="#333" style="font-size: 12px; font-family: &quot;Microsoft YaHei&quot;;">Ground</text><path d="M0 0l73.4297 0l0 14l-73.4297 0Z" transform="translate(654.5693 5)" fill="transparent"></path><path d="M3.5 0L21.5 0A3.5 3.5 0 0 1 25 3.5L25 10.5A3.5 3.5 0 0 1 21.5 14L3.5 14A3.5 3.5 0 0 1 0 10.5L0 3.5A3.5 3.5 0 0 1 3.5 0" transform="translate(737.999 5)" fill="#a47840"></path><text dominant-baseline="central" text-anchor="start" x="30" y="7" transform="translate(737.999 5)" fill="#333" style="font-size: 12px; font-family: &quot;Microsoft YaHei&quot;;">Undiscovered</text><path d="M0 0l108.3516 0l0 14l-108.3516 0Z" transform="translate(737.999 5)" fill="transparent"></path><path d="M3.5 0L21.5 0A3.5 3.5 0 0 1 25 3.5L25 10.5A3.5 3.5 0 0 1 21.5 14L3.5 14A3.5 3.5 0 0 1 0 10.5L0 3.5A3.5 3.5 0 0 1 3.5 0" transform="translate(856.3506 5)" fill="#73abcf"></path><text dominant-baseline="central" text-anchor="start" x="30" y="7" transform="translate(856.3506 5)" fill="#333" style="font-size: 12px; font-family: &quot;Microsoft YaHei&quot;;">Flying</text><path d="M0 0l64.1836 0l0 14l-64.1836 0Z" transform="translate(856.3506 5)" fill="transparent"></path><path d="M3.5 0L21.5 0A3.5 3.5 0 0 1 25 3.5L25 10.5A3.5 3.5 0 0 1 21.5 14L3.5 14A3.5 3.5 0 0 1 0 10.5L0 3.5A3.5 3.5 0 0 1 3.5 0" transform="translate(930.5342 5)" fill="#a5a580"></path><text dominant-baseline="central" text-anchor="start" x="30" y="7" transform="translate(930.5342 5)" fill="#333" style="font-size: 12px; font-family: &quot;Microsoft YaHei&quot;;">Grass</text><path d="M0 0l61.248 0l0 14l-61.248 0Z" transform="translate(930.5342 5)" fill="transparent"></path><path d="M3.5 0L21.5 0A3.5 3.5 0 0 1 25 3.5L25 10.5A3.5 3.5 0 0 1 21.5 14L3.5 14A3.5 3.5 0 0 1 0 10.5L0 3.5A3.5 3.5 0 0 1 3.5 0" transform="translate(1001.7822 5)" fill="#818181"></path><text dominant-baseline="central" text-anchor="start" x="30" y="7" transform="translate(1001.7822 5)" fill="#333" style="font-size: 12px; font-family: &quot;Microsoft YaHei&quot;;">Mineral</text><path d="M0 0l73.5293 0l0 14l-73.5293 0Z" transform="translate(1001.7822 5)" fill="transparent"></path><path d="M3.5 0L21.5 0A3.5 3.5 0 0 1 25 3.5L25 10.5A3.5 3.5 0 0 1 21.5 14L3.5 14A3.5 3.5 0 0 1 0 10.5L0 3.5A3.5 3.5 0 0 1 3.5 0" transform="translate(1085.3115 5)" fill="#9ba32a"></path><text dominant-baseline="central" text-anchor="start" x="30" y="7" transform="translate(1085.3115 5)" fill="#333" style="font-size: 12px; font-family: &quot;Microsoft YaHei&quot;;">Water1</text><path d="M0 0l71.1621 0l0 14l-71.1621 0Z" transform="translate(1085.3115 5)" fill="transparent"></path><path d="M3.5 0L21.5 0A3.5 3.5 0 0 1 25 3.5L25 10.5A3.5 3.5 0 0 1 21.5 14L3.5 14A3.5 3.5 0 0 1 0 10.5L0 3.5A3.5 3.5 0 0 1 3.5 0" transform="translate(325.5264 5)" fill="#429837"></path><text dominant-baseline="central" text-anchor="start" x="30" y="7" transform="translate(325.5264 5)" fill="#333" style="font-size: 12px; font-family: &quot;Microsoft YaHei&quot;;">Ditto</text><path d="M0 0l58.8047 0l0 14l-58.8047 0Z" transform="translate(325.5264 5)" fill="transparent"></path><path d="M3.5 0L21.5 0A3.5 3.5 0 0 1 25 3.5L25 10.5A3.5 3.5 0 0 1 21.5 14L3.5 14A3.5 3.5 0 0 1 0 10.5L0 3.5A3.5 3.5 0 0 1 3.5 0" transform="translate(394.3311 5)" fill="#e7623d"></path><text dominant-baseline="central" text-anchor="start" x="30" y="7" transform="translate(394.3311 5)" fill="#333" style="font-size: 12px; font-family: &quot;Microsoft YaHei&quot;;">Monster</text><path d="M0 0l78.0645 0l0 14l-78.0645 0Z" transform="translate(394.3311 5)" fill="transparent"></path><path d="M3.5 0L21.5 0A3.5 3.5 0 0 1 25 3.5L25 10.5A3.5 3.5 0 0 1 21.5 14L3.5 14A3.5 3.5 0 0 1 0 10.5L0 3.5A3.5 3.5 0 0 1 3.5 0" transform="translate(482.3955 5)" fill="#2e9be3"></path><text dominant-baseline="central" text-anchor="start" x="30" y="7" transform="translate(482.3955 5)" fill="#333" style="font-size: 12px; font-family: &quot;Microsoft YaHei&quot;;">Bug</text><path d="M0 0l52.5996 0l0 14l-52.5996 0Z" transform="translate(482.3955 5)" fill="transparent"></path><path d="M3.5 0L21.5 0A3.5 3.5 0 0 1 25 3.5L25 10.5A3.5 3.5 0 0 1 21.5 14L3.5 14A3.5 3.5 0 0 1 0 10.5L0 3.5A3.5 3.5 0 0 1 3.5 0" transform="translate(544.9951 5)" fill="#f4cc1b"></path><text dominant-baseline="central" text-anchor="start" x="30" y="7" transform="translate(544.9951 5)" fill="#333" style="font-size: 12px; font-family: &quot;Microsoft YaHei&quot;;">Human-Like</text><path d="M0 0l99.5742 0l0 14l-99.5742 0Z" transform="translate(544.9951 5)" fill="transparent"></path><path d="M3.5 0L21.5 0A3.5 3.5 0 0 1 25 3.5L25 10.5A3.5 3.5 0 0 1 21.5 14L3.5 14A3.5 3.5 0 0 1 0 10.5L0 3.5A3.5 3.5 0 0 1 3.5 0" transform="translate(654.5693 5)" fill="#43c7c6"></path><text dominant-baseline="central" text-anchor="start" x="30" y="7" transform="translate(654.5693 5)" fill="#333" style="font-size: 12px; font-family: &quot;Microsoft YaHei&quot;;">Ground</text><path d="M0 0l73.4297 0l0 14l-73.4297 0Z" transform="translate(654.5693 5)" fill="transparent"></path><path d="M3.5 0L21.5 0A3.5 3.5 0 0 1 25 3.5L25 10.5A3.5 3.5 0 0 1 21.5 14L3.5 14A3.5 3.5 0 0 1 0 10.5L0 3.5A3.5 3.5 0 0 1 3.5 0" transform="translate(737.999 5)" fill="#a47840"></path><text dominant-baseline="central" text-anchor="start" x="30" y="7" transform="translate(737.999 5)" fill="#333" style="font-size: 12px; font-family: &quot;Microsoft YaHei&quot;;">Undiscovered</text><path d="M0 0l108.3516 0l0 14l-108.3516 0Z" transform="translate(737.999 5)" fill="transparent"></path><path d="M3.5 0L21.5 0A3.5 3.5 0 0 1 25 3.5L25 10.5A3.5 3.5 0 0 1 21.5 14L3.5 14A3.5 3.5 0 0 1 0 10.5L0 3.5A3.5 3.5 0 0 1 3.5 0" transform="translate(856.3506 5)" fill="#73abcf"></path><text dominant-baseline="central" text-anchor="start" x="30" y="7" transform="translate(856.3506 5)" fill="#333" style="font-size: 12px; font-family: &quot;Microsoft YaHei&quot;;">Flying</text><path d="M0 0l64.1836 0l0 14l-64.1836 0Z" transform="translate(856.3506 5)" fill="transparent"></path><path d="M3.5 0L21.5 0A3.5 3.5 0 0 1 25 3.5L25 10.5A3.5 3.5 0 0 1 21.5 14L3.5 14A3.5 3.5 0 0 1 0 10.5L0 3.5A3.5 3.5 0 0 1 3.5 0" transform="translate(930.5342 5)" fill="#a5a580"></path><text dominant-baseline="central" text-anchor="start" x="30" y="7" transform="translate(930.5342 5)" fill="#333" style="font-size: 12px; font-family: &quot;Microsoft YaHei&quot;;">Grass</text><path d="M0 0l61.248 0l0 14l-61.248 0Z" transform="translate(930.5342 5)" fill="transparent"></path><path d="M3.5 0L21.5 0A3.5 3.5 0 0 1 25 3.5L25 10.5A3.5 3.5 0 0 1 21.5 14L3.5 14A3.5 3.5 0 0 1 0 10.5L0 3.5A3.5 3.5 0 0 1 3.5 0" transform="translate(1001.7822 5)" fill="#818181"></path><text dominant-baseline="central" text-anchor="start" x="30" y="7" transform="translate(1001.7822 5)" fill="#333" style="font-size: 12px; font-family: &quot;Microsoft YaHei&quot;;">Mineral</text><path d="M0 0l73.5293 0l0 14l-73.5293 0Z" transform="translate(1001.7822 5)" fill="transparent"></path><path d="M3.5 0L21.5 0A3.5 3.5 0 0 1 25 3.5L25 10.5A3.5 3.5 0 0 1 21.5 14L3.5 14A3.5 3.5 0 0 1 0 10.5L0 3.5A3.5 3.5 0 0 1 3.5 0" transform="translate(1085.3115 5)" fill="#9ba32a"></path><text dominant-baseline="central" text-anchor="start" x="30" y="7" transform="translate(1085.3115 5)" fill="#333" style="font-size: 12px; font-family: &quot;Microsoft YaHei&quot;;">Water1</text><path d="M0 0l71.1621 0l0 14l-71.1621 0Z" transform="translate(1085.3115 5)" fill="transparent"></path><path d="M3.5 0L21.5 0A3.5 3.5 0 0 1 25 3.5L25 10.5A3.5 3.5 0 0 1 21.5 14L3.5 14A3.5 3.5 0 0 1 0 10.5L0 3.5A3.5 3.5 0 0 1 3.5 0" transform="translate(325.5264 5)" fill="#429837"></path><text dominant-baseline="central" text-anchor="start" x="30" y="7" transform="translate(325.5264 5)" fill="#333" style="font-size: 12px; font-family: &quot;Microsoft YaHei&quot;;">Ditto</text><path d="M0 0l58.8047 0l0 14l-58.8047 0Z" transform="translate(325.5264 5)" fill="transparent"></path><path d="M3.5 0L21.5 0A3.5 3.5 0 0 1 25 3.5L25 10.5A3.5 3.5 0 0 1 21.5 14L3.5 14A3.5 3.5 0 0 1 0 10.5L0 3.5A3.5 3.5 0 0 1 3.5 0" transform="translate(394.3311 5)" fill="#e7623d"></path><text dominant-baseline="central" text-anchor="start" x="30" y="7" transform="translate(394.3311 5)" fill="#333" style="font-size: 12px; font-family: &quot;Microsoft YaHei&quot;;">Monster</text><path d="M0 0l78.0645 0l0 14l-78.0645 0Z" transform="translate(394.3311 5)" fill="transparent"></path><path d="M3.5 0L21.5 0A3.5 3.5 0 0 1 25 3.5L25 10.5A3.5 3.5 0 0 1 21.5 14L3.5 14A3.5 3.5 0 0 1 0 10.5L0 3.5A3.5 3.5 0 0 1 3.5 0" transform="translate(482.3955 5)" fill="#2e9be3"></path><text dominant-baseline="central" text-anchor="start" x="30" y="7" transform="translate(482.3955 5)" fill="#333" style="font-size: 12px; font-family: &quot;Microsoft YaHei&quot;;">Bug</text><path d="M0 0l52.5996 0l0 14l-52.5996 0Z" transform="translate(482.3955 5)" fill="transparent"></path><path d="M3.5 0L21.5 0A3.5 3.5 0 0 1 25 3.5L25 10.5A3.5 3.5 0 0 1 21.5 14L3.5 14A3.5 3.5 0 0 1 0 10.5L0 3.5A3.5 3.5 0 0 1 3.5 0" transform="translate(544.9951 5)" fill="#f4cc1b"></path><text dominant-baseline="central" text-anchor="start" x="30" y="7" transform="translate(544.9951 5)" fill="#333" style="font-size: 12px; font-family: &quot;Microsoft YaHei&quot;;">Human-Like</text><path d="M0 0l99.5742 0l0 14l-99.5742 0Z" transform="translate(544.9951 5)" fill="transparent"></path><path d="M3.5 0L21.5 0A3.5 3.5 0 0 1 25 3.5L25 10.5A3.5 3.5 0 0 1 21.5 14L3.5 14A3.5 3.5 0 0 1 0 10.5L0 3.5A3.5 3.5 0 0 1 3.5 0" transform="translate(654.5693 5)" fill="#43c7c6"></path><text dominant-baseline="central" text-anchor="start" x="30" y="7" transform="translate(654.5693 5)" fill="#333" style="font-size: 12px; font-family: &quot;Microsoft YaHei&quot;;">Ground</text><path d="M0 0l73.4297 0l0 14l-73.4297 0Z" transform="translate(654.5693 5)" fill="transparent"></path><path d="M3.5 0L21.5 0A3.5 3.5 0 0 1 25 3.5L25 10.5A3.5 3.5 0 0 1 21.5 14L3.5 14A3.5 3.5 0 0 1 0 10.5L0 3.5A3.5 3.5 0 0 1 3.5 0" transform="translate(737.999 5)" fill="#a47840"></path><text dominant-baseline="central" text-anchor="start" x="30" y="7" transform="translate(737.999 5)" fill="#333" style="font-size: 12px; font-family: &quot;Microsoft YaHei&quot;;">Undiscovered</text><path d="M0 0l108.3516 0l0 14l-108.3516 0Z" transform="translate(737.999 5)" fill="transparent"></path><path d="M3.5 0L21.5 0A3.5 3.5 0 0 1 25 3.5L25 10.5A3.5 3.5 0 0 1 21.5 14L3.5 14A3.5 3.5 0 0 1 0 10.5L0 3.5A3.5 3.5 0 0 1 3.5 0" transform="translate(856.3506 5)" fill="#73abcf"></path><text dominant-baseline="central" text-anchor="start" x="30" y="7" transform="translate(856.3506 5)" fill="#333" style="font-size: 12px; font-family: &quot;Microsoft YaHei&quot;;">Flying</text><path d="M0 0l64.1836 0l0 14l-64.1836 0Z" transform="translate(856.3506 5)" fill="transparent"></path><path d="M3.5 0L21.5 0A3.5 3.5 0 0 1 25 3.5L25 10.5A3.5 3.5 0 0 1 21.5 14L3.5 14A3.5 3.5 0 0 1 0 10.5L0 3.5A3.5 3.5 0 0 1 3.5 0" transform="translate(930.5342 5)" fill="#a5a580"></path><text dominant-baseline="central" text-anchor="start" x="30" y="7" transform="translate(930.5342 5)" fill="#333" style="font-size: 12px; font-family: &quot;Microsoft YaHei&quot;;">Grass</text><path d="M0 0l61.248 0l0 14l-61.248 0Z" transform="translate(930.5342 5)" fill="transparent"></path><path d="M3.5 0L21.5 0A3.5 3.5 0 0 1 25 3.5L25 10.5A3.5 3.5 0 0 1 21.5 14L3.5 14A3.5 3.5 0 0 1 0 10.5L0 3.5A3.5 3.5 0 0 1 3.5 0" transform="translate(1001.7822 5)" fill="#818181"></path><text dominant-baseline="central" text-anchor="start" x="30" y="7" transform="translate(1001.7822 5)" fill="#333" style="font-size: 12px; font-family: &quot;Microsoft YaHei&quot;;">Mineral</text><path d="M0 0l73.5293 0l0 14l-73.5293 0Z" transform="translate(1001.7822 5)" fill="transparent"></path><path d="M3.5 0L21.5 0A3.5 3.5 0 0 1 25 3.5L25 10.5A3.5 3.5 0 0 1 21.5 14L3.5 14A3.5 3.5 0 0 1 0 10.5L0 3.5A3.5 3.5 0 0 1 3.5 0" transform="translate(1085.3115 5)" fill="#9ba32a"></path><text dominant-baseline="central" text-anchor="start" x="30" y="7" transform="translate(1085.3115 5)" fill="#333" style="font-size: 12px; font-family: &quot;Microsoft YaHei&quot;;">Water1</text><path d="M0 0l71.1621 0l0 14l-71.1621 0Z" transform="translate(1085.3115 5)" fill="transparent"></path><path d="M3.5 0L21.5 0A3.5 3.5 0 0 1 25 3.5L25 10.5A3.5 3.5 0 0 1 21.5 14L3.5 14A3.5 3.5 0 0 1 0 10.5L0 3.5A3.5 3.5 0 0 1 3.5 0" transform="translate(325.5264 5)" fill="#429837"></path><text dominant-baseline="central" text-anchor="start" x="30" y="7" transform="translate(325.5264 5)" fill="#333" style="font-size: 12px; font-family: &quot;Microsoft YaHei&quot;;">Ditto</text><path d="M0 0l58.8047 0l0 14l-58.8047 0Z" transform="translate(325.5264 5)" fill="transparent"></path><path d="M3.5 0L21.5 0A3.5 3.5 0 0 1 25 3.5L25 10.5A3.5 3.5 0 0 1 21.5 14L3.5 14A3.5 3.5 0 0 1 0 10.5L0 3.5A3.5 3.5 0 0 1 3.5 0" transform="translate(394.3311 5)" fill="#e7623d"></path><text dominant-baseline="central" text-anchor="start" x="30" y="7" transform="translate(394.3311 5)" fill="#333" style="font-size: 12px; font-family: &quot;Microsoft YaHei&quot;;">Monster</text><path d="M0 0l78.0645 0l0 14l-78.0645 0Z" transform="translate(394.3311 5)" fill="transparent"></path><path d="M3.5 0L21.5 0A3.5 3.5 0 0 1 25 3.5L25 10.5A3.5 3.5 0 0 1 21.5 14L3.5 14A3.5 3.5 0 0 1 0 10.5L0 3.5A3.5 3.5 0 0 1 3.5 0" transform="translate(482.3955 5)" fill="#2e9be3"></path><text dominant-baseline="central" text-anchor="start" x="30" y="7" transform="translate(482.3955 5)" fill="#333" style="font-size: 12px; font-family: &quot;Microsoft YaHei&quot;;">Bug</text><path d="M0 0l52.5996 0l0 14l-52.5996 0Z" transform="translate(482.3955 5)" fill="transparent"></path><path d="M3.5 0L21.5 0A3.5 3.5 0 0 1 25 3.5L25 10.5A3.5 3.5 0 0 1 21.5 14L3.5 14A3.5 3.5 0 0 1 0 10.5L0 3.5A3.5 3.5 0 0 1 3.5 0" transform="translate(544.9951 5)" fill="#f4cc1b"></path><text dominant-baseline="central" text-anchor="start" x="30" y="7" transform="translate(544.9951 5)" fill="#333" style="font-size: 12px; font-family: &quot;Microsoft YaHei&quot;;">Human-Like</text><path d="M0 0l99.5742 0l0 14l-99.5742 0Z" transform="translate(544.9951 5)" fill="transparent"></path><path d="M3.5 0L21.5 0A3.5 3.5 0 0 1 25 3.5L25 10.5A3.5 3.5 0 0 1 21.5 14L3.5 14A3.5 3.5 0 0 1 0 10.5L0 3.5A3.5 3.5 0 0 1 3.5 0" transform="translate(654.5693 5)" fill="#43c7c6"></path><text dominant-baseline="central" text-anchor="start" x="30" y="7" transform="translate(654.5693 5)" fill="#333" style="font-size: 12px; font-family: &quot;Microsoft YaHei&quot;;">Ground</text><path d="M0 0l73.4297 0l0 14l-73.4297 0Z" transform="translate(654.5693 5)" fill="transparent"></path><path d="M3.5 0L21.5 0A3.5 3.5 0 0 1 25 3.5L25 10.5A3.5 3.5 0 0 1 21.5 14L3.5 14A3.5 3.5 0 0 1 0 10.5L0 3.5A3.5 3.5 0 0 1 3.5 0" transform="translate(737.999 5)" fill="#a47840"></path><text dominant-baseline="central" text-anchor="start" x="30" y="7" transform="translate(737.999 5)" fill="#333" style="font-size: 12px; font-family: &quot;Microsoft YaHei&quot;;">Undiscovered</text><path d="M0 0l108.3516 0l0 14l-108.3516 0Z" transform="translate(737.999 5)" fill="transparent"></path><path d="M3.5 0L21.5 0A3.5 3.5 0 0 1 25 3.5L25 10.5A3.5 3.5 0 0 1 21.5 14L3.5 14A3.5 3.5 0 0 1 0 10.5L0 3.5A3.5 3.5 0 0 1 3.5 0" transform="translate(856.3506 5)" fill="#73abcf"></path><text dominant-baseline="central" text-anchor="start" x="30" y="7" transform="translate(856.3506 5)" fill="#333" style="font-size: 12px; font-family: &quot;Microsoft YaHei&quot;;">Flying</text><path d="M0 0l64.1836 0l0 14l-64.1836 0Z" transform="translate(856.3506 5)" fill="transparent"></path><path d="M3.5 0L21.5 0A3.5 3.5 0 0 1 25 3.5L25 10.5A3.5 3.5 0 0 1 21.5 14L3.5 14A3.5 3.5 0 0 1 0 10.5L0 3.5A3.5 3.5 0 0 1 3.5 0" transform="translate(930.5342 5)" fill="#a5a580"></path><text dominant-baseline="central" text-anchor="start" x="30" y="7" transform="translate(930.5342 5)" fill="#333" style="font-size: 12px; font-family: &quot;Microsoft YaHei&quot;;">Grass</text><path d="M0 0l61.248 0l0 14l-61.248 0Z" transform="translate(930.5342 5)" fill="transparent"></path><path d="M3.5 0L21.5 0A3.5 3.5 0 0 1 25 3.5L25 10.5A3.5 3.5 0 0 1 21.5 14L3.5 14A3.5 3.5 0 0 1 0 10.5L0 3.5A3.5 3.5 0 0 1 3.5 0" transform="translate(1001.7822 5)" fill="#818181"></path><text dominant-baseline="central" text-anchor="start" x="30" y="7" transform="translate(1001.7822 5)" fill="#333" style="font-size: 12px; font-family: &quot;Microsoft YaHei&quot;;">Mineral</text><path d="M0 0l73.5293 0l0 14l-73.5293 0Z" transform="translate(1001.7822 5)" fill="transparent"></path><path d="M3.5 0L21.5 0A3.5 3.5 0 0 1 25 3.5L25 10.5A3.5 3.5 0 0 1 21.5 14L3.5 14A3.5 3.5 0 0 1 0 10.5L0 3.5A3.5 3.5 0 0 1 3.5 0" transform="translate(1085.3115 5)" fill="#9ba32a"></path><text dominant-baseline="central" text-anchor="start" x="30" y="7" transform="translate(1085.3115 5)" fill="#333" style="font-size: 12px; font-family: &quot;Microsoft YaHei&quot;;">Water1</text><path d="M0 0l71.1621 0l0 14l-71.1621 0Z" transform="translate(1085.3115 5)" fill="transparent"></path></g></svg>