<svg xmlns="http://www.w3.org/2000/svg" xmlns:xlink="http://www.w3.org/1999/xlink" version="1.1" baseProfile="full" width="1482" height="595" style="position: absolute; left: 0px; top: 0px; user-select: none;"><rect width="1482" height="595" x="0" y="0" fill="none"></rect><g><path d="M29.1113 557.5L1437.54 557.5" fill="transparent" stroke="#E0E6F1"></path><path d="M29.1113 474.5L1437.54 474.5" fill="transparent" stroke="#E0E6F1"></path><path d="M29.1113 391.5L1437.54 391.5" fill="transparent" stroke="#E0E6F1"></path><path d="M29.1113 308.5L1437.54 308.5" fill="transparent" stroke="#E0E6F1"></path><path d="M29.1113 225.5L1437.54 225.5" fill="transparent" stroke="#E0E6F1"></path><path d="M29.1113 143.5L1437.54 143.5" fill="transparent" stroke="#E0E6F1"></path><path d="M29.1113 60.5L1437.54 60.5" fill="transparent" stroke="#E0E6F1"></path><text dominant-baseline="central" text-anchor="middle" y="-8" transform="translate(29.1113 45)" fill="#6E7079" style="font-size: 16px; font-family: &quot;Microsoft YaHei&quot;; font-weight: 600;">Count</text><path d="M29.1113 557.5L1437.54 557.5" fill="transparent" stroke="#6E7079" stroke-linecap="round"></path><path d="M29.5 557.15L29.5 562.15" fill="transparent" stroke="#6E7079"></path><path d="M107.5 557.15L107.5 562.15" fill="transparent" stroke="#6E7079"></path><path d="M185.5 557.15L185.5 562.15" fill="transparent" stroke="#6E7079"></path><path d="M264.5 557.15L264.5 562.15" fill="transparent" stroke="#6E7079"></path><path d="M342.5 557.15L342.5 562.15" fill="transparent" stroke="#6E7079"></path><path d="M420.5 557.15L420.5 562.15" fill="transparent" stroke="#6E7079"></path><path d="M498.5 557.15L498.5 562.15" fill="transparent" stroke="#6E7079"></path><path d="M577.5 557.15L577.5 562.15" fill="transparent" stroke="#6E7079"></path><path d="M655.5 557.15L655.5 562.15" fill="transparent" stroke="#6E7079"></path><path d="M733.5 557.15L733.5 562.15" fill="transparent" stroke="#6E7079"></path><path d="M811.5 557.15L811.5 562.15" fill="transparent" stroke="#6E7079"></path><path d="M890.5 557.15L890.5 562.15" fill="transparent" stroke="#6E7079"></path><path d="M968.5 557.15L968.5 562.15" fill="transparent" stroke="#6E7079"></path><path d="M1046.5 557.15L1046.5 562.15" fill="transparent" stroke="#6E7079"></path><path d="M1124.5 557.15L1124.5 562.15" fill="transparent" stroke="#6E7079"></path><path d="M1203.5 557.15L1203.5 562.15" fill="transparent" stroke="#6E7079"></path><path d="M1281.5 557.15L1281.5 562.15" fill="transparent" stroke="#6E7079"></path><path d="M1359.5 557.15L1359.5 562.15" fill="transparent" stroke="#6E7079"></path><path d="M1437.5 557.15L1437.5 562.15" fill="transparent" stroke="#6E7079"></path><text dominant-baseline="central" text-anchor="end" transform="translate(21.1113 557.15)" fill="#6E7079" style="font-size: 12px; font-family: &quot;Microsoft YaHei&quot;;">0</text><text dominant-baseline="central" text-anchor="end" transform="translate(21.1113 474.2917)" fill="#6E7079" style="font-size: 12px; font-family: &quot;Microsoft YaHei&quot;;">30</text><text dominant-baseline="central" text-anchor="end" transform="translate(21.1113 391.4333)" fill="#6E7079" style="font-size: 12px; font-family: &quot;Microsoft YaHei&quot;;">60</text><text dominant-baseline="central" text-anchor="end" transform="translate(21.1113 308.575)" fill="#6E7079" style="font-size: 12px; font-family: &quot;Microsoft YaHei&quot;;">90</text><text dominant-baseline="central" text-anchor="end" transform="translate(21.1113 225.7167)" fill="#6E7079" style="font-size: 12px; font-family: &quot;Microsoft YaHei&quot;;">120</text><text dominant-baseline="central" text-anchor="end" transform="translate(21.1113 142.8583)" fill="#6E7079" style="font-size: 12px; font-family: &quot;Microsoft YaHei&quot;;">150</text><text dominant-baseline="central" text-anchor="end" transform="translate(21.1113 60)" fill="#6E7079" style="font-size: 12px; font-family: &quot;Microsoft YaHei&quot;;">180</text><text dominant-baseline="central" text-anchor="middle" y="6" transform="translate(68.2343 565.15)" fill="#6E7079" style="font-size: 12px; font-family: &quot;Microsoft YaHei&quot;;">Grass</text><text dominant-baseline="central" text-anchor="middle" y="6" transform="translate(146.4804 565.15)" fill="#6E7079" style="font-size: 12px; font-family: &quot;Microsoft YaHei&quot;;">Poison</text><text dominant-baseline="central" text-anchor="middle" y="6" transform="translate(224.7264 565.15)" fill="#6E7079" style="font-size: 12px; font-family: &quot;Microsoft YaHei&quot;;">Fire</text><text dominant-baseline="central" text-anchor="middle" y="6" transform="translate(302.9725 565.15)" fill="#6E7079" style="font-size: 12px; font-family: &quot;Microsoft YaHei&quot;;">Flying</text><text dominant-baseline="central" text-anchor="middle" y="6" transform="translate(381.2185 565.15)" fill="#6E7079" style="font-size: 12px; font-family: &quot;Microsoft YaHei&quot;;">Dragon</text><text dominant-baseline="central" text-anchor="middle" y="6" transform="translate(459.4645 565.15)" fill="#6E7079" style="font-size: 12px; font-family: &quot;Microsoft YaHei&quot;;">Water</text><text dominant-baseline="central" text-anchor="middle" y="6" transform="translate(537.7106 565.15)" fill="#6E7079" style="font-size: 12px; font-family: &quot;Microsoft YaHei&quot;;">Bug</text><text dominant-baseline="central" text-anchor="middle" y="6" transform="translate(615.9566 565.15)" fill="#6E7079" style="font-size: 12px; font-family: &quot;Microsoft YaHei&quot;;">Normal</text><text dominant-baseline="central" text-anchor="middle" y="6" transform="translate(694.2026 565.15)" fill="#6E7079" style="font-size: 12px; font-family: &quot;Microsoft YaHei&quot;;">Dark</text><text dominant-baseline="central" text-anchor="middle" y="6" transform="translate(772.4487 565.15)" fill="#6E7079" style="font-size: 12px; font-family: &quot;Microsoft YaHei&quot;;">Electric</text><text dominant-baseline="central" text-anchor="middle" y="6" transform="translate(850.6947 565.15)" fill="#6E7079" style="font-size: 12px; font-family: &quot;Microsoft YaHei&quot;;">Psychic</text><text dominant-baseline="central" text-anchor="middle" y="6" transform="translate(928.9408 565.15)" fill="#6E7079" style="font-size: 12px; font-family: &quot;Microsoft YaHei&quot;;">Ground</text><text dominant-baseline="central" text-anchor="middle" y="6" transform="translate(1007.1868 565.15)" fill="#6E7079" style="font-size: 12px; font-family: &quot;Microsoft YaHei&quot;;">Ice</text><text dominant-baseline="central" text-anchor="middle" y="6" transform="translate(1085.4328 565.15)" fill="#6E7079" style="font-size: 12px; font-family: &quot;Microsoft YaHei&quot;;">Steel</text><text dominant-baseline="central" text-anchor="middle" y="6" transform="translate(1163.6789 565.15)" fill="#6E7079" style="font-size: 12px; font-family: &quot;Microsoft YaHei&quot;;">Fairy</text><text dominant-baseline="central" text-anchor="middle" y="6" transform="translate(1241.9249 565.15)" fill="#6E7079" style="font-size: 12px; font-family: &quot;Microsoft YaHei&quot;;">Fighting</text><text dominant-baseline="central" text-anchor="middle" y="6" transform="translate(1320.1709 565.15)" fill="#6E7079" style="font-size: 12px; font-family: &quot;Microsoft YaHei&quot;;">Rock</text><text dominant-baseline="central" text-anchor="middle" y="6" transform="translate(1398.417 565.15)" fill="#6E7079" style="font-size: 12px; font-family: &quot;Microsoft YaHei&quot;;">Ghost</text><path d="M41.2395 557.15l53.9898 0l0 -132.5733l-53.9898 0Z" fill="#e7623d" fill-opacity="0.9828605744263086"></path><path d="M119.4855 557.15l53.9898 0l0 -44.1911l-53.9898 0Z" fill="#e7623d" fill-opacity="0.9828605744263086"></path><path d="M197.7315 557.15l53.9898 0l0 -99.43l-53.9898 0Z" fill="#e7623d" fill-opacity="0.9828605744263086"></path><path d="M275.9776 557.15l53.9898 0l0 -11.0478l-53.9898 0Z" fill="#e7623d" fill-opacity="0.9828605744263086"></path><path d="M354.2236 557.15l53.9898 0l0 -35.9053l-53.9898 0Z" fill="#e7623d" fill-opacity="0.9828605744263086"></path><path d="M432.4697 557.15l53.9898 0l0 -223.7175l-53.9898 0Z" fill="#e7623d" fill-opacity="0.9828605744263086"></path><path d="M510.7157 557.15l53.9898 0l0 -69.0486l-53.9898 0Z" fill="#e7623d" fill-opacity="0.9828605744263086"></path><path d="M588.9617 557.15l53.9898 0l0 -232.0033l-53.9898 0Z" fill="#e7623d" fill-opacity="0.9828605744263086"></path><path d="M667.2078 557.15l53.9898 0l0 -44.1911l-53.9898 0Z" fill="#e7623d" fill-opacity="0.9828605744263086"></path><path d="M745.4538 557.15l53.9898 0l0 -99.43l-53.9898 0Z" fill="#e7623d" fill-opacity="0.9828605744263086"></path><path d="M823.6998 557.15l53.9898 0l0 -129.8114l-53.9898 0Z" fill="#e7623d" fill-opacity="0.9828605744263086"></path><path d="M901.9459 557.15l53.9898 0l0 -46.9531l-53.9898 0Z" fill="#e7623d" fill-opacity="0.9828605744263086"></path><path d="M980.1919 557.15l53.9898 0l0 -58.0008l-53.9898 0Z" fill="#e7623d" fill-opacity="0.9828605744263086"></path><path d="M1058.4379 557.15l53.9898 0l0 -33.1433l-53.9898 0Z" fill="#e7623d" fill-opacity="0.9828605744263086"></path><path d="M1136.684 557.15l53.9898 0l0 -58.0008l-53.9898 0Z" fill="#e7623d" fill-opacity="0.9828605744263086"></path><path d="M1214.93 557.15l53.9898 0l0 -82.8583l-53.9898 0Z" fill="#e7623d" fill-opacity="0.9828605744263086"></path><path d="M1293.1761 557.15l53.9898 0l0 -52.4769l-53.9898 0Z" fill="rgb(231,98,61)" fill-opacity="0.980140982625661"></path><path d="M1371.4221 557.15l53.9898 0l0 -52.4769l-53.9898 0Z" fill="rgb(231,98,61)" fill-opacity="0.9828605744263086"></path><path d="M41.2395 424.5767l53.9898 0l0 -182.2883l-53.9898 0Z" fill="#2e9be3"></path><path d="M119.4855 512.9589l53.9898 0l0 -91.1442l-53.9898 0Z" fill="#2e9be3"></path><path d="M197.7315 457.72l53.9898 0l0 -107.7158l-53.9898 0Z" fill="#2e9be3"></path><path d="M275.9776 546.1022l53.9898 0l0 -16.5717l-53.9898 0Z" fill="#2e9be3"></path><path d="M354.2236 521.2447l53.9898 0l0 -99.43l-53.9898 0Z" fill="#2e9be3"></path><path d="M432.4697 333.4325l53.9898 0l0 -193.3361l-53.9898 0Z" fill="#2e9be3"></path><path d="M510.7157 488.1014l53.9898 0l0 -182.2883l-53.9898 0Z" fill="#2e9be3"></path><path d="M588.9617 325.1467l53.9898 0l0 -160.1928l-53.9898 0Z" fill="#2e9be3"></path><path d="M667.2078 512.9589l53.9898 0l0 -110.4778l-53.9898 0Z" fill="#2e9be3"></path><path d="M745.4538 457.72l53.9898 0l0 -102.1919l-53.9898 0Z" fill="#2e9be3"></path><path d="M823.6998 427.3386l53.9898 0l0 -96.6681l-53.9898 0Z" fill="#2e9be3"></path><path d="M901.9459 510.1969l53.9898 0l0 -80.0964l-53.9898 0Z" fill="#2e9be3"></path><path d="M980.1919 499.1492l53.9898 0l0 -58.0008l-53.9898 0Z" fill="#2e9be3"></path><path d="M1058.4379 524.0067l53.9898 0l0 -91.1442l-53.9898 0Z" fill="#2e9be3"></path><path d="M1136.684 499.1492l53.9898 0l0 -27.6194l-53.9898 0Z" fill="#2e9be3"></path><path d="M1214.93 474.2917l53.9898 0l0 -55.2389l-53.9898 0Z" fill="rgb(46,155,227)"></path><path d="M1293.1761 504.6731l53.9898 0l0 -149.145l-53.9898 0Z" fill="rgb(46,155,227)"></path><path d="M1371.4221 504.6731l53.9898 0l0 -77.3344l-53.9898 0Z" fill="rgb(46,155,227)"></path><path d="M41.2395 242.2883l53.9898 0l0 -107.7158l-53.9898 0Z" fill="#f4cc1b" fill-opacity="0.9918775045325469"></path><path d="M119.4855 421.8147l53.9898 0l0 -129.8114l-53.9898 0Z" fill="#f4cc1b" fill-opacity="0.9918775045325469"></path><path d="M197.7315 350.0042l53.9898 0l0 -58.0008l-53.9898 0Z" fill="#f4cc1b" fill-opacity="0.9918775045325469"></path><path d="M275.9776 529.5306l53.9898 0l0 -353.5289l-53.9898 0Z" fill="#f4cc1b" fill-opacity="0.9918775045325469"></path><path d="M354.2236 421.8147l53.9898 0l0 -121.5256l-53.9898 0Z" fill="#f4cc1b" fill-opacity="0.9918775045325469"></path><path d="M432.4697 140.0964l53.9898 0l0 -71.8106l-53.9898 0Z" fill="#f4cc1b" fill-opacity="0.9918775045325469"></path><path d="M510.7157 305.8131l53.9898 0l0 -24.8575l-53.9898 0Z" fill="#f4cc1b" fill-opacity="0.9918775045325469"></path><path d="M588.9617 164.9539l53.9898 0l0 -49.715l-53.9898 0Z" fill="#f4cc1b" fill-opacity="0.9918775045325469"></path><path d="M667.2078 402.4811l53.9898 0l0 -91.1442l-53.9898 0Z" fill="#f4cc1b" fill-opacity="0.9918775045325469"></path><path d="M745.4538 355.5281l53.9898 0l0 -35.9053l-53.9898 0Z" fill="#f4cc1b" fill-opacity="0.9918775045325469"></path><path d="M823.6998 330.6706l53.9898 0l0 -143.6211l-53.9898 0Z" fill="#f4cc1b" fill-opacity="0.9918775045325469"></path><path d="M901.9459 430.1006l53.9898 0l0 -121.5256l-53.9898 0Z" fill="#f4cc1b" fill-opacity="0.9918775045325469"></path><path d="M980.1919 441.1483l53.9898 0l0 -60.7628l-53.9898 0Z" fill="#f4cc1b" fill-opacity="0.9918775045325469"></path><path d="M1058.4379 432.8625l53.9898 0l0 -110.4778l-53.9898 0Z" fill="#f4cc1b" fill-opacity="0.9918775045325469"></path><path d="M1136.684 471.5297l53.9898 0l0 -118.7636l-53.9898 0Z" fill="#f4cc1b" fill-opacity="0.9918775045325469"></path><path d="M1214.93 419.0528l53.9898 0l0 -116.0017l-53.9898 0Z" fill="#f4cc1b" fill-opacity="0.9918775045325469"></path><path d="M1293.1761 355.5281l53.9898 0l0 -55.2389l-53.9898 0Z" fill="rgb(244,204,27)" fill-opacity="0.990324042875921"></path><path d="M1371.4221 427.3386l53.9898 0l0 -110.4778l-53.9898 0Z" fill="rgb(244,204,27)" fill-opacity="0.9834147567056133"></path><path d="M-5 -5l342.5625 0l0 24l-342.5625 0Z" transform="translate(574.7188 5)" fill="rgb(0,0,0)" fill-opacity="0" stroke="#ccc" stroke-width="0"></path><path d="M3.5 0L21.5 0A3.5 3.5 0 0 1 25 3.5L25 10.5A3.5 3.5 0 0 1 21.5 14L3.5 14A3.5 3.5 0 0 1 0 10.5L0 3.5A3.5 3.5 0 0 1 3.5 0" transform="translate(574.7188 5)" fill="#e7623d"></path><text dominant-baseline="central" text-anchor="start" xml:space="preserve" x="30" y="7" transform="translate(574.7188 5)" fill="#333" style="font-size: 12px; font-family: &quot;Microsoft YaHei&quot;;">Pure Type</text><path d="M0 0l86.4961 0l0 14l-86.4961 0Z" transform="translate(574.7188 5)" fill="transparent"></path><path d="M3.5 0L21.5 0A3.5 3.5 0 0 1 25 3.5L25 10.5A3.5 3.5 0 0 1 21.5 14L3.5 14A3.5 3.5 0 0 1 0 10.5L0 3.5A3.5 3.5 0 0 1 3.5 0" transform="translate(671.2148 5)" fill="#2e9be3"></path><text dominant-baseline="central" text-anchor="start" xml:space="preserve" x="30" y="7" transform="translate(671.2148 5)" fill="#333" style="font-size: 12px; font-family: &quot;Microsoft YaHei&quot;;">Primary Type</text><path d="M0 0l104.9883 0l0 14l-104.9883 0Z" transform="translate(671.2148 5)" fill="transparent"></path><path d="M3.5 0L21.5 0A3.5 3.5 0 0 1 25 3.5L25 10.5A3.5 3.5 0 0 1 21.5 14L3.5 14A3.5 3.5 0 0 1 0 10.5L0 3.5A3.5 3.5 0 0 1 3.5 0" transform="translate(786.2031 5)" fill="#f4cc1b"></path><text dominant-baseline="central" text-anchor="start" xml:space="preserve" x="30" y="7" transform="translate(786.2031 5)" fill="#333" style="font-size: 12px; font-family: &quot;Microsoft YaHei&quot;;">Secondary Type</text><path d="M0 0l121.0781 0l0 14l-121.0781 0Z" transform="translate(786.2031 5)" fill="transparent"></path></g></svg>