<svg xmlns="http://www.w3.org/2000/svg" xmlns:xlink="http://www.w3.org/1999/xlink" version="1.1" baseProfile="full" width="987" height="495" style="position: absolute; left: 0px; top: 0px; user-select: none;"><rect width="987" height="495" x="0" y="0" fill="none"></rect><g><path d="M116.6471 460.5L947.52 460.5" fill="transparent" stroke="#E0E6F1"></path><path d="M116.6471 360.5L947.52 360.5" fill="transparent" stroke="#E0E6F1"></path><path d="M116.6471 260.5L947.52 260.5" fill="transparent" stroke="#E0E6F1"></path><path d="M116.6471 160.5L947.52 160.5" fill="transparent" stroke="#E0E6F1"></path><path d="M116.6471 60.5L947.52 60.5" fill="transparent" stroke="#E0E6F1"></path><path d="M116.6471 460.5L947.52 460.5" fill="transparent" stroke="#6E7079" stroke-linecap="round"></path><path d="M116.5 460.15L116.5 465.15" fill="transparent" stroke="#6E7079"></path><path d="M283.5 460.15L283.5 465.15" fill="transparent" stroke="#6E7079"></path><path d="M449.5 460.15L449.5 465.15" fill="transparent" stroke="#6E7079"></path><path d="M615.5 460.15L615.5 465.15" fill="transparent" stroke="#6E7079"></path><path d="M781.5 460.15L781.5 465.15" fill="transparent" stroke="#6E7079"></path><path d="M947.5 460.15L947.5 465.15" fill="transparent" stroke="#6E7079"></path><text dominant-baseline="central" text-anchor="end" transform="translate(108.6471 460.15)" fill="#6E7079" style="font-size: 12px; font-family: &quot;Microsoft YaHei&quot;;">0</text><text dominant-baseline="central" text-anchor="end" transform="translate(108.6471 360.1125)" fill="#6E7079" style="font-size: 12px; font-family: &quot;Microsoft YaHei&quot;;">2,000,000,000</text><text dominant-baseline="central" text-anchor="end" transform="translate(108.6471 260.075)" fill="#6E7079" style="font-size: 12px; font-family: &quot;Microsoft YaHei&quot;;">4,000,000,000</text><text dominant-baseline="central" text-anchor="end" transform="translate(108.6471 160.0375)" fill="#6E7079" style="font-size: 12px; font-family: &quot;Microsoft YaHei&quot;;">6,000,000,000</text><text dominant-baseline="central" text-anchor="end" transform="translate(108.6471 60)" fill="#6E7079" style="font-size: 12px; font-family: &quot;Microsoft YaHei&quot;;">8,000,000,000</text><text dominant-baseline="central" text-anchor="middle" y="6" transform="translate(116.6471 468.15)" fill="#6E7079" style="font-size: 12px; font-family: &quot;Microsoft YaHei&quot;;">1970</text><text dominant-baseline="central" text-anchor="middle" y="6" transform="translate(282.8217 468.15)" fill="#6E7079" style="font-size: 12px; font-family: &quot;Microsoft YaHei&quot;;">1980</text><text dominant-baseline="central" text-anchor="middle" y="6" transform="translate(448.9963 468.15)" fill="#6E7079" style="font-size: 12px; font-family: &quot;Microsoft YaHei&quot;;">1990</text><text dominant-baseline="central" text-anchor="middle" y="6" transform="translate(615.1708 468.15)" fill="#6E7079" style="font-size: 12px; font-family: &quot;Microsoft YaHei&quot;;">2000</text><text dominant-baseline="central" text-anchor="middle" y="6" transform="translate(781.3454 468.15)" fill="#6E7079" style="font-size: 12px; font-family: &quot;Microsoft YaHei&quot;;">2010</text><text dominant-baseline="central" text-anchor="middle" y="6" transform="translate(947.52 468.15)" fill="#6E7079" style="font-size: 12px; font-family: &quot;Microsoft YaHei&quot;;">2020</text><g clip-path="url(#zr1-c0)"><path d="M116.6471 352.8645L282.8217 328.3339L448.9963 299.5616L615.1708 273.3255L781.3454 249.0688L947.52 226.9082L947.52 460.15L781.3454 460.15L615.1708 460.15L448.9963 460.15L282.8217 460.15L116.6471 460.15Z" fill="#f3a56b" fill-opacity="0.7"></path></g><g clip-path="url(#zr1-c1)"><path d="M116.6471 320.056L282.8217 293.6945L448.9963 263.5321L615.1708 237.0072L781.3454 212.2743L947.52 189.6046L947.52 226.9082L781.3454 249.0688L615.1708 273.3255L448.9963 299.5616L282.8217 328.3339L116.6471 352.8645Z" fill="#579df4" fill-opacity="0.7"></path></g><g clip-path="url(#zr1-c2)"><path d="M116.6471 301.7769L282.8217 269.6087L448.9963 231.6126L615.1708 196.0445L781.3454 159.4931L947.52 121.5455L947.52 189.6046L781.3454 212.2743L615.1708 237.0072L448.9963 263.5321L282.8217 293.6945L116.6471 320.056Z" fill="#f6d44c" fill-opacity="0.7"></path></g><g clip-path="url(#zr1-c3)"><path d="M116.6471 300.8025L282.8217 268.4622L448.9963 230.2749L615.1708 194.4828L781.3454 157.6373L947.52 119.348L947.52 121.5455L781.3454 159.4931L615.1708 196.0445L448.9963 231.6126L282.8217 269.6087L116.6471 301.7769Z" fill="#f1a6c3" fill-opacity="0.7"></path></g><g clip-path="url(#zr1-c4)"><path d="M116.6471 285.0249L282.8217 250.0407L448.9963 209.2037L615.1708 170.1702L781.3454 130.4911L947.52 89.6251L947.52 119.348L781.3454 157.6373L615.1708 194.4828L448.9963 230.2749L282.8217 268.4622L116.6471 300.8025Z" fill="#fb6060" fill-opacity="0.7"></path></g><g clip-path="url(#zr1-c5)"><path d="M116.6471 275.3739L282.8217 237.9467L448.9963 194.3408L615.1708 152.682L781.3454 110.8298L947.52 68.0405L947.52 89.6251L781.3454 130.4911L615.1708 170.1702L448.9963 209.2037L282.8217 250.0407L116.6471 285.0249Z" fill="#67dfbe" fill-opacity="0.7"></path></g><g clip-path="url(#zr1-c0)"><path d="M116.6471 352.8645L282.8217 328.3339L448.9963 299.5616L615.1708 273.3255L781.3454 249.0688L947.52 226.9082" fill="transparent" stroke="#f3a56b" stroke-width="3" stroke-linejoin="bevel"></path></g><g clip-path="url(#zr1-c1)"><path d="M116.6471 320.056L282.8217 293.6945L448.9963 263.5321L615.1708 237.0072L781.3454 212.2743L947.52 189.6046" fill="transparent" stroke="#579df4" stroke-width="3" stroke-linejoin="bevel"></path></g><g clip-path="url(#zr1-c2)"><path d="M116.6471 301.7769L282.8217 269.6087L448.9963 231.6126L615.1708 196.0445L781.3454 159.4931L947.52 121.5455" fill="transparent" stroke="#f6d44c" stroke-width="3" stroke-linejoin="bevel"></path></g><g clip-path="url(#zr1-c3)"><path d="M116.6471 300.8025L282.8217 268.4622L448.9963 230.2749L615.1708 194.4828L781.3454 157.6373L947.52 119.348" fill="transparent" stroke="#f1a6c3" stroke-width="3" stroke-linejoin="bevel"></path></g><g clip-path="url(#zr1-c4)"><path d="M116.6471 285.0249L282.8217 250.0407L448.9963 209.2037L615.1708 170.1702L781.3454 130.4911L947.52 89.6251" fill="transparent" stroke="#fb6060" stroke-width="3" stroke-linejoin="bevel"></path></g><g clip-path="url(#zr1-c5)"><path d="M116.6471 275.3739L282.8217 237.9467L448.9963 194.3408L615.1708 152.682L781.3454 110.8298L947.52 68.0405" fill="transparent" stroke="#67dfbe" stroke-width="3" stroke-linejoin="bevel"></path></g><path d="M1 0A1 1 0 1 1 1 -0.0001" transform="matrix(3,0,0,3,116.6471,352.8645)" fill="#fff" stroke="#f3a56b" stroke-width="0.6666666666666666"></path><path d="M1 0A1 1 0 1 1 1 -0.0001" transform="matrix(3,0,0,3,282.8217,328.3339)" fill="#fff" stroke="#f3a56b" stroke-width="0.6666666666666666"></path><path d="M1 0A1 1 0 1 1 1 -0.0001" transform="matrix(3,0,0,3,448.9963,299.5616)" fill="#fff" stroke="#f3a56b" stroke-width="0.6666666666666666"></path><path d="M1 0A1 1 0 1 1 1 -0.0001" transform="matrix(3,0,0,3,615.1708,273.3255)" fill="#fff" stroke="#f3a56b" stroke-width="0.6666666666666666"></path><path d="M1 0A1 1 0 1 1 1 -0.0001" transform="matrix(2.836,0,0,2.836,781.3454,249.0688)" fill="#fff" stroke="#f3a56b" stroke-width="0.7051977342768109"></path><path d="M1 0A1 1 0 1 1 1 -0.0001" transform="matrix(0,0,0,0,947.52,226.9082)" fill="#fff" stroke="#f3a56b" stroke-width="0"></path><path d="M1 0A1 1 0 1 1 1 -0.0001" transform="matrix(3,0,0,3,116.6471,320.056)" fill="#fff" stroke="#579df4" stroke-width="0.6666666666666666"></path><path d="M1 0A1 1 0 1 1 1 -0.0001" transform="matrix(3,0,0,3,282.8217,293.6945)" fill="#fff" stroke="#579df4" stroke-width="0.6666666666666666"></path><path d="M1 0A1 1 0 1 1 1 -0.0001" transform="matrix(3,0,0,3,448.9963,263.5321)" fill="#fff" stroke="#579df4" stroke-width="0.6666666666666666"></path><path d="M1 0A1 1 0 1 1 1 -0.0001" transform="matrix(3,0,0,3,615.1708,237.0072)" fill="#fff" stroke="#579df4" stroke-width="0.6666666666666666"></path><path d="M1 0A1 1 0 1 1 1 -0.0001" transform="matrix(2.836,0,0,2.836,781.3454,212.2743)" fill="#fff" stroke="#579df4" stroke-width="0.7051977342768109"></path><path d="M1 0A1 1 0 1 1 1 -0.0001" transform="matrix(0,0,0,0,947.52,189.6046)" fill="#fff" stroke="#579df4" stroke-width="0"></path><path d="M1 0A1 1 0 1 1 1 -0.0001" transform="matrix(3,0,0,3,116.6471,301.7769)" fill="#fff" stroke="#f6d44c" stroke-width="0.6666666666666666"></path><path d="M1 0A1 1 0 1 1 1 -0.0001" transform="matrix(3,0,0,3,282.8217,269.6087)" fill="#fff" stroke="#f6d44c" stroke-width="0.6666666666666666"></path><path d="M1 0A1 1 0 1 1 1 -0.0001" transform="matrix(3,0,0,3,448.9963,231.6126)" fill="#fff" stroke="#f6d44c" stroke-width="0.6666666666666666"></path><path d="M1 0A1 1 0 1 1 1 -0.0001" transform="matrix(3,0,0,3,615.1708,196.0445)" fill="#fff" stroke="#f6d44c" stroke-width="0.6666666666666666"></path><path d="M1 0A1 1 0 1 1 1 -0.0001" transform="matrix(2.836,0,0,2.836,781.3454,159.4931)" fill="#fff" stroke="#f6d44c" stroke-width="0.7051977342768109"></path><path d="M1 0A1 1 0 1 1 1 -0.0001" transform="matrix(0,0,0,0,947.52,121.5455)" fill="#fff" stroke="#f6d44c" stroke-width="0"></path><path d="M1 0A1 1 0 1 1 1 -0.0001" transform="matrix(3,0,0,3,116.6471,300.8025)" fill="#fff" stroke="#f1a6c3" stroke-width="0.6666666666666666"></path><path d="M1 0A1 1 0 1 1 1 -0.0001" transform="matrix(3,0,0,3,282.8217,268.4622)" fill="#fff" stroke="#f1a6c3" stroke-width="0.6666666666666666"></path><path d="M1 0A1 1 0 1 1 1 -0.0001" transform="matrix(3,0,0,3,448.9963,230.2749)" fill="#fff" stroke="#f1a6c3" stroke-width="0.6666666666666666"></path><path d="M1 0A1 1 0 1 1 1 -0.0001" transform="matrix(3,0,0,3,615.1708,194.4828)" fill="#fff" stroke="#f1a6c3" stroke-width="0.6666666666666666"></path><path d="M1 0A1 1 0 1 1 1 -0.0001" transform="matrix(2.836,0,0,2.836,781.3454,157.6373)" fill="#fff" stroke="#f1a6c3" stroke-width="0.7051977342768109"></path><path d="M1 0A1 1 0 1 1 1 -0.0001" transform="matrix(0,0,0,0,947.52,119.348)" fill="#fff" stroke="#f1a6c3" stroke-width="0"></path><path d="M1 0A1 1 0 1 1 1 -0.0001" transform="matrix(3,0,0,3,116.6471,285.0249)" fill="#fff" stroke="#fb6060" stroke-width="0.6666666666666666"></path><path d="M1 0A1 1 0 1 1 1 -0.0001" transform="matrix(3,0,0,3,282.8217,250.0407)" fill="#fff" stroke="#fb6060" stroke-width="0.6666666666666666"></path><path d="M1 0A1 1 0 1 1 1 -0.0001" transform="matrix(3,0,0,3,448.9963,209.2037)" fill="#fff" stroke="#fb6060" stroke-width="0.6666666666666666"></path><path d="M1 0A1 1 0 1 1 1 -0.0001" transform="matrix(3,0,0,3,615.1708,170.1702)" fill="#fff" stroke="#fb6060" stroke-width="0.6666666666666666"></path><path d="M1 0A1 1 0 1 1 1 -0.0001" transform="matrix(2.836,0,0,2.836,781.3454,130.4911)" fill="#fff" stroke="#fb6060" stroke-width="0.7051977342768109"></path><path d="M1 0A1 1 0 1 1 1 -0.0001" transform="matrix(0,0,0,0,947.52,89.6251)" fill="#fff" stroke="#fb6060" stroke-width="0"></path><path d="M1 0A1 1 0 1 1 1 -0.0001" transform="matrix(3,0,0,3,116.6471,275.3739)" fill="#fff" stroke="#67dfbe" stroke-width="0.6666666666666666"></path><path d="M1 0A1 1 0 1 1 1 -0.0001" transform="matrix(3,0,0,3,282.8217,237.9467)" fill="#fff" stroke="#67dfbe" stroke-width="0.6666666666666666"></path><path d="M1 0A1 1 0 1 1 1 -0.0001" transform="matrix(3,0,0,3,448.9963,194.3408)" fill="#fff" stroke="#67dfbe" stroke-width="0.6666666666666666"></path><path d="M1 0A1 1 0 1 1 1 -0.0001" transform="matrix(3,0,0,3,615.1708,152.682)" fill="#fff" stroke="#67dfbe" stroke-width="0.6666666666666666"></path><path d="M1 0A1 1 0 1 1 1 -0.0001" transform="matrix(2.836,0,0,2.836,781.3454,110.8298)" fill="#fff" stroke="#67dfbe" stroke-width="0.7051977342768109"></path><path d="M1 0A1 1 0 1 1 1 -0.0001" transform="matrix(0,0,0,0,947.52,68.0405)" fill="#fff" stroke="#67dfbe" stroke-width="0"></path><path d="M-5 -5l558.7734 0l0 23.2l-558.7734 0Z" transform="translate(219.1133 5)" fill="rgb(0,0,0)" fill-opacity="0" stroke="#ccc" stroke-width="0"></path><path d="M0 7L25 7" transform="translate(220.1133 4.6)" fill="#000" stroke="#f3a56b" stroke-width="2" stroke-linecap="butt" stroke-miterlimit="10"></path><path d="M18.1 7A5.6 5.6 0 1 1 18.1 6.9994" transform="translate(220.1133 4.6)" fill="#fff" stroke="#f3a56b" stroke-width="2" stroke-linecap="butt" stroke-miterlimit="10"></path><text dominant-baseline="central" text-anchor="start" x="30" y="7" transform="translate(220.1133 4.6)" fill="#333" style="font-size: 12px; font-family: &quot;Microsoft YaHei&quot;;">Asia</text><path d="M-1 0.4l54.8242 0l0 13.2l-54.8242 0Z" transform="translate(220.1133 4.6)" fill="transparent"></path><path d="M0 7L25 7" transform="translate(284.9375 4.6)" fill="#000" stroke="#579df4" stroke-width="2" stroke-linecap="butt" stroke-miterlimit="10"></path><path d="M18.1 7A5.6 5.6 0 1 1 18.1 6.9994" transform="translate(284.9375 4.6)" fill="#fff" stroke="#579df4" stroke-width="2" stroke-linecap="butt" stroke-miterlimit="10"></path><text dominant-baseline="central" text-anchor="start" x="30" y="7" transform="translate(284.9375 4.6)" fill="#333" style="font-size: 12px; font-family: &quot;Microsoft YaHei&quot;;">Europe</text><path d="M-1 0.4l71.5059 0l0 13.2l-71.5059 0Z" transform="translate(284.9375 4.6)" fill="transparent"></path><path d="M0 7L25 7" transform="translate(366.4434 4.6)" fill="#000" stroke="#f6d44c" stroke-width="2" stroke-linecap="butt" stroke-miterlimit="10"></path><path d="M18.1 7A5.6 5.6 0 1 1 18.1 6.9994" transform="translate(366.4434 4.6)" fill="#fff" stroke="#f6d44c" stroke-width="2" stroke-linecap="butt" stroke-miterlimit="10"></path><text dominant-baseline="central" text-anchor="start" x="30" y="7" transform="translate(366.4434 4.6)" fill="#333" style="font-size: 12px; font-family: &quot;Microsoft YaHei&quot;;">Africa</text><path d="M-1 0.4l64.0293 0l0 13.2l-64.0293 0Z" transform="translate(366.4434 4.6)" fill="transparent"></path><path d="M0 7L25 7" transform="translate(440.4727 4.6)" fill="#000" stroke="#f1a6c3" stroke-width="2" stroke-linecap="butt" stroke-miterlimit="10"></path><path d="M18.1 7A5.6 5.6 0 1 1 18.1 6.9994" transform="translate(440.4727 4.6)" fill="#fff" stroke="#f1a6c3" stroke-width="2" stroke-linecap="butt" stroke-miterlimit="10"></path><text dominant-baseline="central" text-anchor="start" x="30" y="7" transform="translate(440.4727 4.6)" fill="#333" style="font-size: 12px; font-family: &quot;Microsoft YaHei&quot;;">Oceania</text><path d="M-1 0.4l77.459 0l0 13.2l-77.459 0Z" transform="translate(440.4727 4.6)" fill="transparent"></path><path d="M0 7L25 7" transform="translate(527.9316 4.6)" fill="#000" stroke="#fb6060" stroke-width="2" stroke-linecap="butt" stroke-miterlimit="10"></path><path d="M18.1 7A5.6 5.6 0 1 1 18.1 6.9994" transform="translate(527.9316 4.6)" fill="#fff" stroke="#fb6060" stroke-width="2" stroke-linecap="butt" stroke-miterlimit="10"></path><text dominant-baseline="central" text-anchor="start" xml:space="preserve" x="30" y="7" transform="translate(527.9316 4.6)" fill="#333" style="font-size: 12px; font-family: &quot;Microsoft YaHei&quot;;">North America</text><path d="M-1 0.4l115.6738 0l0 13.2l-115.6738 0Z" transform="translate(527.9316 4.6)" fill="transparent"></path><path d="M0 7L25 7" transform="translate(653.6055 4.6)" fill="#000" stroke="#67dfbe" stroke-width="2" stroke-linecap="butt" stroke-miterlimit="10"></path><path d="M18.1 7A5.6 5.6 0 1 1 18.1 6.9994" transform="translate(653.6055 4.6)" fill="#fff" stroke="#67dfbe" stroke-width="2" stroke-linecap="butt" stroke-miterlimit="10"></path><text dominant-baseline="central" text-anchor="start" xml:space="preserve" x="30" y="7" transform="translate(653.6055 4.6)" fill="#333" style="font-size: 12px; font-family: &quot;Microsoft YaHei&quot;;">South America</text><path d="M-1 0.4l115.2813 0l0 13.2l-115.2812 0Z" transform="translate(653.6055 4.6)" fill="transparent"></path></g><defs><clipPath id="zr1-c0"><path d="M115 58.5l825.815 0l0 403.15l-825.815 0Z" fill="#000"></path></clipPath><clipPath id="zr1-c1"><path d="M115 58.5l825.815 0l0 403.15l-825.815 0Z" fill="#000"></path></clipPath><clipPath id="zr1-c2"><path d="M115 58.5l825.815 0l0 403.15l-825.815 0Z" fill="#000"></path></clipPath><clipPath id="zr1-c3"><path d="M115 58.5l825.815 0l0 403.15l-825.815 0Z" fill="#000"></path></clipPath><clipPath id="zr1-c4"><path d="M115 58.5l825.815 0l0 403.15l-825.815 0Z" fill="#000"></path></clipPath><clipPath id="zr1-c5"><path d="M115 58.5l825.815 0l0 403.15l-825.815 0Z" fill="#000"></path></clipPath></defs></svg>