<svg xmlns="http://www.w3.org/2000/svg" xmlns:xlink="http://www.w3.org/1999/xlink" version="1.1" baseProfile="full" width="1482" height="297" style="position: absolute; left: 0px; top: 0px; user-select: none;"><rect width="1482" height="297" x="0" y="0" fill="none"></rect><g><path d="M100 273.5L1450 273.5" fill="transparent" stroke="#E0E6F1"></path><path d="M100 225.5L1450 225.5" fill="transparent" stroke="#E0E6F1"></path><path d="M100 176.5L1450 176.5" fill="transparent" stroke="#E0E6F1"></path><path d="M100 128.5L1450 128.5" fill="transparent" stroke="#E0E6F1"></path><path d="M100 80.5L1450 80.5" fill="transparent" stroke="#E0E6F1"></path><path d="M100 32.5L1450 32.5" fill="transparent" stroke="#E0E6F1"></path><path d="M100 273.5L1450 273.5" fill="transparent" stroke="#6E7079" stroke-linecap="round"></path><path d="M100.5 273L100.5 278" fill="transparent" stroke="#6E7079"></path><path d="M359.5 273L359.5 278" fill="transparent" stroke="#6E7079"></path><path d="M619.5 273L619.5 278" fill="transparent" stroke="#6E7079"></path><path d="M879.5 273L879.5 278" fill="transparent" stroke="#6E7079"></path><path d="M1138.5 273L1138.5 278" fill="transparent" stroke="#6E7079"></path><path d="M1398.5 273L1398.5 278" fill="transparent" stroke="#6E7079"></path><path d="M1450.5 273L1450.5 278" fill="transparent" stroke="#6E7079"></path><text dominant-baseline="central" text-anchor="end" transform="translate(92 273)" fill="#6E7079" style="font-size: 12px; font-family: &quot;Microsoft YaHei&quot;;">0</text><text dominant-baseline="central" text-anchor="end" transform="translate(92 224.8)" fill="#6E7079" style="font-size: 12px; font-family: &quot;Microsoft YaHei&quot;;">300,000,000</text><text dominant-baseline="central" text-anchor="end" transform="translate(92 176.6)" fill="#6E7079" style="font-size: 12px; font-family: &quot;Microsoft YaHei&quot;;">600,000,000</text><text dominant-baseline="central" text-anchor="end" transform="translate(92 128.4)" fill="#6E7079" style="font-size: 12px; font-family: &quot;Microsoft YaHei&quot;;">900,000,000</text><text dominant-baseline="central" text-anchor="end" transform="translate(92 80.2)" fill="#6E7079" style="font-size: 12px; font-family: &quot;Microsoft YaHei&quot;;">1,200,000,000</text><text dominant-baseline="central" text-anchor="end" transform="translate(92 32)" fill="#6E7079" style="font-size: 12px; font-family: &quot;Microsoft YaHei&quot;;">1,500,000,000</text><text dominant-baseline="central" text-anchor="middle" y="6" transform="translate(100 281)" fill="#6E7079" style="font-size: 12px; font-family: &quot;Microsoft YaHei&quot;;">1970</text><text dominant-baseline="central" text-anchor="middle" y="6" transform="translate(359.6154 281)" fill="#6E7079" style="font-size: 12px; font-family: &quot;Microsoft YaHei&quot;;">1980</text><text dominant-baseline="central" text-anchor="middle" y="6" transform="translate(619.2308 281)" fill="#6E7079" style="font-size: 12px; font-family: &quot;Microsoft YaHei&quot;;">1990</text><text dominant-baseline="central" text-anchor="middle" y="6" transform="translate(878.8462 281)" fill="#6E7079" style="font-size: 12px; font-family: &quot;Microsoft YaHei&quot;;">2000</text><text dominant-baseline="central" text-anchor="middle" y="6" transform="translate(1138.4615 281)" fill="#6E7079" style="font-size: 12px; font-family: &quot;Microsoft YaHei&quot;;">2010</text><text dominant-baseline="central" text-anchor="middle" y="6" transform="translate(1398.0769 281)" fill="#6E7079" style="font-size: 12px; font-family: &quot;Microsoft YaHei&quot;;">2020</text><text dominant-baseline="central" text-anchor="middle" y="6" transform="translate(1450 281)" fill="#6E7079" style="font-size: 12px; font-family: &quot;Microsoft YaHei&quot;;">2022</text><g clip-path="url(#zr3-c0)"><path d="M100 140.8461L359.6154 115.1655L619.2308 87.6382L878.8461 69.9014L1138.4615 56.3906L1268.2693 49.0764L1398.0769 44.0613L1450 43.9074" fill="transparent" stroke="rgb(169,207,120)" stroke-width="3" stroke-linejoin="bevel"></path></g><path d="M1 0A1 1 0 1 1 1 -0.0001" transform="matrix(3,0,0,3,100,140.8461)" fill="#fff" stroke="#a9cf78" stroke-width="0.6666666666666666"></path><path d="M1 0A1 1 0 1 1 1 -0.0001" transform="matrix(3,0,0,3,359.6154,115.1655)" fill="#fff" stroke="#a9cf78" stroke-width="0.6666666666666666"></path><path d="M1 0A1 1 0 1 1 1 -0.0001" transform="matrix(3,0,0,3,619.2308,87.6382)" fill="#fff" stroke="#a9cf78" stroke-width="0.6666666666666666"></path><path d="M1 0A1 1 0 1 1 1 -0.0001" transform="matrix(3,0,0,3,878.8461,69.9014)" fill="#fff" stroke="#a9cf78" stroke-width="0.6666666666666666"></path><path d="M1 0A1 1 0 1 1 1 -0.0001" transform="matrix(3,0,0,3,1138.4615,56.3906)" fill="rgb(255,255,255)" stroke="#a9cf78" stroke-width="0.6666666666666666"></path><path d="M1 0A1 1 0 1 1 1 -0.0001" transform="matrix(3,0,0,3,1268.2693,49.0764)" fill="rgb(255,255,255)" stroke="#a9cf78" stroke-width="0.6666666666666666"></path><path d="M1 0A1 1 0 1 1 1 -0.0001" transform="matrix(3,0,0,3,1398.0769,44.0613)" fill="rgb(255,255,255)" stroke="#a9cf78" stroke-width="0.6666666666666666"></path><path d="M1 0A1 1 0 1 1 1 -0.0001" transform="matrix(3,0,0,3,1450,43.9074)" fill="#fff" stroke="#a9cf78" stroke-width="0.6666666666666666"></path><path d="M-131.4922 -5l262.9844 0l0 28l-262.9844 0Z" transform="translate(741 5)" fill="rgb(0,0,0)" fill-opacity="0" stroke="#ccc" stroke-width="0"></path><text dominant-baseline="central" text-anchor="middle" xml:space="preserve" y="9" transform="translate(741 5)" fill="#464646" style="font-size: 18px; font-family: &quot;Microsoft YaHei&quot;; font-weight: bold;">Population Change of China</text></g><defs><clipPath id="zr3-c0"><path d="M98 30.5l1354 0l0 244l-1354 0Z" fill="#000"></path></clipPath></defs></svg>