<svg xmlns="http://www.w3.org/2000/svg" xmlns:xlink="http://www.w3.org/1999/xlink" version="1.1" baseProfile="full" width="495" height="495" style="position: absolute; left: 0px; top: 0px; user-select: none;"><rect width="495" height="495" x="0" y="0" fill="none"></rect><g><path d="M247.5 142.3125A105.1875 105.1875 0 1 1 189.9482 335.5466L247.5 247.5Z" fill="#f3a56b" stroke="white" stroke-linejoin="bevel"></path><path d="M247.5 37.125A210.375 210.375 0 0 1 437.1895 156.53L342.3448 202.015A105.1875 105.1875 0 0 0 247.5 142.3125Z" fill="rgb(246,187,144)" stroke="white" stroke-linejoin="bevel"></path><path d="M437.1895 156.53A210.375 210.375 0 0 1 412.4508 378.0713L329.9754 312.7856A105.1875 105.1875 0 0 0 342.3448 202.015Z" fill="rgb(246,187,144)" stroke="white" stroke-linejoin="bevel"></path><path d="M412.4508 378.0713A210.375 210.375 0 0 1 380.454 410.5364L313.977 329.0182A105.1875 105.1875 0 0 0 329.9754 312.7856Z" fill="rgb(246,187,144)" stroke="white" stroke-linejoin="bevel"></path><path d="M380.454 410.5364A210.375 210.375 0 0 1 348.0412 432.2948L297.7706 339.8974A105.1875 105.1875 0 0 0 313.977 329.0182Z" fill="rgb(246,187,144)" stroke="white" stroke-linejoin="bevel"></path><path d="M348.0412 432.2948A210.375 210.375 0 0 1 322.2749 444.1376L284.8875 345.8188A105.1875 105.1875 0 0 0 297.7706 339.8974Z" fill="rgb(246,187,144)" stroke="white" stroke-linejoin="bevel"></path><path d="M322.275 444.1376A210.375 210.375 0 0 1 132.3964 423.5932L189.9482 335.5466A105.1875 105.1875 0 0 0 284.8875 345.8188Z" fill="rgb(246,187,144)" fill-opacity="0.6" stroke="white" stroke-opacity="0.6" stroke-linejoin="bevel"></path><path d="M189.9482 335.5466A105.1875 105.1875 0 0 1 150.8736 289.0662L247.5 247.5Z" fill="#579df4" stroke="white" stroke-linejoin="bevel"></path><path d="M132.3964 423.5932A210.375 210.375 0 0 1 113.1065 409.3519L180.3032 328.4259A105.1875 105.1875 0 0 0 189.9482 335.5466Z" fill="rgb(129,181,246)" stroke="white" stroke-linejoin="bevel"></path><path d="M113.1065 409.3519A210.375 210.375 0 0 1 102.7709 400.1798L175.1355 323.8399A105.1875 105.1875 0 0 0 180.3032 328.4259Z" fill="rgb(129,181,246)" stroke="white" stroke-linejoin="bevel"></path><path d="M102.7709 400.1798A210.375 210.375 0 0 1 94.8572 392.2681L171.1786 319.8841A105.1875 105.1875 0 0 0 175.1355 323.8399Z" fill="rgb(129,181,246)" stroke="white" stroke-linejoin="bevel"></path><path d="M94.8572 392.2681A210.375 210.375 0 0 1 87.6857 384.3102L167.5928 315.9051A105.1875 105.1875 0 0 0 171.1786 319.8841Z" fill="rgb(129,181,246)" stroke="white" stroke-linejoin="bevel"></path><path d="M87.6857 384.3102A210.375 210.375 0 0 1 81.4961 376.7299L164.4981 312.1149A105.1875 105.1875 0 0 0 167.5928 315.9051Z" fill="rgb(129,181,246)" stroke="white" stroke-linejoin="bevel"></path><path d="M81.4961 376.7299A210.375 210.375 0 0 1 54.2472 330.6325L150.8736 289.0662A105.1875 105.1875 0 0 0 164.4981 312.1149Z" fill="rgb(129,181,246)" fill-opacity="0.6" stroke="white" stroke-opacity="0.6" stroke-linejoin="bevel"></path><path d="M150.8736 289.0662A105.1875 105.1875 0 0 1 168.2838 178.2959L247.5 247.5Z" fill="#f6d44c" stroke="white" stroke-linejoin="bevel"></path><path d="M54.2472 330.6325A210.375 210.375 0 0 1 42.8599 296.2862L145.18 271.8931A105.1875 105.1875 0 0 0 150.8736 289.0662Z" fill="rgb(248,222,120)" stroke="white" stroke-linejoin="bevel"></path><path d="M42.8599 296.2862A210.375 210.375 0 0 1 39.0906 276.1909L143.2953 261.8454A105.1875 105.1875 0 0 0 145.18 271.8931Z" fill="rgb(248,222,120)" stroke="white" stroke-linejoin="bevel"></path><path d="M39.0906 276.1909A210.375 210.375 0 0 1 37.3811 257.8765L142.4405 252.6882A105.1875 105.1875 0 0 0 143.2953 261.8454Z" fill="rgb(248,222,120)" stroke="white" stroke-linejoin="bevel"></path><path d="M37.3811 257.8765A210.375 210.375 0 0 1 37.2115 241.4677L142.3558 244.4839A105.1875 105.1875 0 0 0 142.4405 252.6882Z" fill="rgb(248,222,120)" stroke="white" stroke-linejoin="bevel"></path><path d="M37.2115 241.4677A210.375 210.375 0 0 1 37.8027 230.6269L142.6514 239.0634A105.1875 105.1875 0 0 0 142.3558 244.4839Z" fill="rgb(248,222,120)" stroke="white" stroke-linejoin="bevel"></path><path d="M37.8027 230.6269A210.375 210.375 0 0 1 89.0677 109.0918L168.2838 178.2959A105.1875 105.1875 0 0 0 142.6514 239.0634Z" fill="rgb(248,222,120)" fill-opacity="0.6" stroke="white" stroke-opacity="0.6" stroke-linejoin="bevel"></path><path d="M168.2838 178.2959A105.1875 105.1875 0 0 1 170.7893 175.5286L247.5 247.5Z" fill="#f1a6c3" stroke="white" stroke-linejoin="bevel"></path><path d="M89.0677 109.0918A210.375 210.375 0 0 1 91.9563 105.8533L169.7281 176.6766A105.1875 105.1875 0 0 0 168.2838 178.2959Z" fill="rgb(244,188,210)" stroke="white" stroke-linejoin="bevel"></path><path d="M91.9563 105.8533A210.375 210.375 0 0 1 93.0934 104.6146L170.2967 176.0573A105.1875 105.1875 0 0 0 169.7281 176.6766Z" fill="rgb(244,188,210)" stroke="white" stroke-linejoin="bevel"></path><path d="M93.0934 104.6146A210.375 210.375 0 0 1 93.6785 103.9849L170.5892 175.7425A105.1875 105.1875 0 0 0 170.2967 176.0573Z" fill="rgb(244,188,210)" stroke="white" stroke-linejoin="bevel"></path><path d="M93.6785 103.9849A210.375 210.375 0 0 1 93.7837 103.8722L170.6418 175.6861A105.1875 105.1875 0 0 0 170.5892 175.7425Z" fill="rgb(244,188,210)" stroke="white" stroke-linejoin="bevel"></path><path d="M93.7837 103.8722A210.375 210.375 0 0 1 93.8657 103.7845L170.6828 175.6423A105.1875 105.1875 0 0 0 170.6418 175.6861Z" fill="rgb(244,188,210)" stroke="white" stroke-linejoin="bevel"></path><path d="M93.8657 103.7845A210.375 210.375 0 0 1 94.0787 103.5572L170.7893 175.5286A105.1875 105.1875 0 0 0 170.6828 175.6423Z" fill="rgb(244,188,210)" fill-opacity="0.6" stroke="white" stroke-opacity="0.6" stroke-linejoin="bevel"></path><path d="M170.7893 175.5286A105.1875 105.1875 0 0 1 212.0033 148.4829L247.5 247.5Z" fill="#fb6060" stroke="white" stroke-linejoin="bevel"></path><path d="M94.0787 103.5572A210.375 210.375 0 0 1 137.417 68.2254L192.4585 157.8627A105.1875 105.1875 0 0 0 170.7893 175.5286Z" fill="rgb(252,135,135)" stroke="white" stroke-linejoin="bevel"></path><path d="M137.417 68.2254A210.375 210.375 0 0 1 155.9546 58.0876L201.7273 152.7938A105.1875 105.1875 0 0 0 192.4585 157.8627Z" fill="rgb(252,135,135)" stroke="white" stroke-linejoin="bevel"></path><path d="M155.9546 58.0876A210.375 210.375 0 0 1 161.7354 55.4009L204.6177 151.4504A105.1875 105.1875 0 0 0 201.7273 152.7938Z" fill="rgb(252,135,135)" stroke="white" stroke-linejoin="bevel"></path><path d="M161.7354 55.4009A210.375 210.375 0 0 1 164.445 54.2139L205.9725 150.857A105.1875 105.1875 0 0 0 204.6177 151.4504Z" fill="rgb(252,135,135)" stroke="white" stroke-linejoin="bevel"></path><path d="M164.445 54.2139A210.375 210.375 0 0 1 166.2129 53.4638L206.8565 150.4819A105.1875 105.1875 0 0 0 205.9725 150.857Z" fill="rgb(252,135,135)" stroke="white" stroke-linejoin="bevel"></path><path d="M166.2129 53.4638A210.375 210.375 0 0 1 176.5065 49.4657L212.0033 148.4829A105.1875 105.1875 0 0 0 206.8565 150.4819Z" fill="rgb(252,135,135)" fill-opacity="0.6" stroke="white" stroke-opacity="0.6" stroke-linejoin="bevel"></path><path d="M212.0033 148.4829A105.1875 105.1875 0 0 1 247.5 142.3125L247.5 247.5Z" fill="#67dfbe" stroke="white" stroke-linejoin="bevel"></path><path d="M176.5065 49.4657A210.375 210.375 0 0 1 210.9656 40.3216L229.2328 143.9108A105.1875 105.1875 0 0 0 212.0033 148.4829Z" fill="rgb(141,231,206)" stroke="white" stroke-linejoin="bevel"></path><path d="M210.9656 40.3216A210.375 210.375 0 0 1 219.4627 39.0017L233.4814 143.2508A105.1875 105.1875 0 0 0 229.2328 143.9108Z" fill="rgb(141,231,206)" stroke="white" stroke-linejoin="bevel"></path><path d="M219.4627 39.0017A210.375 210.375 0 0 1 226.9565 38.1305L237.2282 142.8152A105.1875 105.1875 0 0 0 233.4814 143.2508Z" fill="rgb(141,231,206)" stroke="white" stroke-linejoin="bevel"></path><path d="M226.9565 38.1305A210.375 210.375 0 0 1 232.5809 37.6547L240.0405 142.5773A105.1875 105.1875 0 0 0 237.2282 142.8152Z" fill="rgb(141,231,206)" stroke="white" stroke-linejoin="bevel"></path><path d="M232.5809 37.6547A210.375 210.375 0 0 1 237.2643 37.3742L242.3821 142.4371A105.1875 105.1875 0 0 0 240.0405 142.5773Z" fill="rgb(141,231,206)" stroke="white" stroke-linejoin="bevel"></path><path d="M237.2643 37.3742A210.375 210.375 0 0 1 247.5 37.125L247.5 142.3125A105.1875 105.1875 0 0 0 242.3821 142.4371Z" fill="rgb(141,231,206)" fill-opacity="0.6" stroke="white" stroke-opacity="0.6" stroke-linejoin="bevel"></path><text dominant-baseline="central" text-anchor="middle" transform="matrix(0.958,0.285,-0.285,0.958,297.9056,262.5125)" fill="#333" style="font-size: 12px; font-family: &quot;Microsoft YaHei&quot;;">Asia</text><text dominant-baseline="central" text-anchor="middle" transform="matrix(0.533,-0.846,0.846,0.533,331.5533,113.9711)" fill="#333" style="font-size: 12px; font-family: &quot;Microsoft YaHei&quot;;">China</text><text dominant-baseline="central" text-anchor="middle" transform="matrix(0.994,0.111,-0.111,0.994,404.3066,265.01)" fill="#333" style="font-size: 12px; font-family: &quot;Microsoft YaHei&quot;;">India</text><text dominant-baseline="central" text-anchor="middle" transform="matrix(0.712,0.702,-0.702,0.712,359.8757,358.2548)" fill="#333" style="font-size: 12px; font-family: &quot;Microsoft YaHei&quot;;">Indonesia</text><text dominant-baseline="central" text-anchor="middle" transform="matrix(0.557,0.83,-0.83,0.557,335.4401,378.5018)" fill="#333" style="font-size: 12px; font-family: &quot;Microsoft YaHei&quot;;">Pakistan</text><text dominant-baseline="central" text-anchor="middle" transform="matrix(0.418,0.909,-0.909,0.418,313.3934,390.8631)" fill="#333" style="font-size: 12px; font-family: &quot;Microsoft YaHei&quot;;">Bangladesh</text><text dominant-baseline="central" text-anchor="middle" transform="matrix(0.108,-0.994,0.994,0.108,230.5275,404.3657)" fill="#333" style="font-size: 12px; font-family: &quot;Microsoft YaHei&quot;;">Others</text><text dominant-baseline="central" text-anchor="middle" transform="matrix(0.765,-0.643,0.643,0.765,207.242,281.3437)" fill="#333" style="font-size: 12px; font-family: &quot;Microsoft YaHei&quot;;">Europe</text><text dominant-baseline="central" text-anchor="middle" transform="matrix(0.594,-0.805,0.805,0.594,153.7863,374.4357)" fill="#333" style="font-size: 12px; font-family: &quot;Microsoft YaHei&quot;;">Russia</text><text dominant-baseline="central" text-anchor="middle" transform="matrix(0.664,-0.748,0.748,0.664,142.7725,365.513)" fill="#333" style="font-size: 12px; font-family: &quot;Microsoft YaHei&quot;;">Germany</text><text dominant-baseline="central" text-anchor="middle" transform="matrix(0.861,-0.509,0.509,0.861,111.6742,327.7888)" fill="#333" style="font-size: 12px; font-family: &quot;Microsoft YaHei&quot;;">Others</text><text dominant-baseline="central" text-anchor="middle" transform="matrix(0.988,0.155,-0.155,0.988,195.5441,239.3339)" fill="#333" style="font-size: 12px; font-family: &quot;Microsoft YaHei&quot;;">Africa</text><text dominant-baseline="central" text-anchor="middle" transform="matrix(0.949,-0.315,0.315,0.949,97.7353,297.1534)" fill="#333" style="font-size: 12px; font-family: &quot;Microsoft YaHei&quot;;">Nigeria</text><text dominant-baseline="central" text-anchor="middle" transform="matrix(0.983,-0.184,0.184,0.983,92.4233,276.5882)" fill="#333" style="font-size: 12px; font-family: &quot;Microsoft YaHei&quot;;">Ethiopia</text><text dominant-baseline="central" text-anchor="middle" transform="matrix(0.996,-0.093,0.093,0.996,90.4017,262.1643)" fill="#333" style="font-size: 12px; font-family: &quot;Microsoft YaHei&quot;;">Egypt</text><text dominant-baseline="central" text-anchor="middle" xml:space="preserve" transform="matrix(1,-0.01,0.01,1,89.7272,249.1303)" fill="#333" style="font-size: 12px; font-family: &quot;Microsoft YaHei&quot;;">DR Congo</text><text dominant-baseline="central" text-anchor="middle" transform="matrix(0.921,0.389,-0.389,0.921,102.1227,186.1782)" fill="#333" style="font-size: 12px; font-family: &quot;Microsoft YaHei&quot;;">Others</text><text dominant-baseline="central" text-anchor="middle" transform="matrix(0.741,0.671,-0.671,0.741,208.5122,212.2006)" fill="#333" style="font-size: 12px; font-family: &quot;Microsoft YaHei&quot;;">Oceania</text><text dominant-baseline="central" text-anchor="middle" xml:space="preserve" transform="matrix(0.549,0.836,-0.836,0.549,218.6448,203.5287)" fill="#333" style="font-size: 12px; font-family: &quot;Microsoft YaHei&quot;;">North America</text><text dominant-baseline="central" text-anchor="middle" xml:space="preserve" transform="matrix(0.632,0.775,-0.775,0.632,147.8015,125.2088)" fill="#333" style="font-size: 12px; font-family: &quot;Microsoft YaHei&quot;;">United States</text><text dominant-baseline="central" text-anchor="middle" transform="matrix(0.48,0.877,-0.877,0.48,171.7938,109.0677)" fill="#333" style="font-size: 12px; font-family: &quot;Microsoft YaHei&quot;;">Mexico</text><text dominant-baseline="central" text-anchor="middle" xml:space="preserve" transform="matrix(0.171,0.985,-0.985,0.171,238.4927,195.6833)" fill="#333" style="font-size: 12px; font-family: &quot;Microsoft YaHei&quot;;">South America</text><text dominant-baseline="central" text-anchor="middle" transform="matrix(0.256,0.967,-0.967,0.256,207.0315,94.9968)" fill="#333" style="font-size: 12px; font-family: &quot;Microsoft YaHei&quot;;">Brazil</text><path d="M-147.519 -5l295.0381 0l0 28l-295.0381 0Z" transform="translate(247.5 5)" fill="rgb(0,0,0)" fill-opacity="0" stroke="#ccc" stroke-width="0"></path><text dominant-baseline="central" text-anchor="middle" xml:space="preserve" y="9" transform="translate(247.5 5)" fill="#464646" style="font-size: 18px; font-family: &quot;Microsoft YaHei&quot;; font-weight: bold;">Population Distribution in 2022</text></g></svg>